<svg xmlns="http://www.w3.org/2000/svg" width="211.994" height="169.595" viewBox="0 0 211.994 169.595"><g transform="translate(0 -3)"><g transform="translate(49.465 31.266)"><path d="M77.665,100.723v-11.9S88.745,78.378,89.55,71.255c0,0,5.78-3.993,5.78-11.151,0-4.961-2.212-5.71-2.212-5.71S97.1,46.841,97.1,39.633c0-14.451-7.25-25.566-19.433-25.566,0,0-5.173-7.066-14.133-7.066C44.509,7,29.083,18.462,29.083,38.969a29.192,29.192,0,0,0,4.862,15.426s-2.212,1.081-2.212,5.71c0,9,5.78,11.151,5.78,11.151C38.319,78.378,49.4,88.823,49.4,88.823v11.9C43.449,118.572,7,106.814,7,148.329H120.063C120.063,106.672,83.615,118.572,77.665,100.723Z" transform="translate(-7 -7)" fill="#fff"/></g><g transform="translate(134.263 3)"><path d="M38.433,63.9A44.65,44.65,0,0,1,35.9,77.954a25.936,25.936,0,0,1,.763,6.416C36.666,101.825,19,119.236,19,119.236c3.837,1.675,16.112,7.914,21.129,10.96h56.6c0-37.1-30.124-26.5-35.332-42.4V77.2c2.346-1.18,7.929-9.3,8.635-15.645,1.837-.141,5.5-4.643,5.5-8.664s-1.272-5.7-2.381-6.353A31.944,31.944,0,0,0,75.532,34.8c0-12.868-3.477-24.733-14.133-24.733,0,0-3.06-7.066-14.133-7.066C31.557,3,21.911,13.8,19.579,27.966,31,34.085,38.433,47.286,38.433,63.9Z" transform="translate(-19 -3)" fill="#fff"/></g><g transform="translate(0 3)"><path d="M77.731,118.834c-3.837-4.1-9.377-11.179-11.391-16.543-4.409-2.212-8.133-4.819-9.808-9.186V85.982a49.516,49.516,0,0,0,6.7-.622c-3.152-4.855-5.816-15.921-5.816-22.125,0-15.779,6.791-28.761,18.062-36.894C72.078,13.331,64.531,3,46.646,3c-6.459,0-11.313,7.066-11.313,7.066-36.993,0-16.578,59.04-27.446,67.746,0,0,6.657,8.247,27.446,8.247v7.052C29.587,108.078,0,102.545,0,130.2H56.694C61.669,127.186,77.731,118.834,77.731,118.834Z" transform="translate(0 -3)" fill="#fff"/></g></g></svg>