<svg id="Layer_1" data-name="Layer 1" xmlns="http://www.w3.org/2000/svg" viewBox="0 0 275.73 159.593"><defs><style>.cls-1{fill:#57d2ff;}.cls-2{fill:none;stroke:#000;stroke-miterlimit:10;stroke-width:0.5px;}.cls-3{fill:#7cfff9;}</style></defs><title>computer</title><path id="svg_1" data-name="svg 1" d="M135.782,225.358a1.858,1.858,0,0,1,1.966-1.966h28.5a1.857,1.857,0,0,1,1.966,1.966,1.97,1.97,0,0,1-1.966,1.965h-28.5a1.97,1.97,0,0,1-1.966-1.965m114.773-12.775H52.651V80.123h197.9v132.46Zm39.306,13.757a5.284,5.284,0,0,0-5.306-5.306v-.393h-28.1a4.167,4.167,0,0,0,2.358-3.734V76a4.029,4.029,0,0,0-4.127-4.127H48.524A4.03,4.03,0,0,0,44.4,76V216.71a3.956,3.956,0,0,0,2.359,3.734H19.437v.393a5.307,5.307,0,0,0,0,10.613H284.555a5,5,0,0,0,5.306-5.11" transform="translate(-14.131 -71.869)"/><rect class="cls-1" x="38.52" y="132.854" width="197.905" height="7.861"/><path d="M56.517,210.814l2.555.394v-2.359H56.517Zm0-2.358h2.555V206.1l-2.555.393Zm2.948,2.948,3.341.393v-2.948H59.465Zm0-5.306v2.358h3.341v-2.948Z" transform="translate(-14.131 -71.869)"/><circle class="cls-2" cx="55.747" cy="136.981" r="2.751"/><path class="cls-3" d="M52.651,80.123v124.6h197.9V80.123Zm195.763,6.626V202.987H55.578V81.579H248.414Z" transform="translate(-14.131 -71.869)"/></svg>