<svg id="Layer_1" data-name="Layer 1" xmlns="http://www.w3.org/2000/svg" xmlns:xlink="http://www.w3.org/1999/xlink" viewBox="0 0 192.836 121.408"><defs><style>.cls-1{fill:#ffb925;}.cls-2{fill:#f6ff7f;}.cls-3,.cls-4,.cls-46,.cls-48,.cls-57{fill:none;stroke-miterlimit:10;}.cls-3,.cls-4,.cls-57{stroke:#000;stroke-linecap:round;}.cls-3{stroke-width:0.25px;}.cls-4{stroke-width:0.125px;}.cls-5{fill:#cf9f66;}.cls-6{fill:#89643d;}.cls-7{fill:#c45c00;}.cls-8{fill:#c98019;}.cls-9{fill:#eb9800;}.cls-10{fill:#d68b00;}.cls-11{fill:#ebba1d;}.cls-12{fill:#ffca1f;}.cls-13{fill:#ffd85e;}.cls-14{fill:#d96600;}.cls-15{fill:#ffd03b;}.cls-16{fill:#ffe38a;}.cls-17{fill:#ffe38c;}.cls-18{fill:#fff4d1;}.cls-19{fill:#fff0c2;}.cls-20,.cls-33{fill:#fff276;}.cls-20{opacity:0.51;}.cls-20,.cls-26,.cls-33,.cls-45,.cls-46,.cls-47,.cls-48{isolation:isolate;}.cls-21{fill:#fff2ff;}.cls-22{fill:#965030;}.cls-23{fill:#ffb95c;}.cls-24{fill:#ffe9cc;}.cls-25{fill:url(#linear-gradient);}.cls-26{fill:#ff9100;opacity:0.47;}.cls-27{fill:#70270f;}.cls-28{fill:url(#linear-gradient-2);}.cls-29{fill:url(#linear-gradient-3);}.cls-30{fill:#fff0db;}.cls-31{fill:#ffbc00;}.cls-32{fill:#fff8f0;}.cls-33{opacity:0.24;}.cls-34{fill:#fff8ed;}.cls-35,.cls-50{fill:#fff;}.cls-36{fill:#351207;}.cls-37{fill:#4a190a;}.cls-38{fill:#6b240e;}.cls-39{fill:#009c08;}.cls-40{fill:#00c40a;}.cls-41{fill:#1cff28;}.cls-42{fill:#696;}.cls-43{fill:#7f4834;}.cls-44{fill:#f16365;}.cls-45,.cls-46,.cls-47,.cls-48{font-size:5.569px;font-family:Monoton-Regular, Monoton;}.cls-45,.cls-47{fill:#0188d8;}.cls-45,.cls-46{letter-spacing:0.05em;}.cls-46,.cls-48{stroke:#0188d8;stroke-width:0.2px;}.cls-47,.cls-48{letter-spacing:0.049em;}.cls-49{fill:#57d2ff;}.cls-50{font-size:6px;letter-spacing:0.05em;}.cls-50,.cls-51,.cls-53,.cls-58{font-family:TitanOne, Titan One;}.cls-51{font-size:4.772px;letter-spacing:0.05em;}.cls-52{fill:#ff7217;}.cls-53{font-size:5px;letter-spacing:0.05em;}.cls-54{fill:#1688c5;}.cls-55{fill:#3c6d9d;}.cls-56{fill:#ffb132;}.cls-57{stroke-width:0.5px;}.cls-58{font-size:12px;}.cls-59{fill:#231f20;}</style><linearGradient id="linear-gradient" x1="226.09" y1="193.747" x2="226.897" y2="194.945" gradientTransform="translate(-123.557 -171.78)" gradientUnits="userSpaceOnUse"><stop offset="0.102" stop-color="#ffd59e"/><stop offset="0.301" stop-color="#ffb76c"/></linearGradient><linearGradient id="linear-gradient-2" x1="-223.784" y1="101.98" x2="-222.977" y2="103.178" gradientTransform="translate(-97.221 -119.762) rotate(-120.207)" xlink:href="#linear-gradient"/><linearGradient id="linear-gradient-3" x1="296.79" y1="21.634" x2="297.597" y2="22.832" gradientTransform="matrix(0.748, 0.664, -0.664, 0.748, -102.715, -192.44)" xlink:href="#linear-gradient"/></defs><title>confirmScreen</title><rect class="cls-1" width="192.836" height="5.17"/><polygon class="cls-2" points="0 5.362 0 121.408 192.836 121.408 192.836 5.362 192.836 5.17 0 5.17 0 5.362"/><line class="cls-3" x1="187.905" y1="0.898" x2="190.698" y2="3.97"/><line class="cls-3" x1="190.698" y1="0.898" x2="187.905" y2="3.97"/><polygon class="cls-4" points="181.761 0.618 181.761 1.456 183.437 1.456 183.437 3.411 183.996 3.411 183.996 0.618 181.761 0.618"/><rect class="cls-4" x="180.924" y="1.456" width="2.234" height="2.793"/><line class="cls-4" x1="174.221" y1="2.294" x2="177.293" y2="2.294"/><circle class="cls-5" cx="104.486" cy="23.247" r="3.164"/><circle class="cls-6" cx="104.492" cy="23.253" r="2.704"/><circle class="cls-7" cx="104.18" cy="23.07" r="2.137"/><path class="cls-8" d="M157.467,104.126a1.669,1.669,0,0,1,1.226-.42.612.612,0,0,1,.474.979s-.085-.01-.129-.149-.183-.44-.458-.44a1.718,1.718,0,0,0-1.166.523A1.229,1.229,0,0,1,157.467,104.126Z" transform="translate(-55.578 -81.579)"/><path class="cls-9" d="M159.7,103.508s.838-.552,1.383.04a2.984,2.984,0,0,0,.391.55c.16.143.566.265.543.759s-.253.658-.383.671-.861-.1-1.027.136-.087.793-.3,1.055-1.193-.108-.908-.832a1.3,1.3,0,0,0-.292-1.324c-.091-.194-.329-.679.32-.906s.505.248.333.305-.5.095-.437.441.483.5.454,1-.237.633-.138.833.437.387.51.168-.015-.861.423-1.119.914.033,1.055-.105a.491.491,0,0,0-.143-.679l-.021-.013a2.143,2.143,0,0,1-.615-.723c-.139-.25-.628-.245-1.052.009S159.311,103.74,159.7,103.508Z" transform="translate(-55.578 -81.579)"/><path class="cls-10" d="M159.391,103.233a.627.627,0,0,1,.025-.81c.359-.395,1.494-.106,1.386.516s.027.6.2.713.464.089.69.226a.5.5,0,0,1,.107.812,1,1,0,0,1-1.282.283c-.487-.237-.839-.422-1.082.221s-.364,1.12-.724,1.15-.445-.1-.3-.261.3,0,.441-.207a6.657,6.657,0,0,1,.452-.977c.316-.46.758-.411,1.195-.171a.7.7,0,0,0,.959-.217h0l.01-.017c.179-.27.117-.47-.623-.546a.593.593,0,0,1-.439-.642c.083-.493-.058-.757-.368-.767s-.561.243-.419.7S159.391,103.233,159.391,103.233Z" transform="translate(-55.578 -81.579)"/><path class="cls-11" d="M161.807,104.138a.916.916,0,0,0-.379-.932c-.514-.327-.976.206-1.213.694s-.03.928-.326,1.134-.813-.039-1.133,0-1.117.549-.1,1.426a1.733,1.733,0,0,0,2.367-.343c.157-.237.207-.5.411-.677s-.186-.233-.287-.117a2.63,2.63,0,0,0-.358.578,1.568,1.568,0,0,1-1.139.547c-.431.007-1.025-.216-1.1-.719s.648-.337.81-.267,1.119-.075,1.119-.9.507-1.1.848-1.043.216.7.118.795a.757.757,0,0,1-1.063.026l-.1.284a.982.982,0,0,0,.943.283A1.093,1.093,0,0,0,161.807,104.138Z" transform="translate(-55.578 -81.579)"/><path class="cls-12" d="M158.91,104.8a.886.886,0,0,1-.182-1.24c.014-.019.029-.037.044-.055.571-.781,1.629-.655,1.7-.3s-.183.691.116,1.135.908.391,1.168,1.047-.833,1.464-1.514.84-.114-1.041.069-1.139.258.079.157.231-.534.477.079.819,1.226-.393.858-.773-.459-.231-.92-.719a1.154,1.154,0,0,1-.28-1.106.387.387,0,0,0-.588-.3c-.373.164-1.223.842-.425,1.525C159.188,104.762,159.212,104.905,158.91,104.8Z" transform="translate(-55.578 -81.579)"/><path class="cls-13" d="M161.939,104.084a.862.862,0,0,0-1.171.338.63.63,0,0,0-.034.069c-.476.829.972,1.324,1.072.952s-.032-.228-.209-.2-.81.048-.7-.633c.1-.59.823-.479.985-.332a.1.1,0,0,0,.136,0,.083.083,0,0,0,.016-.021C162.055,104.216,162.042,104.158,161.939,104.084Z" transform="translate(-55.578 -81.579)"/><path class="cls-7" d="M160.109,105.716s.478-.268.409-.687-.139-.329-.127-.249a.7.7,0,0,1-.042.574.978.978,0,0,1-.3.31C159.877,105.791,160.075,105.739,160.109,105.716Z" transform="translate(-55.578 -81.579)"/><path class="cls-13" d="M159.953,102.987s.373-.054.456.192.032.1-.083.028S159.713,103.075,159.953,102.987Z" transform="translate(-55.578 -81.579)"/><circle class="cls-14" cx="104.972" cy="23.718" r="1.888"/><path class="cls-8" d="M161.475,107.155a1.472,1.472,0,0,0,.106-1.139.539.539,0,0,0-.938-.2s.025.071.154.08.417.066.473.3a1.518,1.518,0,0,1-.207,1.11A1.087,1.087,0,0,0,161.475,107.155Z" transform="translate(-55.578 -81.579)"/><path class="cls-9" d="M161.542,105.113s.3-.835-.322-1.179a2.664,2.664,0,0,1-.552-.221c-.156-.109-.345-.431-.766-.309s-.513.355-.5.468.261.719.1.909-.664.24-.845.474.34,1,.9.608a1.153,1.153,0,0,1,1.2-.026c.185.037.652.142.713-.463s-.318-.381-.332-.222.023.449-.287.467-.531-.311-.957-.181-.5.335-.687.291-.422-.3-.249-.4.742-.166.872-.6-.218-.778-.128-.926a.432.432,0,0,1,.612-.019l.015.015a1.9,1.9,0,0,0,.749.38c.242.067.341.488.21.9S161.423,105.493,161.542,105.113Z" transform="translate(-55.578 -81.579)"/><path class="cls-10" d="M161.841,105.318a.555.555,0,0,0,.691-.19c.264-.39-.219-1.3-.73-1.083s-.523.1-.654-.02-.172-.38-.336-.546a.439.439,0,0,0-.619-.048.447.447,0,0,0-.1.124.884.884,0,0,0,.023,1.159c.3.37.536.633.035.975s-.886.545-.837.861.177.361.286.2-.066-.258.086-.422a5.879,5.879,0,0,0,.746-.591c.329-.367.195-.736-.1-1.061a.614.614,0,0,1-.012-.868h0l.012-.012c.2-.21.38-.2.6.421a.522.522,0,0,0,.642.243c.405-.173.662-.106.734.157s-.091.533-.512.507S161.841,105.318,161.841,105.318Z" transform="translate(-55.578 -81.579)"/><path class="cls-11" d="M160.563,103.432a.807.807,0,0,1,.879.132c.388.373.025.88-.344,1.185s-.79.219-.906.515.2.689.231.974-.24,1.073-1.2.385a1.53,1.53,0,0,1-.2-2.1c.171-.184.383-.28.5-.493s.238.112.16.222a2.375,2.375,0,0,1-.422.428,1.388,1.388,0,0,0-.233,1.092c.083.371.4.835.846.8s.155-.627.062-.75a.866.866,0,0,1,.541-1.148c.711-.172.838-.664.72-.945s-.647-.04-.707.064a.669.669,0,0,0,.2.918l-.223.147s-.5-.292-.439-.751A.961.961,0,0,1,160.563,103.432Z" transform="translate(-55.578 -81.579)"/><path class="cls-12" d="M160.6,106.055a.781.781,0,0,0,1.1-.1.585.585,0,0,0,.038-.049c.552-.652.225-1.534-.092-1.519s-.555.3-1,.136-.525-.7-1.141-.786-1.085,1.018-.408,1.474.918-.119.964-.3-.122-.2-.232-.087-.3.557-.718.1.082-1.134.485-.9.293.346.808.641a1.026,1.026,0,0,0,1.008.012.34.34,0,0,1,.377.442c-.063.355-.47,1.224-1.221.681C160.572,105.809,160.443,105.819,160.6,106.055Z" transform="translate(-55.578 -81.579)"/><path class="cls-15" d="M162.587,105.693a.99.99,0,0,1-.459-.335.921.921,0,0,0-1.227-.3.747.747,0,0,0-.066,1.353s.163.042-.015-.161a.542.542,0,0,1-.011-.835.681.681,0,0,1,.949-.035c.285.246.418.536.754.61A1.026,1.026,0,0,0,162.587,105.693Z" transform="translate(-55.578 -81.579)"/><path class="cls-13" d="M161.559,106.976a1.224,1.224,0,0,0,.833-1.309.576.576,0,0,0-.641-.5.562.562,0,0,0-.057.009,1.059,1.059,0,0,1-1.071-.317.62.62,0,0,0-1,.083c-.388.456.006,1.877,1,1.637s.046.6-.112.584-.225-.054-.455-.25-.728-.805-1.3-.751c0,0-.051.045.1.2s.331-.069.886.477.75.743,1.378.116.023-.676-.119-.651-.673.181-.975-.155a.852.852,0,0,1-.087-1.109c.254-.214.413-.139.616.106a1.231,1.231,0,0,0,1.136.258c.367-.118.647.39.294,1.016s-1.239.454-1.42.432a1.709,1.709,0,0,0-.927.072.135.135,0,0,0-.031.188.147.147,0,0,0,.03.031.224.224,0,0,0,.156.056c.1-.022.019-.185,1.19-.138a1.486,1.486,0,0,0,.409-.042C161.452,107.008,161.509,106.993,161.559,106.976Z" transform="translate(-55.578 -81.579)"/><path class="cls-13" d="M160.583,103.308a.761.761,0,0,1-.047,1.075c-.017.015-.034.03-.052.043-.613.58-1.339-.56-1.041-.722s.2-.02.214.138.127.7.689.469c.487-.2.241-.806.081-.914a.086.086,0,0,1-.028-.118.075.075,0,0,1,.014-.017C160.446,103.235,160.5,103.234,160.583,103.308Z" transform="translate(-55.578 -81.579)"/><path class="cls-16" d="M159.561,105.217s.131-.466.5-.493.311.05.24.057a.614.614,0,0,0-.484.156.841.841,0,0,0-.2.325C159.545,105.431,159.548,105.251,159.561,105.217Z" transform="translate(-55.578 -81.579)"/><path class="cls-13" d="M161.936,104.784s-.031-.332-.26-.352-.095-.006-.006.076S161.911,105.008,161.936,104.784Z" transform="translate(-55.578 -81.579)"/><path class="cls-15" d="M158.779,102.513a1.135,1.135,0,0,0,.491.416,1.042,1.042,0,0,1,.654,1.272.845.845,0,0,1-1.471.43s-.089-.168.182-.025a.616.616,0,0,0,.923-.21.772.772,0,0,0-.215-1.055c-.347-.247-.7-.317-.871-.667A1.14,1.14,0,0,1,158.779,102.513Z" transform="translate(-55.578 -81.579)"/><path class="cls-17" d="M157.641,103.985a1.385,1.385,0,0,1,1.219-1.264.652.652,0,0,1,.724.572.473.473,0,0,1,0,.065,1.2,1.2,0,0,0,.635,1.094.7.7,0,0,1,.173,1.118c-.4.548-2.068.492-2.068-.666s-.674.11-.613.279.119.234.4.435,1.08.587,1.173,1.232c0,0-.036.068-.253-.058s-.012-.381-.76-.849-1.017-.627-.5-1.485.738-.206.749-.043-.02.789.43,1.032a.966.966,0,0,0,1.244-.2c.168-.335.043-.491-.281-.651a1.4,1.4,0,0,1-.586-1.181c.031-.435-.6-.608-1.2-.053s-.169,1.484-.1,1.677a1.928,1.928,0,0,1,.167,1.038.152.152,0,0,1-.2.085h0a.151.151,0,0,1-.042-.025.248.248,0,0,1-.1-.156c0-.115.2-.071-.165-1.346a1.722,1.722,0,0,1-.063-.462C157.634,104.112,157.636,104.046,157.641,103.985Z" transform="translate(-55.578 -81.579)"/><path class="cls-18" d="M159.375,102.885s.194.106.233.626a1.166,1.166,0,0,0,.63.946.676.676,0,0,1,.286.911h0c-.01.019-.022.039-.034.058a.709.709,0,0,0-.286-.937,1.125,1.125,0,0,1-.652-.987A1.1,1.1,0,0,0,159.375,102.885Z" transform="translate(-55.578 -81.579)"/><path class="cls-15" d="M161.562,103.375a.53.53,0,0,0-.633-.2s-.129.076.041.065a.644.644,0,0,1,.552.158C161.7,103.574,161.585,103.4,161.562,103.375Z" transform="translate(-55.578 -81.579)"/><path class="cls-19" d="M160.37,105.23a.4.4,0,0,0,.034-.388c-.106-.177-.056-.206,0-.167a.483.483,0,0,1,.152.4.686.686,0,0,1-.382.605C159.941,105.758,160.088,105.541,160.37,105.23Z" transform="translate(-55.578 -81.579)"/><path class="cls-19" d="M157.946,104.232s.211-.241.352-.177a.413.413,0,0,1,.188.316c.006.059.023.324.034.388s-.07.047-.075-.071,0-.528-.165-.556a.309.309,0,0,0-.311.135C157.928,104.326,157.922,104.267,157.946,104.232Z" transform="translate(-55.578 -81.579)"/><path class="cls-20" d="M162.584,104.6c.3,1.349-1.055,3.121-2.5,2.708-1.329-.378-2.641-.922-2.641-2.3a2.822,2.822,0,0,1,2.573-2.789A3.013,3.013,0,0,1,162.584,104.6Z" transform="translate(-55.578 -81.579)"/><path class="cls-21" d="M161.341,102.718s-.159-.152-.253.014.087.188.173.2c0,0-.1.1.037.144s.339-.014.571.239a1.735,1.735,0,0,1,.433,1.358c-.151.4.246.737.174.99a1.705,1.705,0,0,1-.347.773c-.181.145-.383.362-.174.333a2.536,2.536,0,0,0,.672-1.662,1.664,1.664,0,0,0-.159-1,7.367,7.367,0,0,0-.549-.831A1.054,1.054,0,0,0,161.341,102.718Z" transform="translate(-55.578 -81.579)"/><path class="cls-21" d="M158.668,106.793s-.174-.152.022-.231.332.173.332.253.159.2.456.267.318-.036.469.008.391.245.629.2.3.036.13.065A4.337,4.337,0,0,1,158.668,106.793Z" transform="translate(-55.578 -81.579)"/><ellipse class="cls-21" cx="105.095" cy="21.576" rx="0.148" ry="0.134"/><path class="cls-22" d="M159.52,104.151a.955.955,0,0,1-.923.983h-.066a1.065,1.065,0,0,1-1.058-1.047,1.024,1.024,0,0,1,2.047.064Z" transform="translate(-55.578 -81.579)"/><circle class="cls-23" cx="102.953" cy="22.519" r="0.918"/><circle class="cls-24" cx="102.953" cy="22.548" r="0.831"/><circle class="cls-25" cx="102.953" cy="22.59" r="0.741"/><path class="cls-26" d="M157.759,104.589a3.64,3.64,0,0,1,1.059-1.337s.113-.035.2.107-1.05.889-.732,1,.941-.732,1.142-.39c0,0,.063.151-.2.37a2.378,2.378,0,0,0-.556.67,1.406,1.406,0,0,1-.215.009,4.422,4.422,0,0,1,.709-.8c.205-.141.078-.234-.185-.019s-.83.488-.855.171.469-.742.576-.815.044-.118-.058-.026a3.015,3.015,0,0,0-.81,1.162A.543.543,0,0,1,157.759,104.589Z" transform="translate(-55.578 -81.579)"/><path class="cls-24" d="M157.759,104.589a4.589,4.589,0,0,1,.586-.9c.306-.332.465-.453.547-.427a.537.537,0,0,0-.065-.029c-.036-.013-.274.13-.57.475a4.277,4.277,0,0,0-.527.846Z" transform="translate(-55.578 -81.579)"/><path class="cls-27" d="M157.509,104.355a.975.975,0,0,1,.55-1.152.986.986,0,0,1,1.273.319,1.047,1.047,0,0,0-1.273-.3A1.023,1.023,0,0,0,157.509,104.355Z" transform="translate(-55.578 -81.579)"/><path class="cls-22" d="M158.845,102.348a.953.953,0,0,1,1.313.3h0c.011.018.023.037.033.057a1.066,1.066,0,0,1-.373,1.441,1.024,1.024,0,0,1-.974-1.8Z" transform="translate(-55.578 -81.579)"/><circle class="cls-23" cx="103.72" cy="21.65" r="0.918"/><circle class="cls-24" cx="103.744" cy="21.636" r="0.831"/><circle class="cls-28" cx="103.781" cy="21.614" r="0.741"/><path class="cls-26" d="M160.11,103.648a3.625,3.625,0,0,1-1.689-.243.182.182,0,0,1-.007-.227c.078-.147,1.3.46,1.233.129s-1.107-.446-.912-.791c0,0,.1-.131.422-.013a2.385,2.385,0,0,0,.858.144,1.427,1.427,0,0,1,.116.181,4.418,4.418,0,0,1-1.048-.209c-.225-.106-.242.051.076.17s.84.472.578.652-.877-.031-1-.087-.123.021.009.063a3.019,3.019,0,0,0,1.412.115A.53.53,0,0,1,160.11,103.648Z" transform="translate(-55.578 -81.579)"/><path class="cls-24" d="M160.11,103.648a4.561,4.561,0,0,1-1.076-.05c-.441-.1-.625-.175-.644-.258a.429.429,0,0,0,.008.071,1.411,1.411,0,0,0,.7.253,4.257,4.257,0,0,0,1,.03Z" transform="translate(-55.578 -81.579)"/><path class="cls-27" d="M160.034,103.983a1.022,1.022,0,0,1-1.636-1.156,1.046,1.046,0,0,0,.381,1.25A1.024,1.024,0,0,0,160.034,103.983Z" transform="translate(-55.578 -81.579)"/><path class="cls-22" d="M161.143,103.822a.954.954,0,0,1-1.342.122q-.025-.021-.051-.045a1.063,1.063,0,0,1-.094-1.485,1.024,1.024,0,1,1,1.487,1.408Z" transform="translate(-55.578 -81.579)"/><circle class="cls-23" cx="104.86" cy="21.548" r="0.918"/><circle class="cls-24" cx="104.841" cy="21.569" r="0.831"/><circle class="cls-29" cx="104.813" cy="21.6" r="0.741"/><path class="cls-26" d="M159.534,102.982a3.634,3.634,0,0,1,1.681-.3.184.184,0,0,1,.078.213c-.028.165-1.375-.033-1.212.262s1.19.078,1.114.467c0,0-.054.155-.4.144a2.394,2.394,0,0,0-.86.13,1.351,1.351,0,0,1-.167-.135,4.356,4.356,0,0,1,1.06-.128c.248.03.215-.123-.126-.138s-.943-.185-.751-.439.843-.243.972-.227.111-.059-.027-.057a3,3,0,0,0-1.378.329A.583.583,0,0,1,159.534,102.982Z" transform="translate(-55.578 -81.579)"/><path class="cls-24" d="M159.534,102.982a4.622,4.622,0,0,1,1.038-.287c.449-.045.648-.029.692.044a.537.537,0,0,0-.029-.065,1.426,1.426,0,0,0-.742-.023,4.269,4.269,0,0,0-.956.283Z" transform="translate(-55.578 -81.579)"/><path class="cls-27" d="M159.5,102.64a.974.974,0,0,1,1.176-.5.984.984,0,0,1,.74,1.084,1.046,1.046,0,0,0-.752-1.069A1.023,1.023,0,0,0,159.5,102.64Z" transform="translate(-55.578 -81.579)"/><path class="cls-30" d="M162.479,105.023a.837.837,0,0,1-1.538-.662c.278-.63.775-.892,1.2-.709A1.025,1.025,0,0,1,162.479,105.023Z" transform="translate(-55.578 -81.579)"/><circle class="cls-31" cx="106.098" cy="23.192" r="0.652"/><path class="cls-32" d="M161.1,104.078a1.55,1.55,0,0,1,1.26-.274l.063.069a2.01,2.01,0,0,0-1.4.331Z" transform="translate(-55.578 -81.579)"/><circle class="cls-33" cx="106.092" cy="23.184" r="0.47"/><path class="cls-34" d="M161.682,106.768a.837.837,0,1,1-.619-1.556h0c.641-.248,1.179-.083,1.349.347A1.024,1.024,0,0,1,161.682,106.768Z" transform="translate(-55.578 -81.579)"/><circle class="cls-31" cx="105.714" cy="24.443" r="0.652"/><path class="cls-35" d="M161.372,105.121a1.551,1.551,0,0,1,1.085.7l0,.093a2.01,2.01,0,0,0-1.224-.755Z" transform="translate(-55.578 -81.579)"/><path class="cls-36" d="M160.66,107.25s-.922-.872-.7-1.744.518-.011.329.119-.119.481-.012.693.306.485.453.5S161.2,107.471,160.66,107.25Z" transform="translate(-55.578 -81.579)"/><path class="cls-37" d="M160.982,107.086s-.9-.554-.875-1.3.422-.1.289.04-.013.413.11.569.334.343.456.329S161.464,107.173,160.982,107.086Z" transform="translate(-55.578 -81.579)"/><path class="cls-38" d="M160.4,107.221s-.7-.578-.431-1.063.444.036.269.095-.148.268-.078.4.214.3.338.325S160.845,107.393,160.4,107.221Z" transform="translate(-55.578 -81.579)"/><path class="cls-38" d="M160.993,107.184s-.755-.754-.551-1.48.436,0,.274.107-.111.4-.026.582.246.414.369.43S161.443,107.382,160.993,107.184Z" transform="translate(-55.578 -81.579)"/><path class="cls-39" d="M158.791,104.744s.081-.138-.136-.095-.135.127-.135.127.051-.2-.082-.085a.451.451,0,0,0-.128.317s-.066-.242-.241-.051a.219.219,0,0,0-.029.309h0a.25.25,0,0,0,.023.023s-.051.13-.109.133,0,.152,0,.152l-.025.134s.025.162.148.181-.217.043-.2.129.2.12.2.12-.177.051-.006.18a.5.5,0,0,0,.39.073l-.087.095s.142.138.189.105.076.111.155.14.174-.107.174-.107.177.172.287.177.131-.152.131-.152.06.022.158-.057.221.057.254-.181-.127-.13-.127-.13.219.044.209-.064-.2-.177-.2-.177.251.014.174-.168a.278.278,0,0,0-.216-.189s.018-.074.03-.134-.163-.127-.163-.127.041.062-.037-.095a.441.441,0,0,0-.263-.206s.106-.12.04-.215-.271-.037-.271-.037S159.144,104.642,158.791,104.744Z" transform="translate(-55.578 -81.579)"/><path class="cls-40" d="M158.583,104.848a.071.071,0,0,1-.05.088h0a.071.071,0,0,1-.088-.05h0l-.055-.208a.071.071,0,0,1,.05-.088h0a.072.072,0,0,1,.088.051h0Z" transform="translate(-55.578 -81.579)"/><path class="cls-40" d="M158.755,104.9c-.011.017-.047.016-.081,0h0c-.034-.02-.053-.05-.042-.069l.059-.1c.01-.018.047-.016.08,0h0c.035.02.053.051.043.069Z" transform="translate(-55.578 -81.579)"/><path class="cls-41" d="M158.546,104.874a.065.065,0,0,1,.02.086h0c-.015.037-.048.058-.076.047l-.143-.059a.064.064,0,0,1-.021-.086h0c.015-.037.048-.058.076-.047Z" transform="translate(-55.578 -81.579)"/><path class="cls-40" d="M158.055,105.628a.072.072,0,0,1,.031.1h0a.071.071,0,0,1-.1.031h0l-.192-.1a.071.071,0,0,1-.031-.1h0a.073.073,0,0,1,.1-.032h0Z" transform="translate(-55.578 -81.579)"/><path class="cls-40" d="M158.2,105.532c.007.02-.019.046-.057.057h0c-.038.012-.074,0-.08-.015l-.034-.109c-.006-.02.019-.046.058-.057h0c.038-.012.073,0,.08.015Z" transform="translate(-55.578 -81.579)"/><path class="cls-41" d="M158.048,105.673c.025-.013.061.006.078.042h0a.064.064,0,0,1-.015.087l-.14.068c-.025.013-.061-.006-.078-.042h0a.064.064,0,0,1,.015-.087Z" transform="translate(-55.578 -81.579)"/><path class="cls-40" d="M158.528,105.943a.073.073,0,0,1-.051.088h0a.071.071,0,0,1-.087-.051l-.055-.208a.071.071,0,0,1,.051-.087h0a.07.07,0,0,1,.087.05Z" transform="translate(-55.578 -81.579)"/><path class="cls-40" d="M158.7,105.99c-.011.018-.047.016-.081,0h0c-.034-.02-.053-.051-.042-.069l.058-.1c.011-.018.047-.016.081,0h0c.035.02.053.05.043.069Z" transform="translate(-55.578 -81.579)"/><path class="cls-41" d="M158.49,105.969a.064.064,0,0,1,.021.086h0c-.015.036-.049.057-.076.046l-.144-.058a.064.064,0,0,1-.021-.086h0c.015-.037.049-.058.076-.047Z" transform="translate(-55.578 -81.579)"/><path class="cls-40" d="M158.439,105.221a.07.07,0,0,1-.05.087h0a.072.072,0,0,1-.088-.051h0l-.055-.208a.071.071,0,0,1,.051-.087h0a.072.072,0,0,1,.088.05h0Z" transform="translate(-55.578 -81.579)"/><path class="cls-40" d="M158.611,105.267c-.011.018-.047.017-.081,0h0c-.034-.02-.053-.05-.042-.069l.059-.1c.01-.018.047-.016.081,0h0c.034.02.053.051.042.069Z" transform="translate(-55.578 -81.579)"/><path class="cls-41" d="M158.4,105.246a.065.065,0,0,1,.02.086h0a.063.063,0,0,1-.075.046l-.144-.058a.064.064,0,0,1-.021-.086h0c.015-.037.049-.058.076-.047Z" transform="translate(-55.578 -81.579)"/><path class="cls-40" d="M159.357,105.326a.072.072,0,0,1-.1.012h0a.072.072,0,0,1-.012-.1h0l.133-.169a.071.071,0,0,1,.1-.012h0a.072.072,0,0,1,.011.1h0Z" transform="translate(-55.578 -81.579)"/><path class="cls-40" d="M159.422,105.491c-.021,0-.041-.028-.045-.067h0c0-.039.009-.073.03-.076l.113-.013c.021,0,.041.028.046.068h0c0,.039-.009.073-.03.076Z" transform="translate(-55.578 -81.579)"/><path class="cls-41" d="M159.313,105.311c.008.028-.018.058-.056.069h0a.064.064,0,0,1-.082-.032l-.04-.15c-.008-.028.017-.058.056-.069h0a.065.065,0,0,1,.083.032Z" transform="translate(-55.578 -81.579)"/><path class="cls-40" d="M159.106,105.957a.071.071,0,0,1-.1.021h0a.071.071,0,0,1-.021-.1h0l.117-.181a.072.072,0,0,1,.1-.021h0a.071.071,0,0,1,.021.1h0Z" transform="translate(-55.578 -81.579)"/><path class="cls-40" d="M159.187,106.115c-.02,0-.044-.024-.05-.062h0c-.008-.039,0-.074.023-.078l.112-.024c.02,0,.043.024.05.063h0c.009.039,0,.074-.023.078Z" transform="translate(-55.578 -81.579)"/><path class="cls-41" d="M159.062,105.946c.01.027-.012.06-.049.073h0a.065.065,0,0,1-.086-.024l-.053-.145c-.01-.027.012-.06.05-.074h0a.066.066,0,0,1,.086.024Z" transform="translate(-55.578 -81.579)"/><path class="cls-40" d="M159.281,106.526a.072.072,0,0,1-.05.088h0a.072.072,0,0,1-.088-.051h0l-.055-.208a.073.073,0,0,1,.051-.088h0a.071.071,0,0,1,.087.051Z" transform="translate(-55.578 -81.579)"/><path class="cls-40" d="M159.453,106.573c-.011.018-.048.016-.081,0h0c-.034-.021-.053-.051-.043-.07l.059-.1c.011-.018.047-.016.081,0h0c.034.021.053.051.042.07Z" transform="translate(-55.578 -81.579)"/><path class="cls-41" d="M159.243,106.551a.065.065,0,0,1,.021.086h0c-.015.037-.049.058-.076.047l-.144-.059a.064.064,0,0,1-.021-.086h0c.015-.036.049-.057.076-.046Z" transform="translate(-55.578 -81.579)"/><path class="cls-40" d="M158.707,106.449a.073.073,0,0,1-.1.016h0a.072.072,0,0,1-.016-.1h0l.126-.173a.071.071,0,0,1,.1-.017h0a.072.072,0,0,1,.016.1h0Z" transform="translate(-55.578 -81.579)"/><path class="cls-40" d="M158.778,106.612c-.021,0-.042-.027-.048-.066h0c0-.039.007-.073.028-.076l.113-.016c.021,0,.042.025.047.065h0c.006.04-.006.074-.027.076Z" transform="translate(-55.578 -81.579)"/><path class="cls-41" d="M158.663,106.435c.009.027-.015.059-.053.07h0a.064.064,0,0,1-.084-.028l-.045-.149c-.008-.027.016-.059.054-.07h0a.064.064,0,0,1,.084.029Z" transform="translate(-55.578 -81.579)"/><path class="cls-40" d="M158.106,106.252a.071.071,0,0,1,.075.066h0a.071.071,0,0,1-.066.076h0l-.215.016a.071.071,0,0,1-.076-.066h0a.072.072,0,0,1,.066-.076h0Z" transform="translate(-55.578 -81.579)"/><path class="cls-40" d="M158.183,106.092c.016.014.008.049-.019.079h0c-.025.03-.06.043-.076.029l-.085-.076c-.016-.014-.008-.049.019-.079h0c.025-.03.06-.043.075-.029Z" transform="translate(-55.578 -81.579)"/><path class="cls-41" d="M158.124,106.3a.064.064,0,0,1,.088,0h0a.064.064,0,0,1,.032.082l-.084.131a.064.064,0,0,1-.088,0h0a.065.065,0,0,1-.033-.083Z" transform="translate(-55.578 -81.579)"/><path class="cls-40" d="M159.586,105.8a.072.072,0,0,1-.1,0h0a.072.072,0,0,1,0-.1l.148-.156a.071.071,0,0,1,.1,0h0a.071.071,0,0,1,0,.1Z" transform="translate(-55.578 -81.579)"/><path class="cls-40" d="M159.637,105.974c-.021,0-.038-.032-.039-.071h0c0-.04.016-.072.037-.073l.114,0c.021,0,.038.031.039.071h0c0,.04-.015.072-.037.073Z" transform="translate(-55.578 -81.579)"/><path class="cls-41" d="M159.545,105.784c.005.028-.023.056-.062.063h0c-.039.006-.076-.011-.08-.039l-.025-.153c0-.028.023-.057.062-.063h0c.039-.007.075.01.08.039Z" transform="translate(-55.578 -81.579)"/><path class="cls-40" d="M159.663,106.277a.071.071,0,0,1-.05.088h0a.072.072,0,0,1-.088-.05l-.055-.208a.072.072,0,0,1,.051-.088h0a.073.073,0,0,1,.088.051Z" transform="translate(-55.578 -81.579)"/><path class="cls-40" d="M159.835,106.323c-.011.018-.047.017-.081,0h0c-.034-.02-.053-.05-.042-.069l.059-.1c.01-.018.047-.016.08,0h0c.035.02.054.051.043.07Z" transform="translate(-55.578 -81.579)"/><path class="cls-41" d="M159.626,106.3a.065.065,0,0,1,.02.086h0c-.015.036-.048.058-.076.047l-.143-.059a.064.064,0,0,1-.021-.086h0c.015-.037.049-.058.076-.047Z" transform="translate(-55.578 -81.579)"/><path class="cls-40" d="M158.736,105.612a.072.072,0,0,1-.094.039h0a.073.073,0,0,1-.039-.094h0l.082-.2a.071.071,0,0,1,.093-.039h0a.071.071,0,0,1,.04.093h0Z" transform="translate(-55.578 -81.579)"/><path class="cls-40" d="M158.845,105.753c-.02.007-.047-.016-.063-.053h0c-.014-.036-.011-.072.009-.08l.1-.044c.02-.007.048.016.063.053h0c.015.036.011.073-.008.081Z" transform="translate(-55.578 -81.579)"/><path class="cls-41" d="M158.691,105.609a.065.065,0,0,1-.035.081h0a.065.065,0,0,1-.088-.007l-.08-.134c-.015-.025,0-.061.035-.081h0a.064.064,0,0,1,.088.008Z" transform="translate(-55.578 -81.579)"/><path class="cls-40" d="M158.914,105.128a.071.071,0,0,1-.1-.006h0a.07.07,0,0,1,.005-.1h0l.16-.144a.073.073,0,0,1,.1.005h0a.074.074,0,0,1-.006.1h0Z" transform="translate(-55.578 -81.579)"/><path class="cls-40" d="M158.952,105.3c-.021,0-.036-.035-.033-.074h0c0-.04.021-.071.042-.069l.114.007c.021,0,.036.035.034.074h0c0,.039-.022.07-.043.069Z" transform="translate(-55.578 -81.579)"/><path class="cls-41" d="M158.874,105.106c0,.028-.027.054-.066.057h0c-.04,0-.074-.016-.076-.045l-.014-.154c0-.029.027-.055.067-.058h0c.039,0,.074.017.076.045Z" transform="translate(-55.578 -81.579)"/><path class="cls-39" d="M159.351,107.319s-.076.124.122.089.126-.113.126-.113-.051.18.073.079a.412.412,0,0,0,.123-.286s.055.221.218.051a.2.2,0,0,0,.033-.281h0a.145.145,0,0,0-.021-.022s.051-.117.1-.119,0-.138,0-.138l.026-.122s-.019-.147-.131-.167.2-.035.189-.113-.179-.114-.179-.114.161-.043.008-.164a.454.454,0,0,0-.354-.073l.08-.085s-.126-.128-.169-.1-.068-.1-.138-.131-.16.094-.16.094-.157-.16-.257-.168-.122.136-.122.136-.055-.021-.146.05-.2-.058-.234.159.112.12.112.12-.2-.044-.191.054.179.164.179.164-.228-.017-.162.149a.256.256,0,0,0,.194.178s-.018.067-.031.121.147.117.147.117-.037-.056.031.088a.4.4,0,0,0,.235.192s-.1.107-.041.195.246.039.246.039S159.028,107.405,159.351,107.319Z" transform="translate(-55.578 -81.579)"/><path class="cls-40" d="M159.542,107.228a.065.065,0,0,1,.048-.078h0a.064.064,0,0,1,.079.048l.046.191a.065.065,0,0,1-.049.078h0a.064.064,0,0,1-.078-.048Z" transform="translate(-55.578 -81.579)"/><path class="cls-40" d="M159.387,107.182c.01-.016.043-.014.074.006h0c.03.019.047.048.037.064l-.055.088c-.011.016-.044.014-.074-.006h0c-.031-.019-.047-.048-.037-.064Z" transform="translate(-55.578 -81.579)"/><path class="cls-41" d="M159.577,107.206a.057.057,0,0,1-.017-.078h0a.06.06,0,0,1,.069-.042l.129.057a.058.058,0,0,1,.018.078h0c-.015.034-.046.051-.07.041Z" transform="translate(-55.578 -81.579)"/><path class="cls-40" d="M160.041,106.531a.066.066,0,0,1-.026-.089h0a.066.066,0,0,1,.089-.025h0l.172.093a.065.065,0,0,1,.025.089h0a.065.065,0,0,1-.088.025h0Z" transform="translate(-55.578 -81.579)"/><path class="cls-40" d="M159.9,106.615c-.006-.018.018-.041.053-.051h0c.034-.009.067,0,.072.016l.029.1c0,.018-.019.041-.054.05h0c-.034.01-.067,0-.072-.015Z" transform="translate(-55.578 -81.579)"/><path class="cls-41" d="M160.046,106.49a.059.059,0,0,1-.07-.04h0a.059.059,0,0,1,.016-.079l.128-.059c.023-.011.055.007.07.04h0a.058.058,0,0,1-.016.079Z" transform="translate(-55.578 -81.579)"/><path class="cls-40" d="M159.615,106.234a.066.066,0,0,1,.048-.079h0a.066.066,0,0,1,.079.049l.046.19a.066.066,0,0,1-.049.079h0a.065.065,0,0,1-.078-.048h0Z" transform="translate(-55.578 -81.579)"/><path class="cls-40" d="M159.46,106.188c.01-.016.043-.014.074.006h0c.03.019.047.047.036.064l-.055.088c-.01.016-.043.013-.073-.006h0c-.031-.019-.047-.048-.037-.064Z" transform="translate(-55.578 -81.579)"/><path class="cls-41" d="M159.65,106.212a.058.058,0,0,1-.017-.079h0a.059.059,0,0,1,.069-.041l.13.057a.058.058,0,0,1,.017.078h0c-.014.033-.046.051-.069.041Z" transform="translate(-55.578 -81.579)"/><path class="cls-40" d="M159.681,106.893a.064.064,0,0,1,.048-.078h0a.065.065,0,0,1,.079.047h0l.046.19a.066.066,0,0,1-.049.079h0a.066.066,0,0,1-.079-.048h0Z" transform="translate(-55.578 -81.579)"/><path class="cls-40" d="M159.525,106.847c.011-.016.043-.014.074.006h0c.031.019.047.047.037.064l-.055.087c-.01.017-.043.014-.074-.005h0c-.03-.019-.047-.048-.037-.064Z" transform="translate(-55.578 -81.579)"/><path class="cls-41" d="M159.716,106.871a.059.059,0,0,1-.018-.079h0a.061.061,0,0,1,.07-.041l.129.056a.059.059,0,0,1,.017.079h0a.058.058,0,0,1-.069.041Z" transform="translate(-55.578 -81.579)"/><path class="cls-40" d="M158.849,106.779a.065.065,0,0,1,.092-.01h0a.065.065,0,0,1,.01.092h0l-.127.151a.065.065,0,0,1-.092.009h0a.065.065,0,0,1-.009-.092h0Z" transform="translate(-55.578 -81.579)"/><path class="cls-40" d="M158.793,106.627c.019,0,.037.025.04.062h0c0,.036-.01.066-.029.068l-.1.009c-.019,0-.037-.025-.04-.062h0c0-.036.01-.067.029-.068Z" transform="translate(-55.578 -81.579)"/><path class="cls-41" d="M158.888,106.793c-.006-.025.017-.053.052-.061h0a.06.06,0,0,1,.075.03l.033.138c.006.025-.017.052-.052.061h0a.059.059,0,0,1-.075-.031Z" transform="translate(-55.578 -81.579)"/><path class="cls-40" d="M159.089,106.21a.066.066,0,0,1,.091-.017h0a.064.064,0,0,1,.017.09l-.11.162a.065.065,0,0,1-.09.018h0a.066.066,0,0,1-.018-.091Z" transform="translate(-55.578 -81.579)"/><path class="cls-40" d="M159.019,106.064c.019,0,.039.024.045.058h0c.007.036,0,.067-.022.071l-.1.018c-.019,0-.039-.023-.046-.058h0c-.006-.035,0-.067.023-.07Z" transform="translate(-55.578 -81.579)"/><path class="cls-41" d="M159.129,106.221c-.008-.025.013-.054.047-.066h0a.059.059,0,0,1,.076.023l.045.134c.009.025-.012.054-.046.066h0a.059.059,0,0,1-.076-.023Z" transform="translate(-55.578 -81.579)"/><path class="cls-40" d="M158.942,105.689a.066.066,0,0,1,.048-.079h0a.066.066,0,0,1,.079.049l.045.19a.065.065,0,0,1-.048.079h0a.066.066,0,0,1-.079-.048Z" transform="translate(-55.578 -81.579)"/><path class="cls-40" d="M158.787,105.645c.01-.017.043-.014.074.005h0c.03.019.047.048.036.064l-.055.088c-.01.016-.043.014-.073-.006h0c-.031-.019-.048-.047-.037-.064Z" transform="translate(-55.578 -81.579)"/><path class="cls-41" d="M158.977,105.667a.06.06,0,0,1-.017-.079h0a.06.06,0,0,1,.069-.041l.13.057a.058.058,0,0,1,.017.078h0a.058.058,0,0,1-.069.041Z" transform="translate(-55.578 -81.579)"/><path class="cls-40" d="M159.463,105.771a.065.065,0,0,1,.091-.012h0a.066.066,0,0,1,.012.092l-.12.156a.065.065,0,0,1-.091.011h0a.065.065,0,0,1-.012-.091Z" transform="translate(-55.578 -81.579)"/><path class="cls-40" d="M159.4,105.622c.019,0,.038.025.042.06h0c0,.036-.008.067-.025.07l-.1.012c-.019,0-.038-.025-.042-.061h0c0-.035.007-.066.025-.069Z" transform="translate(-55.578 -81.579)"/><path class="cls-41" d="M159.5,105.784c-.007-.025.016-.053.051-.062h0a.057.057,0,0,1,.075.027l.038.136c.007.026-.015.053-.05.063h0a.058.058,0,0,1-.076-.028Z" transform="translate(-55.578 -81.579)"/><path class="cls-40" d="M160.005,105.961a.066.066,0,0,1-.069-.062h0a.065.065,0,0,1,.061-.068h0l.2-.01a.066.066,0,0,1,.069.062h0a.065.065,0,0,1-.062.068h0Z" transform="translate(-55.578 -81.579)"/><path class="cls-40" d="M159.931,106.106c-.014-.014-.005-.046.019-.072h0c.026-.027.056-.038.07-.025l.076.07c.013.013,0,.045-.019.071h0c-.026.027-.056.038-.07.026Z" transform="translate(-55.578 -81.579)"/><path class="cls-41" d="M159.99,105.923a.059.059,0,0,1-.081,0h0a.059.059,0,0,1-.028-.076l.079-.117a.06.06,0,0,1,.081,0h0a.058.058,0,0,1,.027.076Z" transform="translate(-55.578 -81.579)"/><path class="cls-40" d="M158.65,106.341a.065.065,0,0,1,.092,0h0a.066.066,0,0,1,0,.092h0l-.138.14a.066.066,0,0,1-.092,0h0a.065.065,0,0,1,0-.093h0Z" transform="translate(-55.578 -81.579)"/><path class="cls-40" d="M158.607,106.185c.019,0,.034.029.034.065h0c0,.036-.015.065-.034.065h-.1c-.02,0-.035-.029-.035-.065h0c0-.036.016-.065.035-.065Z" transform="translate(-55.578 -81.579)"/><path class="cls-41" d="M158.687,106.359c0-.025.022-.051.057-.056h0a.058.058,0,0,1,.072.037l.021.139c0,.026-.022.051-.058.057h0a.059.059,0,0,1-.072-.038Z" transform="translate(-55.578 -81.579)"/><path class="cls-40" d="M158.589,105.909a.066.066,0,0,1,.048-.079h0a.066.066,0,0,1,.079.048h0l.046.19a.066.066,0,0,1-.048.079h0a.065.065,0,0,1-.079-.048h0Z" transform="translate(-55.578 -81.579)"/><path class="cls-40" d="M158.434,105.863c.01-.017.043-.014.074,0h0c.03.019.047.048.036.064l-.055.088c-.01.016-.043.014-.073-.006h0c-.031-.019-.047-.047-.037-.064Z" transform="translate(-55.578 -81.579)"/><path class="cls-41" d="M158.623,105.887a.059.059,0,0,1-.017-.079h0a.058.058,0,0,1,.069-.041l.13.056a.058.058,0,0,1,.017.078h0a.059.059,0,0,1-.069.042Z" transform="translate(-55.578 -81.579)"/><path class="cls-40" d="M159.419,106.531a.064.064,0,0,1,.086-.034h0a.065.065,0,0,1,.034.085h0l-.078.179a.065.065,0,0,1-.085.034h0a.066.066,0,0,1-.034-.086h0Z" transform="translate(-55.578 -81.579)"/><path class="cls-40" d="M159.322,106.4c.018-.007.043.015.056.049h0c.013.033.009.066-.009.073l-.1.037c-.018.007-.042-.015-.056-.048h0c-.012-.034-.008-.067.009-.074Z" transform="translate(-55.578 -81.579)"/><path class="cls-41" d="M159.46,106.535c-.013-.023,0-.056.034-.074h0a.06.06,0,0,1,.08.009l.069.123a.057.057,0,0,1-.033.073h0a.058.058,0,0,1-.08-.009Z" transform="translate(-55.578 -81.579)"/><path class="cls-40" d="M159.247,106.968a.065.065,0,0,1,.092.006h0a.065.065,0,0,1-.006.092h0l-.149.127a.065.065,0,0,1-.091-.007h0a.065.065,0,0,1,.005-.091h0Z" transform="translate(-55.578 -81.579)"/><path class="cls-40" d="M159.217,106.809c.019,0,.032.032.029.068h0c0,.036-.021.064-.04.062l-.1-.009c-.019,0-.032-.032-.029-.068h0c0-.036.021-.063.04-.062Z" transform="translate(-55.578 -81.579)"/><path class="cls-41" d="M159.283,106.989c0-.026.025-.049.062-.051h0c.036,0,.067.017.068.043l.009.141c0,.025-.025.049-.062.05h0a.058.058,0,0,1-.068-.043Z" transform="translate(-55.578 -81.579)"/><path class="cls-35" d="M159.92,104.408l-.1.07a.093.093,0,0,0-.026.13h0a.1.1,0,0,0,.036.031l0,0a.094.094,0,0,0,.126-.042h0a.1.1,0,0,0,.009-.048l-.007-.125a.025.025,0,0,0-.038-.018Z" transform="translate(-55.578 -81.579)"/><path class="cls-35" d="M159.854,104.836l-.1.069a.093.093,0,0,0-.025.13h0a.086.086,0,0,0,.036.032h0a.094.094,0,0,0,.126-.041h0a.085.085,0,0,0,.01-.047l-.007-.125a.027.027,0,0,0-.026-.023Z" transform="translate(-55.578 -81.579)"/><path class="cls-35" d="M160.42,104.72l-.033.121a.094.094,0,0,0,.066.115h0a.1.1,0,0,0,.048,0h0a.094.094,0,0,0,.068-.114h0a.085.085,0,0,0-.024-.042l-.087-.09a.025.025,0,0,0-.034,0Z" transform="translate(-55.578 -81.579)"/><path class="cls-35" d="M159.672,104.485l-.056.112a.1.1,0,0,0,.042.127h0a.094.094,0,0,0,.047.009h0a.093.093,0,0,0,.088-.1h0a.1.1,0,0,0-.015-.046l-.068-.1a.025.025,0,0,0-.035-.005l-.007.008Z" transform="translate(-55.578 -81.579)"/><path class="cls-35" d="M160.066,104.355l-.087-.09a.093.093,0,0,0-.132,0,.1.1,0,0,0-.026.041v0a.1.1,0,0,0,.063.117.091.091,0,0,0,.049,0l.122-.029a.025.025,0,0,0,.018-.029Z" transform="translate(-55.578 -81.579)"/><path class="cls-35" d="M160.144,105.075l.124-.021a.093.093,0,0,0,.077-.108.091.091,0,0,0-.019-.044l0,0a.1.1,0,0,0-.133-.014.1.1,0,0,0-.028.039l-.045.117a.025.025,0,0,0,.026.033Z" transform="translate(-55.578 -81.579)"/><path class="cls-35" d="M160.27,104.443l.056.112a.094.094,0,0,0,.126.043.111.111,0,0,0,.036-.032l0,0a.094.094,0,0,0-.026-.13.091.091,0,0,0-.045-.016l-.127-.009a.025.025,0,0,0-.025.025l0,.01Z" transform="translate(-55.578 -81.579)"/><path class="cls-35" d="M160.1,104.589l-.1.07a.093.093,0,0,0-.025.13.1.1,0,0,0,.036.032h0a.1.1,0,0,0,.127-.042h0a.1.1,0,0,0,.01-.048l-.008-.124a.025.025,0,0,0-.025-.023A.033.033,0,0,0,160.1,104.589Z" transform="translate(-55.578 -81.579)"/><path class="cls-35" d="M160.2,104.21l-.1.069a.094.094,0,0,0-.026.13h0a.092.092,0,0,0,.036.032h0a.094.094,0,0,0,.126-.041h0a.1.1,0,0,0,.009-.047l-.007-.125a.024.024,0,0,0-.027-.022Z" transform="translate(-55.578 -81.579)"/><circle class="cls-33" cx="105.698" cy="24.463" r="0.47"/><path class="cls-42" d="M138.1,101.736a1.122,1.122,0,0,0-.741.714v0a1.4,1.4,0,0,0,1.01-.051,1.116,1.116,0,0,0,.74-.714v0A1.412,1.412,0,0,0,138.1,101.736Z" transform="translate(-55.578 -81.579)"/><path class="cls-42" d="M136.79,102.02a.9.9,0,0,1,.549.625h0a1.14,1.14,0,0,1-.81-.109.9.9,0,0,1-.549-.625h0A1.136,1.136,0,0,1,136.79,102.02Z" transform="translate(-55.578 -81.579)"/><ellipse class="cls-43" cx="81.792" cy="21.535" rx="0.213" ry="0.99"/><ellipse class="cls-43" cx="81.755" cy="25.512" rx="0.405" ry="0.194"/><path class="cls-44" d="M139.03,102.628a1.418,1.418,0,0,0-.429-.066,1.374,1.374,0,0,0-1.01.414c-.011.012-.023.021-.035.032a.346.346,0,0,1-.452,0l-.036-.032a1.372,1.372,0,0,0-1.009-.414,1.418,1.418,0,0,0-.429.066,2.2,2.2,0,0,0-1.464,2.226c0,1.819,2.43,2.311,2.43,2.311l.182.037a.731.731,0,0,0,.14.015.45.45,0,0,0,.329-.135l.014-.012a.111.111,0,0,1,.143,0l.014.012a.45.45,0,0,0,.329.135,1.331,1.331,0,0,0,.155-.012l.191-.045s2.4-.488,2.4-2.306A2.2,2.2,0,0,0,139.03,102.628Z" transform="translate(-55.578 -81.579)"/><text class="cls-45" transform="translate(74.385 25.364)">F</text><text class="cls-46" transform="translate(74.385 25.364)">F</text><text class="cls-45" transform="translate(85.455 25.364)">ODC</text><text class="cls-46" transform="translate(85.455 25.364)">ODC</text><text class="cls-47" transform="translate(108.063 25.364)">RP</text><text class="cls-48" transform="translate(108.063 25.364)">RP</text><rect class="cls-49" x="79.073" y="84.89" width="34.284" height="9.766" rx="3"/><text class="cls-50" transform="translate(82.289 92.437)">Confirm</text><text class="cls-51" transform="translate(80.525 38.409)">John Dough</text><g id="Icons"><path class="cls-52" d="M133.476,130.806a2.6,2.6,0,0,0-2.6,2.6c0,.054,0,.108,0,.162a2.557,2.557,0,0,0,.119.633,2.22,2.22,0,0,0,.277.577l1.91,2.863a.348.348,0,0,0,.29.155.361.361,0,0,0,.3-.175l1.915-2.869c.018-.027.035-.054.052-.082a2.336,2.336,0,0,0,.234-.559,2.569,2.569,0,0,0,.1-.7A2.6,2.6,0,0,0,133.476,130.806Zm-1.113,2.938a1.116,1.116,0,1,1,1.183,1.043c-.023,0-.047,0-.071,0A1.116,1.116,0,0,1,132.363,133.744Zm1.431-2.313a1.723,1.723,0,0,1,1.369.782.126.126,0,0,1-.037.176.123.123,0,0,1-.069.02.127.127,0,0,1-.107-.057,1.469,1.469,0,0,0-1.167-.667.127.127,0,0,1-.122-.132A.124.124,0,0,1,133.794,131.431Zm1.518,1.911h-.005a.127.127,0,0,1-.122-.132,1.43,1.43,0,0,0-.055-.461.127.127,0,1,1,.245-.07,1.7,1.7,0,0,1,.064.542A.128.128,0,0,1,135.312,133.342Z" transform="translate(-55.578 -81.579)"/><path class="cls-52" d="M133.476,138.614c-.575,0-1.194.147-1.194.47s.619.47,1.194.47,1.194-.147,1.194-.47S134.051,138.614,133.476,138.614Z" transform="translate(-55.578 -81.579)"/></g><text class="cls-53" transform="translate(83.466 57.521)">Location...</text><g id="Food_Drink03" data-name="Food Drink03"><path class="cls-54" d="M139.88,153.489v1.557a.52.52,0,0,1-.519.519h-4.152a.52.52,0,0,1-.519-.519v-1.557a.52.52,0,0,1,.519-.519h4.152A.521.521,0,0,1,139.88,153.489Z" transform="translate(-55.578 -81.579)"/><path class="cls-55" d="M141.437,149.856v2.076a2.075,2.075,0,0,1-2.076,2.076h-4.152a2.075,2.075,0,0,1-2.076-2.076v-2.076a.52.52,0,0,1,.519-.519h7.266A.521.521,0,0,1,141.437,149.856Z" transform="translate(-55.578 -81.579)"/><path class="cls-56" d="M137.3,148.3a.5.5,0,0,1-.152-.023.518.518,0,0,1-.345-.648,1.259,1.259,0,0,0,.021-.677,1.811,1.811,0,0,1,.011-1.479.519.519,0,0,1,.932.457.787.787,0,0,0,.007.6,2.257,2.257,0,0,1,.022,1.4A.52.52,0,0,1,137.3,148.3Z" transform="translate(-55.578 -81.579)"/><path class="cls-56" d="M135.126,148.3a.506.506,0,0,1-.152-.023.519.519,0,0,1-.345-.647,1.254,1.254,0,0,0,.022-.678,1.813,1.813,0,0,1,.01-1.479.519.519,0,0,1,.932.457.784.784,0,0,0,.008.6,2.262,2.262,0,0,1,.021,1.4A.519.519,0,0,1,135.126,148.3Z" transform="translate(-55.578 -81.579)"/><path class="cls-56" d="M139.469,148.3a.506.506,0,0,1-.152-.023.518.518,0,0,1-.344-.648,1.256,1.256,0,0,0,.021-.676,1.813,1.813,0,0,1,.011-1.48.519.519,0,0,1,.931.457.784.784,0,0,0,.008.6,2.258,2.258,0,0,1,.021,1.4A.519.519,0,0,1,139.469,148.3Z" transform="translate(-55.578 -81.579)"/></g><line class="cls-57" x1="93.892" y1="69.581" x2="97.485" y2="73.174"/><line class="cls-57" x1="97.458" y1="69.608" x2="93.865" y2="73.201"/><text class="cls-58" transform="translate(105.227 73.986) scale(0.958 1)">2 </text><path class="cls-59" d="M175.324,90.308H128.668a6.221,6.221,0,0,0-6.221,6.221v93.313a6.221,6.221,0,0,0,6.221,6.221h46.656a6.221,6.221,0,0,0,6.221-6.221V96.529A6.221,6.221,0,0,0,175.324,90.308ZM141.11,94.974h21.773a.778.778,0,0,1,0,1.555H141.11a.778.778,0,1,1,0-1.555ZM152,191.4a3.111,3.111,0,1,1,3.11-3.11A3.111,3.111,0,0,1,152,191.4Zm24.883-9.331H127.113V99.639h49.766Z" transform="translate(-55.578 -81.579)"/></svg>