<svg xmlns="http://www.w3.org/2000/svg" viewBox="0 0 512 512"><title>coporator</title><circle cx="256" cy="256" r="256" style="fill:#ded047"/><rect x="49.006" y="373.34" width="413.988" height="12.808" style="fill:#fff"/><path d="M328.448,180.188V367.259H449.022V180.188ZM443.976,357.039H333.623V336.081H443.976Zm0-29.626H333.623V306.455H443.976Zm0-29.755H333.623V276.7H443.976Zm0-29.626H333.623V247.073H443.976Zm0-29.626H333.623V217.447H443.976Zm0-29.626H333.623V187.821H443.976Z" style="fill:#fff"/><rect x="350.7" y="180.188" width="12.29" height="187.071" style="fill:#fff"/><rect x="382.784" y="187.821" width="12.29" height="172.711" style="fill:#fff"/><rect x="414.997" y="187.304" width="12.29" height="172.711" style="fill:#fff"/><polygon points="183.552 177.86 62.978 177.86 81.09 132.839 157.29 132.839 183.552 177.86" style="fill:#fff"/><path d="M62.978,180.188V367.259H183.552V180.188Zm115.4,176.851H68.024V336.081H178.377Zm0-29.626H68.024V306.455H178.377Zm0-29.755H68.024V276.7H178.377Zm0-29.626H68.024V247.073H178.377Zm0-29.626H68.024V217.447H178.377Zm0-29.626H68.024V187.821H178.377Z" style="fill:#fff"/><rect x="85.23" y="180.188" width="12.29" height="187.071" style="fill:#fff"/><rect x="117.443" y="187.821" width="12.29" height="172.711" style="fill:#fff"/><rect x="149.657" y="187.304" width="12.29" height="172.711" style="fill:#fff"/><polygon points="81.478 130.769 119.125 104.248 156.772 130.769 81.478 130.769" style="fill:#fff"/><rect x="188.986" y="216.542" width="134.158" height="9.962" style="fill:#fff"/><polygon points="323.273 155.349 323.273 214.989 188.986 214.989 323.273 155.349" style="fill:#fff"/><rect x="335.563" y="173.979" width="106.343" height="5.434" style="fill:#fff"/><rect x="342.808" y="167.122" width="91.983" height="5.434" style="fill:#fff"/><rect x="350.182" y="160.136" width="77.105" height="5.434" style="fill:#fff"/><rect x="356.91" y="114.856" width="64.427" height="42.951" style="fill:#fff"/><path d="M188.986,227.8V367h72.577V304.256a17.006,17.006,0,0,1,16.948-16.948h7.5a17.006,17.006,0,0,1,16.948,16.948V367h20.311V227.8Zm29.367,106.861H196.36V318.616h21.993Zm0-18.371H196.36V298.951h21.993Zm23.934,18.371H220.294V318.616h21.993Zm0-18.371H220.294V298.951h21.993Zm77.752-42.046H192.22V256.647H320.039Zm0-22.251H192.22V234.4H320.039Z" style="fill:#fff"/><rect x="209.556" y="229.608" width="3.493" height="48.255" style="fill:#fff"/><rect x="231.808" y="229.608" width="3.493" height="48.255" style="fill:#fff"/><rect x="254.059" y="229.608" width="3.493" height="48.255" style="fill:#fff"/><rect x="276.311" y="229.608" width="3.493" height="48.255" style="fill:#fff"/><rect x="298.563" y="229.608" width="3.493" height="48.255" style="fill:#fff"/></svg>