<svg xmlns="http://www.w3.org/2000/svg" xmlns:xlink="http://www.w3.org/1999/xlink" viewBox="0 0 172.72 29.958"><defs><linearGradient id="a" x1="179.277" y1="202.189" x2="182.466" y2="197.458" gradientTransform="matrix(1, 0, 0, -1, -67.979, 209.799)" gradientUnits="userSpaceOnUse"><stop offset="0.102" stop-color="#ffd59e"/><stop offset="0.301" stop-color="#ffb76c"/></linearGradient><linearGradient id="b" x1="-121.855" y1="188.978" x2="-118.667" y2="184.247" gradientTransform="matrix(-0.503, -0.864, -0.864, 0.503, 216.918, -191.45)" xlink:href="#a"/><linearGradient id="c" x1="201.524" y1="327.167" x2="204.712" y2="322.436" gradientTransform="matrix(0.748, 0.664, 0.664, -0.748, -247.253, 113.951)" xlink:href="#a"/></defs><title>Foodcorp</title><circle cx="119.013" cy="12.665" r="12.5" style="fill:#cf9f66"/><circle cx="119.037" cy="12.689" r="10.68" style="fill:#89643d"/><circle cx="117.805" cy="11.968" r="8.443" style="fill:#c45c00"/><path d="M176.732,102.1s2.326-2.1,4.844-1.658,2.894,2.923,1.872,3.867c0,0-.333-.04-.51-.589s-.723-1.739-1.806-1.736-2.241.175-4.609,2.066A4.917,4.917,0,0,1,176.732,102.1Z" transform="translate(-67.979 -92.201)" style="fill:#c98019"/><path d="M185.537,99.659s3.314-2.178,5.467.158a11.646,11.646,0,0,0,1.541,2.172c.635.565,2.238,1.048,2.147,3s-1,2.6-1.513,2.649-3.4-.377-4.056.537-.344,3.134-1.174,4.17-4.712-.427-3.589-3.288-.794-4.464-1.152-5.229-1.3-2.682,1.266-3.58,1.993.982,1.315,1.206-1.976.374-1.726,1.74,1.907,1.982,1.792,3.973-.938,2.5-.546,3.291,1.728,1.527,2.014.66-.057-3.4,1.673-4.42,3.611.132,4.165-.414a1.938,1.938,0,0,0-.644-2.732,8.44,8.44,0,0,1-2.432-2.858c-.548-.987-2.481-.968-4.156.038S184.017,100.576,185.537,99.659Z" transform="translate(-67.979 -92.201)" style="fill:#eb9800"/><path d="M184.333,98.575a2.476,2.476,0,0,1,.1-3.2c1.416-1.561,5.9-.421,5.474,2.036s.108,2.377.776,2.819,1.834.349,2.725.89,1.639,1.661.423,3.21a3.956,3.956,0,0,1-5.064,1.118c-1.925-.938-3.316-1.666-4.274.871s-1.44,4.427-2.861,4.543-1.757-.394-1.193-1.029,1.187.018,1.742-.818.537-2.046,1.785-3.861,2.994-1.622,4.72-.673a2.747,2.747,0,0,0,3.789-.858c.014-.022.028-.044.041-.067.707-1.069.46-1.857-2.463-2.157a2.345,2.345,0,0,1-1.732-2.538c.327-1.945-.232-2.989-1.455-3.028s-2.218.959-1.657,2.758S184.333,98.575,184.333,98.575Z" transform="translate(-67.979 -92.201)" style="fill:#d68b00"/><path d="M193.879,102.15a3.613,3.613,0,0,0-1.5-3.683c-2.027-1.293-3.853.814-4.79,2.74s-.12,3.667-1.286,4.483-3.212-.156-4.476.016-4.414,2.171-.411,5.635,8.732-.421,9.351-1.356.815-1.959,1.623-2.673-.736-.919-1.134-.462a10.388,10.388,0,0,0-1.416,2.283c-.441.959-2.8,2.133-4.5,2.161s-4.047-.852-4.365-2.84,2.562-1.331,3.2-1.056,4.42-.294,4.42-3.561,2.006-4.338,3.351-4.123.854,2.775.467,3.143a2.994,2.994,0,0,1-4.2.1l-.407,1.123s1.8,1.861,3.727,1.12A4.324,4.324,0,0,0,193.879,102.15Z" transform="translate(-67.979 -92.201)" style="fill:#ebba1d"/><path d="M182.433,104.751a3.5,3.5,0,0,1-.543-5.115c2.255-3.084,6.432-2.589,6.7-1.191s-.724,2.728.456,4.482,3.589,1.546,4.613,4.134-3.288,5.786-5.979,3.321-.449-4.115.274-4.5,1.017.313.62.913-2.11,1.883.311,3.233,4.844-1.551,3.389-3.054-1.812-.91-3.635-2.837-1.113-3.654-1.107-4.371a1.524,1.524,0,0,0-2.321-1.175c-1.473.647-4.83,3.326-1.679,6.023C183.532,104.614,183.626,105.18,182.433,104.751Z" transform="translate(-67.979 -92.201)" style="fill:#ffca1f"/><path d="M194.4,101.937a3.405,3.405,0,0,0-4.762,1.606c-1.879,3.273,3.841,5.23,4.235,3.762s-.125-.9-.824-.786-3.2.19-2.765-2.5c.377-2.332,3.252-1.893,3.889-1.314a.382.382,0,0,0,.54,0,.411.411,0,0,0,.062-.082C194.856,102.455,194.806,102.227,194.4,101.937Z" transform="translate(-67.979 -92.201)" style="fill:#ffd85e"/><path d="M187.169,108.382s1.888-1.057,1.615-2.714-.548-1.3-.5-.982a2.747,2.747,0,0,1-.167,2.268,3.815,3.815,0,0,1-1.2,1.221C186.253,108.677,187.035,108.474,187.169,108.382Z" transform="translate(-67.979 -92.201)" style="fill:#ffe38a"/><path d="M186.554,97.6s1.475-.213,1.8.76.127.408-.325.11S185.605,97.949,186.554,97.6Z" transform="translate(-67.979 -92.201)" style="fill:#ffd85e"/><circle cx="120.932" cy="14.525" r="7.457" style="fill:#d96600"/><path d="M192.568,114.066s1.32-2.432.419-4.5-3.11-1.877-3.709-.8c0,0,.1.278.612.316s1.644.26,1.865,1.19.315,1.96-.818,4.385A4.347,4.347,0,0,0,192.568,114.066Z" transform="translate(-67.979 -92.201)" style="fill:#c98019"/><path d="M192.832,106s1.182-3.3-1.271-4.659a10.353,10.353,0,0,1-2.184-.872c-.616-.428-1.363-1.7-3.023-1.218s-2.026,1.4-1.96,1.847,1.03,2.842.381,3.591-2.62.946-3.337,1.873,1.345,3.957,3.566,2.4,4-.244,4.728-.1,2.574.558,2.813-1.829-1.256-1.507-1.308-.879.091,1.774-1.135,1.844-2.1-1.226-3.781-.715-1.955,1.325-2.712,1.15-1.67-1.166-.984-1.591,2.93-.657,3.444-2.353-.862-3.074-.508-3.661a1.711,1.711,0,0,1,2.478-.015,7.463,7.463,0,0,0,2.958,1.5c.959.266,1.347,1.929.831,3.575S192.361,107.5,192.832,106Z" transform="translate(-67.979 -92.201)" style="fill:#eb9800"/><path d="M194.014,106.809a2.186,2.186,0,0,0,2.726-.75c1.046-1.54-.862-5.151-2.883-4.276s-2.063.4-2.582-.082-.681-1.5-1.329-2.154a1.734,1.734,0,0,0-2.843.3,3.492,3.492,0,0,0,.091,4.578c1.205,1.459,2.119,2.5.137,3.85s-3.5,2.155-3.306,3.4.7,1.427,1.131.811-.263-1.017.34-1.665,1.644-.885,2.945-2.335.771-2.907-.4-4.191a2.426,2.426,0,0,1-.049-3.431l.049-.048c.771-.829,1.5-.781,2.363,1.666a2.068,2.068,0,0,0,2.538.959c1.6-.685,2.614-.42,2.9.621s-.361,2.105-2.024,2S194.014,106.809,194.014,106.809Z" transform="translate(-67.979 -92.201)" style="fill:#d68b00"/><path d="M188.963,99.358a3.19,3.19,0,0,1,3.473.525c1.531,1.471.1,3.476-1.357,4.68s-3.123.864-3.582,2.032.8,2.725.914,3.848-.948,4.24-4.75,1.523-1.451-7.581-.777-8.308,1.513-1.106,1.958-1.948.942.441.632.878a9.193,9.193,0,0,1-1.666,1.69c-.731.577-1.249,2.849-.92,4.314s1.571,3.3,3.343,3.159.612-2.476.244-2.963-.666-3.856,2.139-4.534,3.309-2.623,2.844-3.733-2.558-.157-2.795.251a2.641,2.641,0,0,0,.782,3.627l-.88.583s-1.969-1.156-1.735-2.969A3.8,3.8,0,0,1,188.963,99.358Z" transform="translate(-67.979 -92.201)" style="fill:#ebba1d"/><path d="M189.106,109.723a3.089,3.089,0,0,0,4.5-.594c2.178-2.575.888-6.059-.366-6s-2.192,1.188-3.942.538-2.071-2.761-4.506-3.106-4.287,4.023-1.612,5.822,3.625-.469,3.807-1.17-.48-.809-.914-.343-1.178,2.2-2.839.4.326-4.481,1.918-3.543,1.157,1.366,3.19,2.532a4.049,4.049,0,0,0,3.982.046,1.346,1.346,0,0,1,1.49,1.748c-.25,1.4-1.854,4.834-4.822,2.689C189,108.751,188.49,108.788,189.106,109.723Z" transform="translate(-67.979 -92.201)" style="fill:#ffca1f"/><path d="M196.959,108.293a3.936,3.936,0,0,1-1.813-1.324c-.98-1.129-2.262-2.321-4.849-1.177s-2.217,4.1-.257,5.344c0,0,.644.164-.061-.636s-1.4-2.24-.045-3.3,2.625-1.109,3.75-.137,1.653,2.118,2.978,2.408A4.076,4.076,0,0,0,196.959,108.293Z" transform="translate(-67.979 -92.201)" style="fill:#ffd03b"/><path d="M192.9,113.359s3.423-.874,3.288-5.169a2.274,2.274,0,0,0-2.755-1.947c-2.5.315-3.432-.4-4.232-1.255s-2.4-1.471-3.931.33.024,7.415,3.951,6.466.18,2.378-.442,2.307-.89-.212-1.8-.987-2.875-3.181-5.139-2.968c0,0-.2.176.405.811s1.305-.274,3.5,1.882,2.96,2.935,5.443.46.091-2.669-.469-2.574-2.659.716-3.852-.611-1.349-3.537-.346-4.381,1.632-.548,2.436.418a4.864,4.864,0,0,0,4.488,1.021c1.447-.465,2.553,1.541,1.159,4.014s-4.894,1.792-5.61,1.707c-.6-.072-2.715-.35-3.66.285a.531.531,0,0,0-.124.74.56.56,0,0,0,.121.122.857.857,0,0,0,.614.221c.392-.086.077-.731,4.7-.544a5.794,5.794,0,0,0,1.617-.165C192.476,113.488,192.7,113.428,192.9,113.359Z" transform="translate(-67.979 -92.201)" style="fill:#ffd85e"/><path d="M189.041,98.868a3.006,3.006,0,0,1-.391,4.42c-2.42,2.29-5.287-2.212-4.11-2.855s.8-.079.846.545.5,2.786,2.72,1.854c1.924-.807.951-3.185.32-3.612a.337.337,0,0,1-.112-.463.349.349,0,0,1,.057-.07C188.5,98.582,188.706,98.577,189.041,98.868Z" transform="translate(-67.979 -92.201)" style="fill:#ffd85e"/><path d="M185.007,106.411s.515-1.839,1.994-1.949,1.228.2.947.228a2.428,2.428,0,0,0-1.911.613,3.364,3.364,0,0,0-.8,1.287C184.943,107.258,184.955,106.545,185.007,106.411Z" transform="translate(-67.979 -92.201)" style="fill:#ffe38a"/><path d="M194.389,104.7s-.123-1.309-1.027-1.389-.376-.025-.026.3S194.29,105.587,194.389,104.7Z" transform="translate(-67.979 -92.201)" style="fill:#ffd85e"/><path d="M181.917,95.728a4.464,4.464,0,0,0,1.939,1.644c1.5.779,3.156,1.873,2.584,5.024s-3.92,3.53-5.81,1.7c0,0-.352-.665.716-.1s2.837.939,3.647-.83.522-3.185-.848-4.164-2.771-1.256-3.443-2.637A4.605,4.605,0,0,1,181.917,95.728Z" transform="translate(-67.979 -92.201)" style="fill:#ffd03b"/><path d="M177.422,101.544s.052-4,4.815-4.992a2.577,2.577,0,0,1,2.877,2.515c.32,2.84,1.355,3.67,2.507,4.324s2.258,2.25.683,4.414-8.169,1.946-8.169-2.629-2.664.434-2.42,1.1.47.924,1.565,1.72,4.266,2.317,4.634,4.866c0,0-.141.267-1-.228s-.046-1.507-3-3.356-4.019-2.477-1.954-5.867,2.914-.811,2.957-.169-.08,3.116,1.7,4.077,4.251.54,4.913-.784.168-1.943-1.11-2.572-2.441-2.951-2.316-4.668-2.375-2.4-4.726-.208-.67,5.861-.384,6.626c.238.639,1.107,2.893.659,4.1a.6.6,0,0,1-.782.333.62.62,0,0,1-.165-.1.968.968,0,0,1-.407-.617c-.01-.453.783-.279-.652-5.319a6.572,6.572,0,0,1-.248-1.823C177.393,102.044,177.4,101.785,177.422,101.544Z" transform="translate(-67.979 -92.201)" style="fill:#ffe38c"/><path d="M184.271,97.2s.765.417.922,2.47a4.6,4.6,0,0,0,2.487,3.74,2.665,2.665,0,0,1,1.127,3.6c-.042.078-.087.155-.135.229,0,0,1.165-2.47-1.131-3.7a4.438,4.438,0,0,1-2.574-3.9A4.342,4.342,0,0,0,184.271,97.2Z" transform="translate(-67.979 -92.201)" style="fill:#fff4d1"/><path d="M192.91,99.133a2.089,2.089,0,0,0-2.5-.788s-.51.3.163.255a2.545,2.545,0,0,1,2.179.627C193.443,99.922,193,99.249,192.91,99.133Z" transform="translate(-67.979 -92.201)" style="fill:#ffd03b"/><path d="M188.2,106.462a1.581,1.581,0,0,0,.137-1.531c-.419-.7-.223-.816,0-.663a1.923,1.923,0,0,1,.6,1.591,2.716,2.716,0,0,1-1.508,2.389C186.508,108.549,187.089,107.691,188.2,106.462Z" transform="translate(-67.979 -92.201)" style="fill:#fff0c2"/><path d="M178.624,102.519s.835-.951,1.392-.7a1.631,1.631,0,0,1,.742,1.252c.023.232.091,1.276.137,1.53s-.278.186-.3-.278,0-2.087-.65-2.2a1.232,1.232,0,0,0-1.229.534C178.555,102.891,178.532,102.659,178.624,102.519Z" transform="translate(-67.979 -92.201)" style="fill:#fff0c2"/><path d="M196.948,103.988c1.2,5.33-4.168,12.332-9.891,10.7-5.252-1.494-10.433-3.644-10.433-9.106s4.7-11.018,10.162-11.018S196.091,100.178,196.948,103.988Z" transform="translate(-67.979 -92.201)" style="fill:#fff276;opacity:0.509999990463257;isolation:isolate"/><path d="M192.038,96.539s-.628-.6-1,.057.343.742.685.8c0,0-.4.4.143.571s1.342-.057,2.255.942,2.312,3.8,1.713,5.366.97,2.911.685,3.911-.657,2.483-1.37,3.054-1.513,1.427-.685,1.313a10.032,10.032,0,0,0,2.654-6.565,6.582,6.582,0,0,0-.628-3.968,28.972,28.972,0,0,0-2.169-3.283A4.174,4.174,0,0,0,192.038,96.539Z" transform="translate(-67.979 -92.201)" style="fill:#fff2ff"/><path d="M181.477,112.638s-.685-.6.086-.914,1.313.685,1.313,1,.628.771,1.8,1.056,1.256-.143,1.855.029,1.542.97,2.483.8,1.2.143.514.257A17.19,17.19,0,0,1,181.477,112.638Z" transform="translate(-67.979 -92.201)" style="fill:#fff2ff"/><ellipse cx="121.419" cy="6.064" rx="0.585" ry="0.528" style="fill:#fff2ff"/><path d="M184.843,102.2a3.767,3.767,0,0,1-3.647,3.883c-.087,0-.174,0-.261,0a4.21,4.21,0,0,1-4.179-4.137,4.046,4.046,0,0,1,8.087.255Z" transform="translate(-67.979 -92.201)" style="fill:#965030"/><circle cx="112.956" cy="9.791" r="3.625" style="fill:#ffb95c"/><circle cx="112.956" cy="9.903" r="3.281" style="fill:#ffe9cc"/><circle cx="112.956" cy="10.07" r="2.927" style="fill:url(#a)"/><path d="M177.888,103.931s1.658-3.644,4.184-5.283c0,0,.444-.137.791.424s-4.146,3.51-2.892,3.953,3.721-2.892,4.512-1.542c0,0,.251.6-.791,1.465a9.425,9.425,0,0,0-2.2,2.644,5.593,5.593,0,0,1-.848.038,17.263,17.263,0,0,1,2.8-3.16c.809-.559.308-.926-.731-.077s-3.278,1.928-3.375.675,1.851-2.931,2.276-3.22.173-.464-.232-.1a11.907,11.907,0,0,0-3.2,4.59A2.1,2.1,0,0,1,177.888,103.931Z" transform="translate(-67.979 -92.201)" style="fill:#ff9100;opacity:0.469999998807907;isolation:isolate"/><path d="M177.888,103.931a18.179,18.179,0,0,1,2.314-3.573c1.209-1.312,1.838-1.787,2.16-1.685a2.036,2.036,0,0,0-.257-.115c-.142-.052-1.08.514-2.25,1.877a16.782,16.782,0,0,0-2.083,3.342Z" transform="translate(-67.979 -92.201)" style="fill:#ffe9cc"/><path d="M176.9,103.007a3.848,3.848,0,0,1,2.172-4.55,3.889,3.889,0,0,1,5.027,1.259s-2.121-2.686-5.027-1.182A4.043,4.043,0,0,0,176.9,103.007Z" transform="translate(-67.979 -92.201)" style="fill:#70270f"/><path d="M182.176,95.077a3.766,3.766,0,0,1,5.191,1.2c.046.073.09.149.131.226a4.211,4.211,0,0,1-1.475,5.695,4.046,4.046,0,0,1-3.847-7.119Z" transform="translate(-67.979 -92.201)" style="fill:#965030"/><circle cx="115.986" cy="6.357" r="3.625" style="fill:#ffb95c"/><circle cx="116.084" cy="6.3" r="3.281" style="fill:#ffe9cc"/><circle cx="116.227" cy="6.216" r="2.927" style="fill:url(#b)"/><path d="M187.176,100.214s-3.985.4-6.672-.959a.726.726,0,0,1-.031-.9c.308-.581,5.119,1.817,4.871.511s-4.372-1.761-3.6-3.124c0,0,.39-.517,1.664-.053a9.448,9.448,0,0,0,3.389.57,5.644,5.644,0,0,1,.461.714,17.294,17.294,0,0,1-4.14-.825c-.891-.419-.955.2.3.672s3.317,1.863,2.282,2.577-3.465-.126-3.928-.347-.487.083.033.249a11.894,11.894,0,0,0,5.577.456A2.1,2.1,0,0,1,187.176,100.214Z" transform="translate(-67.979 -92.201)" style="fill:#ff9100;opacity:0.469999998807907;isolation:isolate"/><path d="M187.176,100.214a18.135,18.135,0,0,1-4.253-.2c-1.742-.384-2.47-.689-2.542-1.018a1.885,1.885,0,0,0,.029.28,5.56,5.56,0,0,0,2.754,1,16.832,16.832,0,0,0,3.936.118Z" transform="translate(-67.979 -92.201)" style="fill:#ffe9cc"/><path d="M186.874,101.535a3.847,3.847,0,0,1-5.024.411,3.887,3.887,0,0,1-1.44-4.978s-1.255,3.185,1.507,4.939A4.044,4.044,0,0,0,186.874,101.535Z" transform="translate(-67.979 -92.201)" style="fill:#70270f"/><path d="M191.253,100.9a3.766,3.766,0,0,1-5.3.481c-.067-.056-.132-.114-.2-.175a4.208,4.208,0,0,1-.374-5.869,4.045,4.045,0,0,1,5.874,5.563Z" transform="translate(-67.979 -92.201)" style="fill:#965030"/><circle cx="120.49" cy="5.952" r="3.625" style="fill:#ffb95c"/><circle cx="120.415" cy="6.036" r="3.281" style="fill:#ffe9cc"/><circle cx="120.305" cy="6.161" r="2.927" style="fill:url(#c)"/><path d="M184.9,97.583s3.661-1.623,6.638-1.17a.724.724,0,0,1,.309.842c-.112.649-5.431-.13-4.788,1.034s4.7.309,4.4,1.844c0,0-.21.613-1.565.57a9.426,9.426,0,0,0-3.4.515,5.471,5.471,0,0,1-.66-.535,17.353,17.353,0,0,1,4.19-.507c.977.12.846-.486-.5-.544S185.8,98.9,186.559,97.9s3.33-.96,3.84-.9.437-.23-.109-.225a11.9,11.9,0,0,0-5.442,1.3A2.131,2.131,0,0,1,184.9,97.583Z" transform="translate(-67.979 -92.201)" style="fill:#ff9100;opacity:0.469999998807907;isolation:isolate"/><path d="M184.9,97.583a18.2,18.2,0,0,1,4.1-1.134c1.774-.178,2.561-.115,2.733.175a2.036,2.036,0,0,0-.115-.257,5.56,5.56,0,0,0-2.929-.091,16.762,16.762,0,0,0-3.777,1.115Z" transform="translate(-67.979 -92.201)" style="fill:#ffe9cc"/><path d="M184.776,96.232a3.846,3.846,0,0,1,4.647-1.959,3.886,3.886,0,0,1,2.922,4.28s.2-3.418-2.972-4.223A4.044,4.044,0,0,0,184.776,96.232Z" transform="translate(-67.979 -92.201)" style="fill:#70270f"/><path d="M196.531,105.643a3.307,3.307,0,0,1-6.074-2.614c1.1-2.489,3.06-3.525,4.738-2.8S197.5,103.391,196.531,105.643Z" transform="translate(-67.979 -92.201)" style="fill:#fff0db"/><circle cx="125.38" cy="12.447" r="2.574" style="fill:#ffbc00"/><path d="M191.066,101.91a6.122,6.122,0,0,1,4.978-1.08l.248.272a7.943,7.943,0,0,0-5.526,1.309Z" transform="translate(-67.979 -92.201)" style="fill:#fff8f0"/><circle cx="125.358" cy="12.415" r="1.856" style="fill:#fff276;opacity:0.239999994635582;isolation:isolate"/><path d="M193.384,112.538a3.307,3.307,0,1,1-2.447-6.145h0c2.536-.983,4.658-.328,5.332,1.371S195.663,111.631,193.384,112.538Z" transform="translate(-67.979 -92.201)" style="fill:#fff8ed"/><circle cx="123.866" cy="17.391" r="2.574" style="fill:#ffbc00"/><path d="M192.161,106.032a6.123,6.123,0,0,1,4.284,2.758l-.017.365a7.941,7.941,0,0,0-4.833-2.981Z" transform="translate(-67.979 -92.201)" style="fill:#fff"/><path d="M189.346,114.443s-3.643-3.447-2.777-6.891,2.048-.043,1.3.469-.468,1.9-.046,2.74,1.209,1.914,1.788,1.976S191.491,115.315,189.346,114.443Z" transform="translate(-67.979 -92.201)" style="fill:#351207"/><path d="M190.62,113.793s-3.57-2.189-3.456-5.151,1.666-.388,1.142.159-.055,1.633.434,2.247,1.317,1.355,1.8,1.3S192.522,114.136,190.62,113.793Z" transform="translate(-67.979 -92.201)" style="fill:#4a190a"/><path d="M188.335,114.329s-2.77-2.284-1.7-4.2,1.751.141,1.062.376-.585,1.057-.308,1.576.844,1.2,1.332,1.284S190.078,115.006,188.335,114.329Z" transform="translate(-67.979 -92.201)" style="fill:#6b240e"/><path d="M190.661,114.183s-2.981-2.979-2.174-5.85,1.721.01,1.08.423-.437,1.585-.1,2.3.971,1.635,1.456,1.7S192.441,114.965,190.661,114.183Z" transform="translate(-67.979 -92.201)" style="fill:#6b240e"/><path d="M181.962,104.542s.32-.545-.535-.374-.533.5-.533.5.2-.787-.323-.335a1.781,1.781,0,0,0-.509,1.252s-.261-.955-.95-.2a.867.867,0,0,0-.115,1.222.8.8,0,0,0,.09.094s-.2.511-.428.525,0,.6,0,.6l-.1.529s.1.638.583.714-.857.17-.81.509.791.477.791.477-.7.2-.022.71a1.967,1.967,0,0,0,1.541.287l-.344.376s.558.544.747.413.3.442.612.554.685-.422.685-.422.7.679,1.134.7.517-.6.517-.6.239.084.627-.228.871.228,1-.715-.5-.511-.5-.511.864.173.824-.253-.794-.7-.794-.7.993.055.69-.662a1.1,1.1,0,0,0-.856-.748s.074-.292.12-.53-.645-.5-.645-.5.163.242-.143-.378a1.754,1.754,0,0,0-1.04-.812s.417-.473.158-.85-1.073-.145-1.073-.145S183.358,104.141,181.962,104.542Z" transform="translate(-67.979 -92.201)" style="fill:#009c08"/><path d="M181.143,104.955a.283.283,0,0,1-.2.347h0a.284.284,0,0,1-.347-.2h0l-.217-.822a.283.283,0,0,1,.2-.346h0a.284.284,0,0,1,.346.2h0Z" transform="translate(-67.979 -92.201)" style="fill:#00c40a"/><path d="M181.822,105.141c-.042.071-.186.064-.32-.017h0c-.134-.08-.209-.2-.166-.274l.231-.387c.042-.071.186-.064.319.016h0c.138.081.21.2.167.274Z" transform="translate(-67.979 -92.201)" style="fill:#00c40a"/><path d="M180.994,105.055a.255.255,0,0,1,.082.34h0c-.059.145-.192.228-.3.185l-.568-.233a.254.254,0,0,1-.082-.34h0c.059-.145.192-.228.3-.185Z" transform="translate(-67.979 -92.201)" style="fill:#1cff28"/><path d="M179.055,108.034a.285.285,0,0,1,.122.383h0a.282.282,0,0,1-.381.122h0l-.757-.389a.282.282,0,0,1-.123-.381h0a.283.283,0,0,1,.382-.123Z" transform="translate(-67.979 -92.201)" style="fill:#00c40a"/><path d="M179.646,107.654c.025.079-.077.182-.228.228h0c-.15.046-.291.02-.316-.059l-.133-.431c-.025-.079.076-.182.228-.228h0c.15-.046.291-.02.316.059Z" transform="translate(-67.979 -92.201)" style="fill:#00c40a"/><path d="M179.029,108.213c.1-.05.239.025.308.165h0a.254.254,0,0,1-.061.345l-.551.267c-.1.05-.24-.024-.308-.165h0a.256.256,0,0,1,.06-.345Z" transform="translate(-67.979 -92.201)" style="fill:#1cff28"/><path d="M180.924,109.28a.284.284,0,0,1-.2.346h0a.284.284,0,0,1-.346-.2l-.216-.822a.283.283,0,0,1,.2-.346h0a.283.283,0,0,1,.346.2Z" transform="translate(-67.979 -92.201)" style="fill:#00c40a"/><path d="M181.6,109.465c-.043.072-.186.064-.32-.016h0c-.134-.081-.208-.2-.166-.274l.231-.387c.043-.071.186-.064.32.016h0c.135.08.209.2.167.274Z" transform="translate(-67.979 -92.201)" style="fill:#00c40a"/><path d="M180.775,109.38a.254.254,0,0,1,.082.34h0c-.059.144-.192.228-.3.185l-.568-.232a.254.254,0,0,1-.082-.34h0c.059-.144.192-.228.3-.185Z" transform="translate(-67.979 -92.201)" style="fill:#1cff28"/><path d="M180.575,106.425a.283.283,0,0,1-.2.346h0a.283.283,0,0,1-.346-.2h0l-.217-.822a.285.285,0,0,1,.2-.347h0a.284.284,0,0,1,.346.2h0Z" transform="translate(-67.979 -92.201)" style="fill:#00c40a"/><path d="M181.254,106.61c-.043.071-.186.064-.32-.016h0c-.134-.081-.209-.2-.166-.274l.231-.388c.042-.071.186-.064.319.017h0c.137.08.21.2.167.274Z" transform="translate(-67.979 -92.201)" style="fill:#00c40a"/><path d="M180.426,106.524a.255.255,0,0,1,.082.34h0c-.059.145-.192.228-.3.185l-.568-.231a.253.253,0,0,1-.082-.34h0c.059-.145.192-.228.3-.185Z" transform="translate(-67.979 -92.201)" style="fill:#1cff28"/><path d="M184.2,106.843a.285.285,0,0,1-.4.046h0a.283.283,0,0,1-.046-.4h0l.526-.668a.284.284,0,0,1,.4-.046h0a.284.284,0,0,1,.045.4Z" transform="translate(-67.979 -92.201)" style="fill:#00c40a"/><path d="M184.457,107.494c-.082.009-.163-.11-.18-.266h0c-.017-.155.036-.289.119-.3l.448-.049c.082-.009.163.11.18.266h0c.017.155-.036.289-.118.3Z" transform="translate(-67.979 -92.201)" style="fill:#00c40a"/><path d="M184.027,106.784c.029.109-.071.228-.222.27h0a.253.253,0,0,1-.326-.125l-.158-.594c-.029-.109.07-.228.222-.27h0a.254.254,0,0,1,.327.125Z" transform="translate(-67.979 -92.201)" style="fill:#1cff28"/><path d="M183.209,109.334a.285.285,0,0,1-.393.084h0a.284.284,0,0,1-.083-.392h0l.462-.714a.284.284,0,0,1,.393-.083h0a.283.283,0,0,1,.084.391h0Z" transform="translate(-67.979 -92.201)" style="fill:#00c40a"/><path d="M183.529,109.96c-.081.016-.173-.095-.2-.248h0c-.031-.154.009-.291.091-.308l.443-.092c.081-.016.172.095.2.248h0c.032.154-.009.292-.091.308Z" transform="translate(-67.979 -92.201)" style="fill:#00c40a"/><path d="M183.034,109.29c.039.106-.048.236-.195.29h0a.254.254,0,0,1-.337-.094l-.211-.576c-.039-.106.049-.235.2-.289h0a.253.253,0,0,1,.336.094Z" transform="translate(-67.979 -92.201)" style="fill:#1cff28"/><path d="M183.9,111.582a.283.283,0,0,1-.2.346h0a.283.283,0,0,1-.346-.2h0l-.217-.822a.283.283,0,0,1,.2-.346h0a.283.283,0,0,1,.346.2Z" transform="translate(-67.979 -92.201)" style="fill:#00c40a"/><path d="M184.577,111.767c-.043.071-.186.064-.32-.016h0c-.134-.081-.209-.2-.166-.274l.231-.387c.042-.071.186-.064.319.016h0c.137.08.21.2.167.274Z" transform="translate(-67.979 -92.201)" style="fill:#00c40a"/><path d="M183.749,111.682a.254.254,0,0,1,.082.339h0c-.059.145-.192.229-.3.186l-.568-.232a.253.253,0,0,1-.082-.34h0c.059-.145.192-.228.3-.185Z" transform="translate(-67.979 -92.201)" style="fill:#1cff28"/><path d="M181.63,111.277a.284.284,0,0,1-.4.061h0a.283.283,0,0,1-.061-.4h0l.5-.685a.283.283,0,0,1,.4-.061h0a.283.283,0,0,1,.061.4Z" transform="translate(-67.979 -92.201)" style="fill:#00c40a"/><path d="M181.913,111.921c-.082.011-.167-.105-.189-.26h0c-.022-.155.026-.29.108-.3l.446-.064c.083-.012.168.1.189.259h0c.023.155-.026.291-.108.3Z" transform="translate(-67.979 -92.201)" style="fill:#00c40a"/><path d="M181.46,111.223c.033.108-.062.233-.212.278h0a.254.254,0,0,1-.331-.114l-.177-.587c-.033-.108.062-.232.212-.277h0a.253.253,0,0,1,.331.113Z" transform="translate(-67.979 -92.201)" style="fill:#1cff28"/><path d="M179.256,110.5a.283.283,0,0,1,.3.262h0a.284.284,0,0,1-.262.3h0l-.849.062a.283.283,0,0,1-.3-.262h0a.282.282,0,0,1,.261-.3h0Z" transform="translate(-67.979 -92.201)" style="fill:#00c40a"/><path d="M179.563,109.869c.062.054.029.194-.075.311h0c-.1.118-.238.169-.3.114l-.339-.3c-.062-.054-.028-.195.075-.312h0c.1-.117.238-.168.3-.114Z" transform="translate(-67.979 -92.201)" style="fill:#00c40a"/><path d="M179.327,110.668a.253.253,0,0,1,.349-.018h0a.252.252,0,0,1,.128.325l-.331.516a.253.253,0,0,1-.349.018h0a.253.253,0,0,1-.13-.325Z" transform="translate(-67.979 -92.201)" style="fill:#1cff28"/><path d="M185.106,108.724a.285.285,0,0,1-.4.011h0a.284.284,0,0,1-.012-.4l.585-.618a.282.282,0,0,1,.4-.012h0a.283.283,0,0,1,.011.4Z" transform="translate(-67.979 -92.201)" style="fill:#00c40a"/><path d="M185.307,109.4c-.083,0-.152-.124-.156-.28h0c0-.157.063-.285.146-.287l.45-.008c.083,0,.153.124.156.281h0c0,.156-.062.285-.145.286Z" transform="translate(-67.979 -92.201)" style="fill:#00c40a"/><path d="M184.942,108.649c.019.112-.091.223-.245.25h0c-.154.026-.3-.043-.314-.154l-.1-.605c-.019-.111.091-.222.245-.249h0c.154-.026.295.042.314.154Z" transform="translate(-67.979 -92.201)" style="fill:#1cff28"/><path d="M185.41,110.6a.283.283,0,0,1-.2.347h0a.284.284,0,0,1-.347-.2l-.216-.822a.284.284,0,0,1,.2-.346h0a.285.285,0,0,1,.347.2Z" transform="translate(-67.979 -92.201)" style="fill:#00c40a"/><path d="M186.089,110.782c-.043.071-.186.064-.32-.016h0c-.134-.081-.209-.2-.166-.274l.231-.387c.042-.072.186-.064.319.016h0c.137.08.21.2.167.274Z" transform="translate(-67.979 -92.201)" style="fill:#00c40a"/><path d="M185.261,110.7a.255.255,0,0,1,.082.34h0c-.06.145-.192.228-.3.185l-.567-.232a.252.252,0,0,1-.082-.339h0c.059-.145.191-.229.3-.186Z" transform="translate(-67.979 -92.201)" style="fill:#1cff28"/><path d="M181.746,107.971a.283.283,0,0,1-.369.155h0a.284.284,0,0,1-.155-.37h0l.322-.788a.285.285,0,0,1,.37-.155h0a.283.283,0,0,1,.155.37h0Z" transform="translate(-67.979 -92.201)" style="fill:#00c40a"/><path d="M182.177,108.527c-.077.031-.187-.061-.247-.206h0c-.059-.145-.045-.288.032-.319l.418-.171c.076-.031.187.061.246.206h0c.059.145.046.288-.032.32Z" transform="translate(-67.979 -92.201)" style="fill:#00c40a"/><path d="M181.567,107.96a.256.256,0,0,1-.137.32h0a.255.255,0,0,1-.349-.03l-.314-.527c-.058-.1,0-.24.137-.32h0a.255.255,0,0,1,.349.03Z" transform="translate(-67.979 -92.201)" style="fill:#1cff28"/><path d="M182.45,106.059a.283.283,0,0,1-.4-.022h0a.282.282,0,0,1,.021-.4h0l.633-.569a.284.284,0,0,1,.4.021h0a.284.284,0,0,1-.022.4h0Z" transform="translate(-67.979 -92.201)" style="fill:#00c40a"/><path d="M182.6,106.747c-.083-.006-.142-.137-.132-.293h0c.01-.156.085-.279.167-.274l.451.029c.082,0,.142.137.132.292h0c-.01.156-.085.279-.168.274Z" transform="translate(-67.979 -92.201)" style="fill:#00c40a"/><path d="M182.293,105.971c.01.112-.108.215-.264.228h0c-.157.014-.291-.066-.3-.178l-.053-.611c-.01-.113.108-.215.264-.229h0c.156-.013.291.067.3.179Z" transform="translate(-67.979 -92.201)" style="fill:#1cff28"/><path d="M184.177,114.716s-.3.49.479.352.5-.449.5-.449-.2.711.287.311a1.616,1.616,0,0,0,.488-1.128s.218.873.86.2a.788.788,0,0,0,.13-1.107.613.613,0,0,0-.081-.088s.2-.462.4-.469.014-.548.014-.548l.1-.482s-.074-.581-.515-.66.782-.137.747-.446-.71-.45-.71-.45.639-.168.034-.646a1.791,1.791,0,0,0-1.4-.291l.319-.335s-.5-.506-.671-.392-.267-.407-.545-.515-.63.371-.63.371-.622-.632-1.017-.665-.482.539-.482.539-.216-.082-.575.195-.787-.229-.925.629.443.475.443.475-.782-.175-.755.213.708.65.708.65-.9-.069-.639.588a1,1,0,0,0,.765.7s-.073.265-.121.48.577.464.577.464-.143-.223.123.347a1.6,1.6,0,0,0,.928.759s-.39.421-.161.77.972.153.972.153S182.9,115.053,184.177,114.716Z" transform="translate(-67.979 -92.201)" style="fill:#009c08"/><path d="M184.931,114.357a.258.258,0,0,1,.191-.311h0a.259.259,0,0,1,.311.191l.18.753a.259.259,0,0,1-.191.311h0a.26.26,0,0,1-.311-.191Z" transform="translate(-67.979 -92.201)" style="fill:#00c40a"/><path d="M184.318,114.175c.041-.064.171-.055.291.021h0c.121.076.187.189.147.253l-.218.347c-.041.064-.171.055-.292-.021h0c-.12-.075-.186-.189-.145-.253Z" transform="translate(-67.979 -92.201)" style="fill:#00c40a"/><path d="M185.068,114.269a.227.227,0,0,1-.068-.31h0c.056-.131.179-.2.274-.163l.511.222a.231.231,0,0,1,.068.311h0c-.056.131-.179.2-.274.162Z" transform="translate(-67.979 -92.201)" style="fill:#1cff28"/><path d="M186.9,111.6a.257.257,0,0,1-.1-.349h0a.257.257,0,0,1,.349-.1h0l.681.369a.257.257,0,0,1,.1.349h0a.259.259,0,0,1-.35.1h0Z" transform="translate(-67.979 -92.201)" style="fill:#00c40a"/><path d="M186.347,111.934c-.021-.072.073-.163.21-.2h0c.137-.039.265-.011.286.061l.113.394c.02.073-.074.163-.211.2h0c-.137.039-.265.012-.285-.061Z" transform="translate(-67.979 -92.201)" style="fill:#00c40a"/><path d="M186.92,111.438c-.092.043-.217-.027-.274-.157h0a.231.231,0,0,1,.061-.312l.507-.232c.092-.043.217.028.277.157h0a.231.231,0,0,1-.062.312Z" transform="translate(-67.979 -92.201)" style="fill:#1cff28"/><path d="M185.219,110.429a.259.259,0,0,1,.191-.311h0a.259.259,0,0,1,.311.191l.18.753a.259.259,0,0,1-.191.311h0a.258.258,0,0,1-.311-.191Z" transform="translate(-67.979 -92.201)" style="fill:#00c40a"/><path d="M184.606,110.247c.04-.064.17-.054.291.022h0c.121.075.186.189.146.253l-.218.347c-.04.064-.17.054-.291-.021h0c-.121-.076-.186-.189-.146-.253Z" transform="translate(-67.979 -92.201)" style="fill:#00c40a"/><path d="M185.357,110.342a.229.229,0,0,1-.068-.311h0c.057-.13.179-.2.274-.162l.512.222a.232.232,0,0,1,.068.311h0c-.057.13-.18.2-.274.162Z" transform="translate(-67.979 -92.201)" style="fill:#1cff28"/><path d="M185.479,113.033a.258.258,0,0,1,.19-.311h0a.257.257,0,0,1,.311.19h0l.181.753a.258.258,0,0,1-.191.311h0a.258.258,0,0,1-.311-.191Z" transform="translate(-67.979 -92.201)" style="fill:#00c40a"/><path d="M184.865,112.851c.04-.064.17-.055.291.021h0c.121.076.186.189.146.253l-.218.347c-.04.064-.17.054-.291-.021h0c-.121-.076-.186-.189-.146-.253Z" transform="translate(-67.979 -92.201)" style="fill:#00c40a"/><path d="M185.616,112.945a.231.231,0,0,1-.068-.311h0c.057-.13.179-.2.274-.162l.511.222a.231.231,0,0,1,.068.311h0c-.057.13-.179.2-.274.162Z" transform="translate(-67.979 -92.201)" style="fill:#1cff28"/><path d="M182.194,112.58a.259.259,0,0,1,.364-.037h0a.258.258,0,0,1,.037.363l0,0-.5.595a.258.258,0,0,1-.363.035h0a.258.258,0,0,1-.037-.363l0,0Z" transform="translate(-67.979 -92.201)" style="fill:#00c40a"/><path d="M181.97,111.98c.075-.006.146.1.159.246h0c.012.142-.039.262-.115.269l-.408.035c-.075.006-.146-.1-.158-.245h0c-.013-.142.038-.263.113-.269Z" transform="translate(-67.979 -92.201)" style="fill:#00c40a"/><path d="M182.347,112.637c-.024-.1.069-.208.207-.241h0a.231.231,0,0,1,.295.12l.13.542c.025.1-.068.208-.206.241h0a.231.231,0,0,1-.295-.12Z" transform="translate(-67.979 -92.201)" style="fill:#1cff28"/><path d="M183.142,110.334a.258.258,0,0,1,.358-.068h0a.258.258,0,0,1,.069.358l-.435.64a.257.257,0,0,1-.358.068h0a.258.258,0,0,1-.069-.358Z" transform="translate(-67.979 -92.201)" style="fill:#00c40a"/><path d="M182.864,109.758c.074-.013.155.092.18.229h0c.025.14-.014.264-.088.278l-.4.073c-.074.013-.155-.092-.18-.229h0c-.026-.14.014-.265.088-.278Z" transform="translate(-67.979 -92.201)" style="fill:#00c40a"/><path d="M183.3,110.377c-.033-.1.049-.213.183-.259h0a.231.231,0,0,1,.3.091l.181.528c.033.1-.05.213-.183.26h0a.23.23,0,0,1-.3-.092Z" transform="translate(-67.979 -92.201)" style="fill:#1cff28"/><path d="M182.561,108.276a.258.258,0,0,1,.19-.311h0a.259.259,0,0,1,.311.191l.179.753a.258.258,0,0,1-.191.311h0a.259.259,0,0,1-.311-.19Z" transform="translate(-67.979 -92.201)" style="fill:#00c40a"/><path d="M181.947,108.1c.04-.064.171-.055.292.021h0c.12.076.185.189.145.253l-.218.347c-.04.064-.17.055-.29-.021h0c-.121-.076-.187-.189-.147-.253Z" transform="translate(-67.979 -92.201)" style="fill:#00c40a"/><path d="M182.7,108.189a.232.232,0,0,1-.069-.311h0c.058-.13.179-.2.274-.162l.512.222a.233.233,0,0,1,.068.311h0c-.057.13-.179.2-.274.162Z" transform="translate(-67.979 -92.201)" style="fill:#1cff28"/><path d="M184.617,108.6a.258.258,0,0,1,.362-.046h0a.259.259,0,0,1,.046.362l-.472.614a.259.259,0,0,1-.362.045h0a.258.258,0,0,1-.045-.361Z" transform="translate(-67.979 -92.201)" style="fill:#00c40a"/><path d="M184.373,108.009c.075-.009.149.1.166.24h0c.017.141-.03.263-.1.274l-.406.049c-.075.009-.15-.1-.167-.24h0c-.017-.141.03-.263.1-.274Z" transform="translate(-67.979 -92.201)" style="fill:#00c40a"/><path d="M184.772,108.652c-.027-.1.062-.21.2-.248h0a.229.229,0,0,1,.3.11l.149.537c.028.1-.061.21-.2.249h0a.232.232,0,0,1-.3-.111Z" transform="translate(-67.979 -92.201)" style="fill:#1cff28"/><path d="M186.758,109.351a.258.258,0,0,1-.271-.244h0a.257.257,0,0,1,.244-.271h0l.773-.04a.258.258,0,0,1,.271.245h0a.257.257,0,0,1-.244.27h0Z" transform="translate(-67.979 -92.201)" style="fill:#00c40a"/><path d="M186.468,109.921c-.055-.052-.022-.178.075-.283h0c.1-.105.219-.148.274-.1l.3.278c.055.051.022.177-.075.282h0c-.1.105-.22.148-.274.1Z" transform="translate(-67.979 -92.201)" style="fill:#00c40a"/><path d="M186.7,109.2a.231.231,0,0,1-.319.011h0a.233.233,0,0,1-.11-.3l.312-.462a.229.229,0,0,1,.317-.01h0a.229.229,0,0,1,.11.3Z" transform="translate(-67.979 -92.201)" style="fill:#1cff28"/><path d="M181.405,110.851a.257.257,0,0,1,.364,0h0a.257.257,0,0,1,0,.364h0l-.543.551a.258.258,0,0,1-.365,0h0a.258.258,0,0,1,0-.365h0Z" transform="translate(-67.979 -92.201)" style="fill:#00c40a"/><path d="M181.236,110.234c.075,0,.137.116.137.258h0c0,.142-.062.258-.137.258h-.411c-.076,0-.137-.116-.137-.259h0c0-.142.062-.258.137-.257Z" transform="translate(-67.979 -92.201)" style="fill:#00c40a"/><path d="M181.551,110.922c-.015-.1.088-.2.229-.222h0c.141-.021.267.046.282.146l.082.552c.015.1-.087.2-.228.222h0c-.141.021-.268-.046-.283-.147Z" transform="translate(-67.979 -92.201)" style="fill:#1cff28"/><path d="M181.166,109.143a.258.258,0,0,1,.191-.311h0a.259.259,0,0,1,.311.19h0l.18.752a.258.258,0,0,1-.19.311h0a.257.257,0,0,1-.311-.19h0Z" transform="translate(-67.979 -92.201)" style="fill:#00c40a"/><path d="M180.553,108.961c.04-.064.17-.054.291.021h0c.121.076.186.189.146.253l-.218.347c-.04.064-.171.055-.291-.021h0c-.121-.076-.186-.189-.146-.253Z" transform="translate(-67.979 -92.201)" style="fill:#00c40a"/><path d="M181.3,109.056a.232.232,0,0,1-.068-.311h0c.057-.131.179-.2.274-.163l.512.222a.229.229,0,0,1,.068.311h0c-.057.131-.179.2-.274.163Z" transform="translate(-67.979 -92.201)" style="fill:#1cff28"/><path d="M184.444,111.6a.258.258,0,0,1,.34-.133h0a.257.257,0,0,1,.134.339h0l-.307.707a.257.257,0,0,1-.339.134h0a.258.258,0,0,1-.134-.34Z" transform="translate(-67.979 -92.201)" style="fill:#00c40a"/><path d="M184.063,111.089c.07-.027.169.059.22.192h0c.051.133.035.263-.036.29l-.383.146c-.07.027-.168-.059-.22-.192h0c-.05-.133-.034-.263.036-.29Z" transform="translate(-67.979 -92.201)" style="fill:#00c40a"/><path d="M184.608,111.616c-.051-.091.008-.218.132-.289h0a.231.231,0,0,1,.316.035l.275.485a.231.231,0,0,1-.133.289h0a.231.231,0,0,1-.316-.035Z" transform="translate(-67.979 -92.201)" style="fill:#1cff28"/><path d="M183.766,113.328a.258.258,0,0,1,.364.025v0h0a.257.257,0,0,1-.025.363l0,0-.587.5a.258.258,0,0,1-.363-.025l0,0h0a.256.256,0,0,1,.025-.363l0,0Z" transform="translate(-67.979 -92.201)" style="fill:#00c40a"/><path d="M183.647,112.7c.075.007.127.127.115.269h0c-.013.142-.083.251-.159.245l-.408-.035c-.075-.006-.127-.126-.114-.268h0c.012-.142.082-.252.158-.246Z" transform="translate(-67.979 -92.201)" style="fill:#00c40a"/><path d="M183.907,113.41c-.007-.1.1-.193.245-.2h0c.142-.009.263.066.27.169l.036.556c.007.1-.1.193-.245.2h0c-.143.009-.263-.067-.27-.169Z" transform="translate(-67.979 -92.201)" style="fill:#1cff28"/><path d="M186.422,103.216l-.411.274a.37.37,0,0,0-.1.514.357.357,0,0,0,.142.125l.011.006a.371.371,0,0,0,.5-.167.366.366,0,0,0,.038-.187l-.028-.493a.1.1,0,0,0-.1-.088A.091.091,0,0,0,186.422,103.216Z" transform="translate(-67.979 -92.201)" style="fill:#fff"/><path d="M186.164,104.905l-.411.274a.37.37,0,0,0-.1.515.375.375,0,0,0,.141.124l.012.006a.371.371,0,0,0,.5-.166.381.381,0,0,0,.039-.188l-.029-.493a.1.1,0,0,0-.1-.089A.1.1,0,0,0,186.164,104.905Z" transform="translate(-67.979 -92.201)" style="fill:#fff"/><path d="M188.4,104.448l-.131.477a.371.371,0,0,0,.262.455.363.363,0,0,0,.188,0l.013,0a.37.37,0,0,0,.267-.451.374.374,0,0,0-.093-.167l-.344-.355a.1.1,0,0,0-.136,0A.1.1,0,0,0,188.4,104.448Z" transform="translate(-67.979 -92.201)" style="fill:#fff"/><path d="M185.443,103.52l-.22.443a.372.372,0,0,0,.168.5.388.388,0,0,0,.187.038h.012a.371.371,0,0,0,.349-.392.362.362,0,0,0-.06-.182l-.269-.414a.1.1,0,0,0-.167.009Z" transform="translate(-67.979 -92.201)" style="fill:#fff"/><path d="M187,103.007l-.342-.356a.371.371,0,0,0-.624.151l0,.012a.371.371,0,0,0,.442.467l.481-.113a.1.1,0,0,0,.071-.116A.1.1,0,0,0,187,103.007Z" transform="translate(-67.979 -92.201)" style="fill:#fff"/><path d="M187.31,105.85l.488-.082a.371.371,0,0,0,.306-.426.363.363,0,0,0-.078-.174l-.008-.01a.371.371,0,0,0-.634.1l-.178.461a.1.1,0,0,0,.055.124A.1.1,0,0,0,187.31,105.85Z" transform="translate(-67.979 -92.201)" style="fill:#fff"/><path d="M187.808,103.353l.219.443a.371.371,0,0,0,.64.043l.007-.01a.372.372,0,0,0-.1-.516.377.377,0,0,0-.18-.062l-.5-.037a.1.1,0,0,0-.091.139Z" transform="translate(-67.979 -92.201)" style="fill:#fff"/><path d="M187.119,103.931l-.411.274a.372.372,0,0,0-.1.515.38.38,0,0,0,.142.125l.011.006a.372.372,0,0,0,.5-.167.38.38,0,0,0,.039-.187l-.029-.493a.1.1,0,0,0-.1-.088A.089.089,0,0,0,187.119,103.931Z" transform="translate(-67.979 -92.201)" style="fill:#fff"/><path d="M187.509,102.432l-.411.275a.369.369,0,0,0-.1.514.365.365,0,0,0,.142.125l.011,0a.371.371,0,0,0,.5-.167.362.362,0,0,0,.038-.186l-.028-.494a.1.1,0,0,0-.106-.087A.121.121,0,0,0,187.509,102.432Z" transform="translate(-67.979 -92.201)" style="fill:#fff"/><circle cx="123.803" cy="17.468" r="1.856" style="fill:#fff276;opacity:0.239999994635582;isolation:isolate"/><path d="M100.244,92.661a4.422,4.422,0,0,0-2.926,2.82v.007a5.552,5.552,0,0,0,3.987-.2,4.42,4.42,0,0,0,2.926-2.82V92.46A5.549,5.549,0,0,0,100.244,92.661Z" transform="translate(-67.979 -92.201)" style="fill:#696"/><path d="M95.053,93.78a3.569,3.569,0,0,1,2.167,2.47v0a4.5,4.5,0,0,1-3.2-.431,3.551,3.551,0,0,1-2.166-2.469V93.35A4.5,4.5,0,0,1,95.053,93.78Z" transform="translate(-67.979 -92.201)" style="fill:#696"/><ellipse cx="29.365" cy="5.901" rx="0.84" ry="3.912" style="fill:#7f4834"/><ellipse cx="29.217" cy="21.612" rx="1.599" ry="0.766" style="fill:#7f4834"/><path d="M103.9,96.185a5.529,5.529,0,0,0-1.693-.263,5.434,5.434,0,0,0-3.989,1.635c-.046.047-.092.083-.139.126a1.367,1.367,0,0,1-1.788,0c-.046-.038-.093-.083-.139-.126a5.434,5.434,0,0,0-3.989-1.635,5.529,5.529,0,0,0-1.693.263s-5.785,1.61-5.785,8.793,9.6,9.127,9.6,9.127l.719.149a2.943,2.943,0,0,0,.555.056,1.771,1.771,0,0,0,1.3-.532.582.582,0,0,1,.053-.046.44.44,0,0,1,.567,0,.582.582,0,0,1,.053.046,1.769,1.769,0,0,0,1.3.532,5.267,5.267,0,0,0,.615-.044l.754-.179s9.487-1.927,9.487-9.109S103.9,96.185,103.9,96.185Z" transform="translate(-67.979 -92.201)" style="fill:#f16365"/><text transform="translate(0.1 21.028)" style="font-size:22px;fill:#0188d8;stroke:#0188d8;stroke-miterlimit:10;stroke-width:0.20000000298023224px;font-family:Monoton-Regular, Monoton;letter-spacing:0.050004438920454544em">F</text><text transform="translate(43.826 21.028)" style="font-size:22px;fill:#0188d8;stroke:#0188d8;stroke-miterlimit:10;stroke-width:0.20000000298023224px;font-family:Monoton-Regular, Monoton;letter-spacing:0.050004438920454544em">ODC</text><text transform="translate(133.144 21.028)" style="font-size:22px;fill:#0188d8;stroke:#0188d8;stroke-miterlimit:10;stroke-width:0.20000000298023224px;font-family:Monoton-Regular, Monoton;letter-spacing:0.049982244318181816em">RP</text></svg>