<svg id="Layer_1" data-name="Layer 1" xmlns="http://www.w3.org/2000/svg" viewBox="0 0 50 50"><defs><style>.cls-1{fill:none;stroke:#000;stroke-linecap:round;stroke-miterlimit:10;stroke-width:2px;}</style></defs><title>giveBackStep</title><circle class="cls-1" cx="25" cy="25" r="24"/><path d="M142.567,149.555a1.754,1.754,0,0,1-.45-.059,1.639,1.639,0,0,1-1.01-.776,1.461,1.461,0,0,1,.1-1.468l.055-.109a26.407,26.407,0,0,1,3.486-5.313,9.935,9.935,0,0,1,6.392-3.713,22.888,22.888,0,0,1,5.334-.019l.676.05c1.423.1,2.326-.025,3-.977a1.375,1.375,0,0,1,.311-.3l.079-.064a.522.522,0,1,1,.692.782c-.042.037-.087.073-.132.108a.932.932,0,0,0-.1.082c-1.047,1.488-2.575,1.509-3.922,1.415l-.68-.05a22.122,22.122,0,0,0-5.092.009,8.936,8.936,0,0,0-5.747,3.343,25.388,25.388,0,0,0-3.353,5.1l-.065.128c-.153.3-.174.387-.121.481a.6.6,0,0,0,.373.284.738.738,0,0,0,.56-.08,6.53,6.53,0,0,0,1.794-1.825l.076-.1a16.417,16.417,0,0,1,1.445-1.592c.276-.278.554-.558.817-.848a6.853,6.853,0,0,1,3.711-1.786,4.36,4.36,0,0,0,.779-.309,3.459,3.459,0,0,1,1.633-.446.523.523,0,0,1,.5.541.5.5,0,0,1-.541.5,2.516,2.516,0,0,0-1.149.347,5.256,5.256,0,0,1-.975.379,6.064,6.064,0,0,0-3.186,1.473c-.276.3-.562.593-.85.883a15.291,15.291,0,0,0-1.355,1.489l-.075.1a7.421,7.421,0,0,1-2.1,2.095A1.828,1.828,0,0,1,142.567,149.555Z" transform="translate(-124.689 -125.905)"/><path d="M140.136,165.139a.5.5,0,0,1-.5-.416.871.871,0,0,1,.192-.779.975.975,0,0,1,.862-.218,32.428,32.428,0,0,0,3.823.087c.51-.009,1.035-.014,1.529-.016h.012a6.753,6.753,0,0,0,4.865-1.754,30.584,30.584,0,0,0,4.881-5.618c.1-.153.205-.3.314-.449a2.585,2.585,0,0,0,.49-.879c.02-.087.045-.177.073-.267.1-.344.107-.44.04-.514-.107-.119-.278-.119-.647-.089-.09.008-.181.015-.27.019-.073,0-.181.1-.293.2l-.088.077c-.511.438-1.013.886-1.515,1.335-.437.392-.875.782-1.319,1.166l-.331.288a11.892,11.892,0,0,1-4.994,3.048.522.522,0,0,1-.24-1.017,10.934,10.934,0,0,0,4.549-2.819l.333-.29c.439-.38.873-.768,1.306-1.155.508-.453,1.015-.907,1.532-1.349l.072-.064a1.489,1.489,0,0,1,.947-.462c.073,0,.15-.009.226-.015a1.655,1.655,0,0,1,1.508.432,1.455,1.455,0,0,1,.185,1.5c-.021.072-.042.141-.058.212a3.438,3.438,0,0,1-.666,1.26c-.093.128-.187.254-.27.387a31.434,31.434,0,0,1-5.042,5.814,7.755,7.755,0,0,1-5.589,2.047h-.077c-.482,0-.964.008-1.446.015a33.482,33.482,0,0,1-3.882-.085h-.008a.527.527,0,0,1-.407.361A.487.487,0,0,1,140.136,165.139Z" transform="translate(-124.689 -125.905)"/><path d="M139.3,161.145a5.266,5.266,0,0,1-1.062-.117.522.522,0,1,1,.214-1.022,2.836,2.836,0,0,0,2.5-.469,13.7,13.7,0,0,0,2.554-2.448,3.164,3.164,0,0,1,2.54-1.284,8.593,8.593,0,0,0,3.41-.671,1.387,1.387,0,0,1,1.372.066,1.53,1.53,0,0,1,.56,1.369.5.5,0,0,1-.539.5.523.523,0,0,1-.5-.539c.011-.3-.067-.443-.113-.476s-.174-.04-.382.044a9.43,9.43,0,0,1-3.821.748,2.052,2.052,0,0,0-1.7.887,14.654,14.654,0,0,1-2.745,2.634A3.656,3.656,0,0,1,139.3,161.145Z" transform="translate(-124.689 -125.905)"/><path d="M149.205,146.514a1.359,1.359,0,0,1-.83-.252,1.6,1.6,0,0,1-.58-1.208.522.522,0,1,1,1.04-.094.688.688,0,0,0,.16.462.665.665,0,0,0,.469.019l.38-.082a9.024,9.024,0,0,1,2.841-.3,3.54,3.54,0,0,0,3.029-1.357,6.166,6.166,0,0,1,5.4-2.193.522.522,0,0,1-.145,1.034c-1.622-.229-3.01.353-4.5,1.888a4.622,4.622,0,0,1-3.883,1.667,8.123,8.123,0,0,0-2.514.284l-.387.083A2.327,2.327,0,0,1,149.205,146.514Z" transform="translate(-124.689 -125.905)"/><path d="M150.2,152.047a.522.522,0,0,1-.311-.942l.1-.074a1.448,1.448,0,0,0,.159-.121,2.461,2.461,0,0,0,.271-.291,2.581,2.581,0,0,0-.362-.2,1.07,1.07,0,0,1-.705-1.036,1.032,1.032,0,0,1,1.02-1.05.523.523,0,0,1,.121,1.038.37.37,0,0,0-.126.028.585.585,0,0,0,.131.075c.473.221.922.491,1,.966a1.469,1.469,0,0,1-.629,1.224,2.411,2.411,0,0,1-.281.22l-.082.059A.535.535,0,0,1,150.2,152.047Z" transform="translate(-124.689 -125.905)"/><path d="M150.353,153.318a3.014,3.014,0,0,1-1.624-.407,3.889,3.889,0,0,1-1.253-3.924,3.314,3.314,0,0,1,2.191-2.334l.293-.148a.512.512,0,0,1,.279-.056h0a3.511,3.511,0,0,1,2.19.417,3.452,3.452,0,0,1,1.677,2.886,3.582,3.582,0,0,1-1.652,2.992A3.907,3.907,0,0,1,150.353,153.318Zm-.026-5.828-.195.1c-.906.451-1.468.769-1.631,1.6a2.92,2.92,0,0,0,.8,2.851,2.83,2.83,0,0,0,2.569-.161,2.513,2.513,0,0,0,1.189-2.113,2.428,2.428,0,0,0-1.193-2.017A2.56,2.56,0,0,0,150.327,147.49Z" transform="translate(-124.689 -125.905)"/></svg>