<svg xmlns="http://www.w3.org/2000/svg" width="152.104" height="165.085" viewBox="0 0 152.104 165.085"><g transform="translate(-57.413 -40.466)"><g transform="translate(57.413 40.466)"><path d="M433.8,65.629a3.108,3.108,0,1,0-3.108-3.091A3.113,3.113,0,0,0,433.8,65.629Z" transform="translate(-287.74 -52.157)" fill="#fff"/><path d="M203.908,145.989a3.108,3.108,0,1,0-3.127-3.125A3.12,3.12,0,0,0,203.908,145.989Z" transform="translate(-145.876 -101.742)" fill="#fff"/><path d="M113.353,403.688a2.411,2.411,0,0,0-2.4,2.731,2.433,2.433,0,0,0,4.341,1.2,2.35,2.35,0,0,0,.5-1.744A2.451,2.451,0,0,0,113.353,403.688Z" transform="translate(-90.443 -264.586)" fill="#fff"/><path d="M79.811,330.043l-.177-.237c-.272-.362-.537-.708-.794-1.032q-.279-.352-.545-.672t-.515-.6c-.334-.378-.645-.709-.933-.984A5.9,5.9,0,0,0,72.9,324.5a6,6,0,0,0-2.677.817c-.524.261-1.183.573-1.929.926-3.153,1.493-9.712,4.6-10.579,6.426-.707,1.5-.058,3.8.694,6.459.205.727.418,1.479.613,2.252,1.485,5.939,1.509,12.861,1.533,19.555.025,7.138.048,13.88,1.769,18.956.27.784.479.918.481.919l0-.006a8.176,8.176,0,0,0,2.366-1.144c1.928-1.125,5.844-2.937,10.38-5.034,4.512-2.087,9.627-4.453,13.714-6.579,6.186-3.218,7.085-4.383,7.212-4.663.642-1.438.3-3.659-1.047-6.777C92.912,350.673,85.072,337.117,79.811,330.043Zm4.434,30.269a4.95,4.95,0,1,1-4.453-7.971,5.1,5.1,0,0,1,.531-.028,4.957,4.957,0,0,1,4.938,4.416A4.838,4.838,0,0,1,84.245,360.313Z" transform="translate(-57.413 -215.722)" fill="#fff"/><path d="M353.261,90.137a1.843,1.843,0,0,0,1.832-1.849,1.84,1.84,0,1,0-3.68,0A1.829,1.829,0,0,0,353.261,90.137Z" transform="translate(-238.821 -68.833)" fill="#fff"/><path d="M235.414,297.293a23,23,0,0,0-3.219.236c-9.637,1.332-25.657,8.167-33.222,14.144a6.494,6.494,0,0,1-1.511,1.994c-2.175,1.959-5.753,2.7-9.973,2.7-6.994,0-15.748-2.032-22.795-3.912-.54-.144-1-.266-1.355-.358a1.256,1.256,0,1,1,.623-2.433c.365.093.829.217,1.379.364,16.591,4.426,26.831,5.023,30.438,1.774a3.969,3.969,0,0,0,1.006-1.394c0-.008.005-.018.008-.026l.008-.02a4.06,4.06,0,0,0,.17-.49c0-.013.008-.025.011-.039a6.473,6.473,0,0,0,.067-2.687c-1.54-9.8-26.656-15.014-44.2-15.014a43.868,43.868,0,0,0-8.051.59c-6.238,1.227-15.778,5.551-29.137,13.209l.04.047c.151.174.3.353.461.542l.01.012q.244.294.5.612l.029.036q.248.311.5.645l.055.072q.254.331.515.681l.05.067c.554.744,1.129,1.55,1.718,2.4l.032.046q.288.418.581.85l.037.054c.606.9,1.224,1.835,1.846,2.8l.012.019q.308.479.617.967l.024.038c.629.994,1.259,2.011,1.883,3.037l0,0q.307.5.611,1.011l.028.047q.3.5.6,1l.019.031q.61,1.029,1.2,2.051v0q.288.5.571.992l.035.062q.276.483.546.959l.039.069q.558.987,1.085,1.941l0,0q.253.458.5.906l.052.1q.237.434.465.859l.047.088q.23.429.451.845l.027.052q.448.846.849,1.63l.049.1q.187.367.364.718l.055.11c.117.234.231.463.34.685l.034.068q.337.69.619,1.3l.024.052a51.24,51.24,0,0,1,17.886-3.7c6.157,0,11.089,1.587,15.859,3.12,5.056,1.626,10.283,3.308,17.3,3.308,1.157,0,2.352-.046,3.552-.137,6.061-.441,19.97-6.531,33.074-14.481,13.747-8.339,22.8-16.5,22.523-20.3C243.083,298.17,238.883,297.293,235.414,297.293Z" transform="translate(-93.355 -195.752)" fill="#fff"/><path d="M113.593,140.566a1.252,1.252,0,0,0,.614-.161c.222-.124,22.275-12.471,32.171-14.953,9.7-2.4,46.269,10.259,46.637,10.387.025.009.05.011.074.018a1.243,1.243,0,0,0,.129.031,1.144,1.144,0,0,0,.135.013c.025,0,.049.008.074.008s.024,0,.037,0a1.232,1.232,0,0,0,.141-.014c.037-.005.073-.009.109-.018s.08-.024.121-.038.075-.025.111-.041.072-.038.107-.058.069-.039.1-.061a1.2,1.2,0,0,0,.1-.08c.028-.025.057-.049.085-.076s.053-.064.079-.1.049-.063.071-.1a1.064,1.064,0,0,0,.055-.1,1.214,1.214,0,0,0,.058-.124c0-.012.011-.023.016-.035s.011-.05.018-.074a1.224,1.224,0,0,0,.031-.129,1.117,1.117,0,0,0,.013-.133c0-.026.008-.05.008-.076V119.009a1.256,1.256,0,0,0,.484.211,71.348,71.348,0,0,0,13.768,1.452c10.846,0,19.393-3.054,25.4-9.075,8.407-8.407,11.037-21.947,7.606-39.155a1.256,1.256,0,0,0-.985-.986,70.742,70.742,0,0,0-13.79-1.468c-10.808,0-19.347,3.047-25.384,9.058a29.346,29.346,0,0,0-7.1,11.875V64.966c1.707-8.658.342-15.5-3.954-19.8-3.1-3.119-7.489-4.7-13.033-4.7a36,36,0,0,0-6.938.731,1.255,1.255,0,0,0-.988.987c-1.746,8.753-.381,15.66,3.947,19.972,3.094,3.094,7.47,4.663,13,4.664h0a34.5,34.5,0,0,0,5.448-.465V97.991A19.918,19.918,0,0,0,188,91.81c-4.224-4.211-10.188-6.346-17.726-6.346a48.921,48.921,0,0,0-9.471,1,1.257,1.257,0,0,0-.987.987c-2.371,11.927-.527,21.327,5.329,27.181,4.2,4.216,10.151,6.353,17.679,6.354h0a48.865,48.865,0,0,0,9.347-.978V132.9c-7.466-2.52-37.123-12.18-46.4-9.881-10.224,2.564-31.877,14.685-32.793,15.2a1.256,1.256,0,0,0,.615,2.351Zm82.61-25.221L212.917,97.91l-1.369-16.772a1.256,1.256,0,1,1,2.5-.2l1.188,14.553,9.627-10.042a1.256,1.256,0,1,1,1.813,1.738l-20.608,21.5,14.97-2.355a1.256,1.256,0,0,1,.391,2.482L203.2,111.676l-5.268,5.5c-.481-.081-.964-.165-1.449-.257Q196.333,116.124,196.2,115.345Zm7.084,2.535c-.26-.025-.52-.051-.782-.079C202.767,117.83,203.027,117.856,203.287,117.881Zm-1.448-.153c-.28-.032-.561-.065-.843-.1C201.278,117.662,201.559,117.7,201.839,117.728Zm-1.451-.183c-.3-.041-.605-.082-.911-.128C199.782,117.462,200.085,117.5,200.388,117.544Zm-1.439-.21c-.333-.052-.666-.1-1-.16C198.283,117.231,198.616,117.282,198.949,117.334Zm5.059.609c.239.02.478.04.715.057C204.485,117.984,204.246,117.964,204.007,117.944Zm1.5.108c.212.013.424.026.634.037C205.934,118.077,205.722,118.064,205.51,118.051Zm1.54.072c.167.006.334.013.5.017C207.384,118.137,207.216,118.129,207.05,118.123Zm32.591-44.365c3.017,15.949.574,28.408-7.08,36.063-5.522,5.533-13.47,8.338-23.624,8.338h0c10.154,0,18.1-2.806,23.624-8.338,7.655-7.655,10.1-20.113,7.08-36.063A67.315,67.315,0,0,0,227.169,72.5h0A67.357,67.357,0,0,1,239.641,73.758ZM202.193,82.31c-.02.023-.038.047-.056.069C202.155,82.356,202.173,82.333,202.193,82.31Zm-6.957,21.63c0,.158,0,.315,0,.474C195.231,104.255,195.234,104.1,195.236,103.94Zm6.325-20.854c-.04.051-.077.1-.116.154C201.484,83.189,201.521,83.137,201.561,83.086Zm-.6.8c-.049.069-.1.139-.144.208C200.864,84.028,200.91,83.957,200.959,83.889Zm-.572.83c-.054.08-.1.163-.157.245C200.283,84.881,200.334,84.8,200.388,84.718Zm-.542.855c-.056.091-.108.184-.162.276C199.738,85.757,199.79,85.665,199.846,85.573Zm-.512.881c-.056.1-.108.2-.163.3C199.226,86.656,199.278,86.554,199.334,86.454Zm-.483.908c-.054.106-.106.214-.159.321C198.746,87.576,198.8,87.468,198.851,87.362Zm-.452.933c-.052.113-.1.227-.153.342C198.3,88.522,198.347,88.407,198.4,88.294Zm-.422.957c-.05.119-.1.24-.147.36C197.878,89.492,197.927,89.371,197.977,89.252Zm-.393.983c-.047.125-.092.25-.139.376C197.492,90.485,197.538,90.359,197.585,90.234Zm-.362,1.008q-.066.195-.129.391C197.136,91.5,197.178,91.372,197.222,91.242Zm-.332,1.032c-.041.134-.08.27-.12.406C196.81,92.545,196.849,92.409,196.89,92.275Zm-.3,1.057c-.038.138-.073.278-.109.417C196.515,93.61,196.551,93.471,196.588,93.332Zm-.272,1.082c-.033.142-.066.285-.1.429C196.25,94.7,196.283,94.557,196.316,94.414Zm-.242,1.106q-.044.219-.087.44Q196.03,95.739,196.075,95.52Zm-.211,1.129c-.026.151-.052.3-.076.452C195.812,96.949,195.838,96.8,195.864,96.648Zm-.181,1.155c-.022.152-.043.3-.063.458C195.639,98.108,195.661,97.956,195.683,97.8Zm-.151,1.18c-.017.154-.035.309-.051.464C195.5,99.292,195.514,99.137,195.531,98.983Zm-.119,1.2c-.013.157-.027.314-.04.472C195.384,100.5,195.4,100.341,195.412,100.184Zm-.089,1.226c-.01.159-.02.316-.028.476C195.3,101.727,195.313,101.569,195.323,101.411Zm-.059,1.252c-.005.159-.011.317-.016.477C195.252,102.979,195.258,102.821,195.264,102.662Zm.346,8.446c-.007-.065-.012-.129-.019-.194C195.6,110.979,195.6,111.042,195.61,111.108Zm-.137-1.381c-.01-.116-.018-.23-.028-.345C195.455,109.5,195.463,109.611,195.473,109.726Zm-.106-1.36c-.01-.138-.016-.274-.025-.412C195.351,108.092,195.357,108.228,195.367,108.366Zm-.076-1.338c-.007-.15-.01-.3-.016-.447C195.28,106.73,195.284,106.878,195.291,107.028Zm-.045-1.319c0-.155,0-.308-.007-.461C195.242,105.4,195.242,105.554,195.246,105.709Zm-9.022-12.122c.3.3.584.609.86.93q-.414-.481-.861-.93c-3.735-3.724-9.1-5.612-15.95-5.612h0C177.123,87.975,182.49,89.863,186.224,93.587Zm2.368,2.984q-.325-.519-.681-1.01Q188.269,96.051,188.592,96.571Zm-.724-1.067c-.245-.332-.5-.656-.767-.968C187.369,94.848,187.624,95.172,187.868,95.5Zm-5.044,22.969c.483,0,.976-.013,1.474-.032-.5.019-.99.032-1.473.032Zm8.185-.8q-2.5.46-4.849.653,1.65-.14,3.384-.407l-12.864-13.4-7.408,2.805a1.256,1.256,0,1,1-.889-2.349l6.406-2.425-4.554-4.742a1.256,1.256,0,1,1,1.812-1.74L184.078,108.6l.575-8.774a1.256,1.256,0,0,1,2.507.164l-.726,11.064,4.84,5.04a34.006,34.006,0,0,0-.482-14.523C192.077,106.025,192.162,111.449,191.009,117.673Zm-6.486.759q.751-.034,1.523-.1Q185.274,118.4,184.523,118.432Zm4.119-21.783q.32.516.607,1.062Q188.961,97.166,188.642,96.649ZM189.3,97.8q.286.549.54,1.124Q189.582,98.346,189.3,97.8ZM189.871,99q.254.585.477,1.2Q190.126,99.589,189.871,99Zm.5,1.26q.226.628.416,1.285C190.66,101.112,190.52,100.683,190.37,100.264Zm-3.647-35.958h0a32.633,32.633,0,0,0,5.63-.528c1.334-7.461.165-13.271-3.4-16.838-2.617-2.629-6.4-3.962-11.254-3.963h0c4.851,0,8.637,1.332,11.255,3.963,3.567,3.567,4.737,9.377,3.4,16.838A32.627,32.627,0,0,1,186.723,64.306Z" transform="translate(-91.303 -40.466)" fill="#fff"/></g></g></svg>