<svg xmlns="http://www.w3.org/2000/svg" viewBox="0 0 64 64"><title>partner</title><circle cx="32" cy="32" r="32" style="fill:#01afd1"/><g style="opacity:0.20000000298023224"><path d="M40.637,42.551a6.347,6.347,0,0,1-4.094-4.693A14.734,14.734,0,0,0,41,30.912a5.794,5.794,0,0,0,1.422-3.352,1.929,1.929,0,0,0-.693-1.566c-.147-5.881-4.311-10.6-9.46-10.675-.039,0-.079-.006-.118-.006l-.048,0c-5.116.029-9.274,4.651-9.522,10.455a1.941,1.941,0,0,0-1.011,1.791,6.368,6.368,0,0,0,1.932,3.953,14.71,14.71,0,0,0,3.99,6.122,6.317,6.317,0,0,1-4.133,4.916c-1.567.68-4.43,1.292-5.665,1.922,3.164,3.46,9.159,5.636,14.212,5.662l.072,0H32c5.089,0,11.119-2.184,14.3-5.665C45.067,43.843,42.2,43.231,40.637,42.551Z" style="fill:#231f20"/></g><path d="M40.637,41.1a6.347,6.347,0,0,1-4.094-4.694A14.726,14.726,0,0,0,41,29.461a5.8,5.8,0,0,0,1.422-3.352,1.929,1.929,0,0,0-.693-1.566c-.147-5.88-4.31-10.6-9.459-10.674-.04,0-.08-.007-.119-.007l-.048,0c-5.116.029-9.274,4.651-9.522,10.455a1.941,1.941,0,0,0-1.011,1.791,6.366,6.366,0,0,0,1.932,3.952,14.7,14.7,0,0,0,3.99,6.122A6.317,6.317,0,0,1,23.363,41.1c-1.567.68-4.43,1.292-5.665,1.922,3.164,3.46,9.159,5.636,14.212,5.662l.072,0H32c5.089,0,11.119-2.184,14.3-5.665C45.067,42.392,42.2,41.78,40.637,41.1Z" style="fill:#fff"/></svg>