<svg id="Layer_1" data-name="Layer 1" xmlns="http://www.w3.org/2000/svg" xmlns:xlink="http://www.w3.org/1999/xlink" viewBox="0 0 192.836 121.408"><defs><style>.cls-1{fill:#ffb925;}.cls-2{fill:#f6ff7f;}.cls-3,.cls-4,.cls-46,.cls-48,.cls-50,.cls-57{fill:none;stroke-miterlimit:10;}.cls-3,.cls-4,.cls-57{stroke:#000;}.cls-3,.cls-4{stroke-linecap:round;}.cls-3{stroke-width:0.25px;}.cls-4{stroke-width:0.125px;}.cls-5{fill:#cf9f66;}.cls-6{fill:#89643d;}.cls-7{fill:#c45c00;}.cls-8{fill:#c98019;}.cls-9{fill:#eb9800;}.cls-10{fill:#d68b00;}.cls-11{fill:#ebba1d;}.cls-12{fill:#ffca1f;}.cls-13{fill:#ffd85e;}.cls-14{fill:#d96600;}.cls-15{fill:#ffd03b;}.cls-16{fill:#ffe38a;}.cls-17{fill:#ffe38c;}.cls-18{fill:#fff4d1;}.cls-19{fill:#fff0c2;}.cls-20,.cls-33{fill:#fff276;}.cls-20{opacity:0.51;}.cls-20,.cls-26,.cls-33,.cls-45,.cls-46,.cls-47,.cls-48,.cls-49,.cls-50{isolation:isolate;}.cls-21{fill:#fff2ff;}.cls-22{fill:#965030;}.cls-23{fill:#ffb95c;}.cls-24{fill:#ffe9cc;}.cls-25{fill:url(#linear-gradient);}.cls-26{fill:#ff9100;opacity:0.47;}.cls-27{fill:#70270f;}.cls-28{fill:url(#linear-gradient-2);}.cls-29{fill:url(#linear-gradient-3);}.cls-30{fill:#fff0db;}.cls-31{fill:#ffbc00;}.cls-32{fill:#fff8f0;}.cls-33{opacity:0.24;}.cls-34{fill:#fff8ed;}.cls-35,.cls-52{fill:#fff;}.cls-36{fill:#351207;}.cls-37{fill:#4a190a;}.cls-38{fill:#6b240e;}.cls-39{fill:#009c08;}.cls-40{fill:#00c40a;}.cls-41{fill:#1cff28;}.cls-42{fill:#696;}.cls-43{fill:#7f4834;}.cls-44{fill:#f16365;}.cls-45,.cls-46,.cls-47,.cls-48,.cls-49,.cls-50{font-size:6.044px;font-family:Monoton-Regular, Monoton;}.cls-45,.cls-47,.cls-49{fill:#0188d8;}.cls-45,.cls-46{letter-spacing:0.05em;}.cls-46,.cls-48,.cls-50{stroke:#0188d8;stroke-width:0.2px;}.cls-47,.cls-48{letter-spacing:0.05em;}.cls-49,.cls-50{letter-spacing:0.049em;}.cls-51{fill:#57d2ff;}.cls-52{font-size:9.79px;font-family:MyriadPro-Regular, Myriad Pro;letter-spacing:0.056em;}.cls-53{letter-spacing:0.05em;}.cls-54{letter-spacing:0.04em;}.cls-55{letter-spacing:0.05em;}.cls-56{font-size:10.36px;letter-spacing:0.05em;}.cls-56,.cls-59{font-family:TitanOne, Titan One;}.cls-58{fill:#ff7217;}.cls-59{font-size:5px;letter-spacing:0.05em;}.cls-60{letter-spacing:0.03em;}</style><linearGradient id="linear-gradient" x1="297.253" y1="181.056" x2="298.129" y2="182.355" gradientTransform="translate(-123.557 -171.78)" gradientUnits="userSpaceOnUse"><stop offset="0.102" stop-color="#ffd59e"/><stop offset="0.301" stop-color="#ffb76c"/></linearGradient><linearGradient id="linear-gradient-2" x1="-248.689" y1="169.937" x2="-247.813" y2="171.236" gradientTransform="translate(-97.221 -119.762) rotate(-120.207)" xlink:href="#linear-gradient"/><linearGradient id="linear-gradient-3" x1="341.661" y1="-35.297" x2="342.537" y2="-33.998" gradientTransform="matrix(0.748, 0.664, -0.664, 0.748, -102.715, -192.44)" xlink:href="#linear-gradient"/></defs><title>searchScreen</title><rect class="cls-1" width="192.836" height="5.17"/><polygon class="cls-2" points="0 5.362 0 121.408 192.836 121.408 192.836 5.362 192.836 5.17 0 5.17 0 5.362"/><line class="cls-3" x1="187.905" y1="0.898" x2="190.698" y2="3.97"/><line class="cls-3" x1="190.698" y1="0.898" x2="187.905" y2="3.97"/><polygon class="cls-4" points="181.761 0.618 181.761 1.456 183.437 1.456 183.437 3.411 183.996 3.411 183.996 0.618 181.761 0.618"/><rect class="cls-4" x="180.924" y="1.456" width="2.234" height="2.793"/><line class="cls-4" x1="174.221" y1="2.294" x2="177.293" y2="2.294"/><circle class="cls-5" cx="175.815" cy="10.664" r="3.434"/><circle class="cls-6" cx="175.822" cy="10.671" r="2.934"/><circle class="cls-7" cx="175.483" cy="10.473" r="2.319"/><path class="cls-8" d="M228.575,91.483a1.817,1.817,0,0,1,1.331-.455.663.663,0,0,1,.514,1.062s-.092-.011-.14-.162-.2-.477-.5-.476a1.859,1.859,0,0,0-1.267.567A1.351,1.351,0,0,1,228.575,91.483Z" transform="translate(-55.578 -81.579)"/><path class="cls-9" d="M230.994,90.813s.91-.6,1.5.043a3.168,3.168,0,0,0,.424.6c.174.155.615.288.59.824s-.275.714-.416.728-.934-.1-1.114.147-.1.861-.323,1.146-1.294-.118-.986-.9a1.412,1.412,0,0,0-.316-1.437c-.1-.21-.357-.737.348-.983s.547.269.361.331-.543.1-.474.478.524.544.492,1.091-.258.687-.15.9.475.42.553.182-.015-.934.46-1.214.992.036,1.144-.114a.533.533,0,0,0-.155-.737l-.022-.014a2.309,2.309,0,0,1-.668-.785c-.151-.271-.682-.266-1.142.011S230.576,91.065,230.994,90.813Z" transform="translate(-55.578 -81.579)"/><path class="cls-10" d="M230.663,90.515a.68.68,0,0,1,.027-.879c.389-.429,1.621-.116,1.5.559s.03.653.213.775.5.1.749.244a.54.54,0,0,1,.116.882,1.088,1.088,0,0,1-1.391.307c-.529-.258-.911-.458-1.174.239s-.4,1.217-.786,1.248-.483-.108-.328-.282.326,0,.479-.225a7.2,7.2,0,0,1,.49-1.061c.343-.5.823-.445,1.3-.185A.755.755,0,0,0,232.9,91.9h0l.011-.019c.194-.293.126-.51-.677-.592a.645.645,0,0,1-.476-.7c.09-.535-.063-.821-.4-.832s-.61.263-.455.757S230.663,90.515,230.663,90.515Z" transform="translate(-55.578 -81.579)"/><path class="cls-11" d="M233.285,91.5a.993.993,0,0,0-.412-1.012c-.557-.355-1.058.224-1.316.753s-.033,1.007-.353,1.232-.882-.043-1.23,0-1.212.6-.112,1.548a1.88,1.88,0,0,0,2.568-.373c.17-.256.224-.538.446-.734s-.2-.252-.311-.127a2.842,2.842,0,0,0-.389.627,1.7,1.7,0,0,1-1.236.594c-.467.008-1.112-.234-1.2-.78s.7-.366.879-.29,1.215-.081,1.215-.978.551-1.192.92-1.133.235.762.129.863a.823.823,0,0,1-1.154.028l-.112.308a1.065,1.065,0,0,0,1.024.308A1.187,1.187,0,0,0,233.285,91.5Z" transform="translate(-55.578 -81.579)"/><path class="cls-12" d="M230.141,92.212a.962.962,0,0,1-.2-1.346c.016-.02.032-.04.049-.059.619-.848,1.767-.712,1.84-.328s-.2.75.126,1.232.986.424,1.267,1.135-.9,1.59-1.643.913-.123-1.131.076-1.237.279.086.17.251-.58.517.085.888,1.331-.426.931-.839-.5-.25-1-.779a1.255,1.255,0,0,1-.3-1.2.419.419,0,0,0-.638-.323c-.405.178-1.327.914-.461,1.655C230.443,92.174,230.469,92.329,230.141,92.212Z" transform="translate(-55.578 -81.579)"/><path class="cls-13" d="M233.428,91.439a.935.935,0,0,0-1.271.366c-.013.024-.026.049-.037.075-.516.9,1.055,1.437,1.164,1.033s-.035-.247-.227-.216-.879.053-.759-.686c.1-.641.893-.52,1.068-.361a.1.1,0,0,0,.148,0,.091.091,0,0,0,.017-.023C233.554,91.581,233.54,91.518,233.428,91.439Z" transform="translate(-55.578 -81.579)"/><path class="cls-7" d="M231.442,93.209s.519-.29.444-.745-.151-.358-.138-.27a.751.751,0,0,1-.046.623,1.042,1.042,0,0,1-.329.335C231.19,93.29,231.405,93.234,231.442,93.209Z" transform="translate(-55.578 -81.579)"/><path class="cls-13" d="M231.273,90.247s.405-.058.494.209.035.112-.089.03S231.012,90.343,231.273,90.247Z" transform="translate(-55.578 -81.579)"/><circle class="cls-14" cx="176.342" cy="11.175" r="2.049"/><path class="cls-8" d="M232.925,94.771a1.6,1.6,0,0,0,.115-1.237.586.586,0,0,0-1.019-.219s.028.076.168.086.452.072.513.327a1.65,1.65,0,0,1-.225,1.205A1.213,1.213,0,0,0,232.925,94.771Z" transform="translate(-55.578 -81.579)"/><path class="cls-9" d="M233,92.555s.324-.907-.35-1.28a2.819,2.819,0,0,1-.6-.24c-.17-.117-.375-.467-.831-.334s-.556.384-.538.507.283.781.1.987-.719.259-.916.514.369,1.087.979.659a1.251,1.251,0,0,1,1.3-.027c.2.04.707.153.773-.5s-.345-.414-.36-.242.025.487-.311.507-.577-.337-1.039-.2-.537.364-.745.316-.459-.32-.27-.437.805-.18.946-.646-.237-.845-.14-1.006a.471.471,0,0,1,.665-.02l.016.016a2.056,2.056,0,0,0,.813.412c.263.073.37.53.228.982S232.868,92.967,233,92.555Z" transform="translate(-55.578 -81.579)"/><path class="cls-10" d="M233.322,92.777a.6.6,0,0,0,.749-.206c.288-.423-.237-1.415-.792-1.175s-.567.11-.709-.022-.187-.412-.365-.592a.477.477,0,0,0-.672-.053.491.491,0,0,0-.109.135.959.959,0,0,0,.025,1.258c.331.4.582.687.037,1.058s-.961.592-.908.934.193.392.311.223-.072-.28.093-.458a6.324,6.324,0,0,0,.809-.641c.358-.4.212-.8-.109-1.152a.665.665,0,0,1-.014-.942h0l.014-.013c.211-.228.412-.215.649.457a.567.567,0,0,0,.7.264c.439-.188.718-.116.8.17s-.1.579-.557.55S233.322,92.777,233.322,92.777Z" transform="translate(-55.578 -81.579)"/><path class="cls-11" d="M231.935,90.73a.878.878,0,0,1,.954.144c.42.4.027.955-.373,1.286s-.858.237-.984.558.22.749.251,1.057-.26,1.165-1.3.419a1.663,1.663,0,0,1-.213-2.283c.185-.2.415-.3.538-.535s.258.121.173.241a2.547,2.547,0,0,1-.457.465,1.5,1.5,0,0,0-.253,1.185c.09.4.431.906.918.868s.168-.681.067-.814a.94.94,0,0,1,.588-1.246c.77-.186.909-.72.781-1.025s-.7-.043-.768.069a.725.725,0,0,0,.215,1l-.242.16s-.54-.317-.476-.816A1.043,1.043,0,0,1,231.935,90.73Z" transform="translate(-55.578 -81.579)"/><path class="cls-12" d="M231.974,93.577a.848.848,0,0,0,1.2-.109.547.547,0,0,0,.041-.054c.6-.707.244-1.664-.1-1.648s-.6.326-1.083.148-.569-.759-1.238-.853-1.178,1.1-.443,1.6,1-.129,1.046-.321-.132-.223-.251-.095-.324.605-.78.11.09-1.231.527-.973.318.375.876.695a1.111,1.111,0,0,0,1.094.013.37.37,0,0,1,.423.307.362.362,0,0,1-.014.173c-.068.385-.509,1.328-1.324.739C231.945,93.31,231.805,93.321,231.974,93.577Z" transform="translate(-55.578 -81.579)"/><path class="cls-15" d="M234.131,93.185a1.09,1.09,0,0,1-.5-.364A1,1,0,0,0,232.3,92.5a.811.811,0,0,0-.07,1.468s.177.045-.017-.175a.589.589,0,0,1-.012-.907.74.74,0,0,1,1.03-.037c.309.267.454.582.818.661A1.127,1.127,0,0,0,234.131,93.185Z" transform="translate(-55.578 -81.579)"/><path class="cls-13" d="M233.016,94.576a1.328,1.328,0,0,0,.9-1.42.626.626,0,0,0-.695-.545.423.423,0,0,0-.062.011A1.15,1.15,0,0,1,232,92.277a.674.674,0,0,0-1.08.09c-.42.495.007,2.037,1.086,1.777s.049.653-.122.633-.244-.058-.494-.271-.79-.874-1.412-.815c0,0-.055.048.111.223s.359-.076.962.517.813.806,1.5.126.025-.733-.129-.707-.73.2-1.058-.168a.924.924,0,0,1-.095-1.2c.275-.232.448-.151.669.114a1.335,1.335,0,0,0,1.233.281c.4-.128.7.423.318,1.1s-1.344.492-1.541.469a1.834,1.834,0,0,0-1.005.078.145.145,0,0,0-.034.2.152.152,0,0,0,.033.034.238.238,0,0,0,.169.06c.107-.023.021-.2,1.291-.149a1.581,1.581,0,0,0,.444-.045C232.9,94.612,232.961,94.6,233.016,94.576Z" transform="translate(-55.578 -81.579)"/><path class="cls-13" d="M231.956,90.6a.825.825,0,0,1-.05,1.166q-.029.025-.057.048c-.665.629-1.453-.608-1.129-.785s.22-.021.232.15.137.766.747.509c.529-.221.262-.874.088-.992a.093.093,0,0,1-.031-.127.146.146,0,0,1,.016-.019C231.808,90.517,231.864,90.516,231.956,90.6Z" transform="translate(-55.578 -81.579)"/><path class="cls-16" d="M230.848,92.668s.142-.506.548-.536.337.055.26.063a.669.669,0,0,0-.525.168.939.939,0,0,0-.22.354C230.83,92.9,230.834,92.7,230.848,92.668Z" transform="translate(-55.578 -81.579)"/><path class="cls-13" d="M233.425,92.2s-.033-.36-.282-.382-.1-.007-.007.082S233.4,92.441,233.425,92.2Z" transform="translate(-55.578 -81.579)"/><path class="cls-15" d="M230,89.733a1.227,1.227,0,0,0,.533.452,1.132,1.132,0,0,1,.71,1.38.917.917,0,0,1-1.6.467s-.1-.183.2-.028a.668.668,0,0,0,1-.228.836.836,0,0,0-.233-1.144c-.376-.269-.761-.345-.946-.724A1.254,1.254,0,0,1,230,89.733Z" transform="translate(-55.578 -81.579)"/><path class="cls-17" d="M228.764,91.331a1.505,1.505,0,0,1,1.323-1.372.71.71,0,0,1,.786.621c0,.023,0,.047,0,.07a1.3,1.3,0,0,0,.689,1.188.763.763,0,0,1,.188,1.213c-.433.594-2.244.534-2.244-.723s-.732.12-.665.3.129.253.43.472,1.172.637,1.273,1.337c0,0-.039.073-.275-.063s-.013-.414-.824-.922-1.1-.68-.537-1.611.8-.223.812-.047-.022.856.467,1.12a1.049,1.049,0,0,0,1.35-.215c.182-.364.046-.534-.305-.707a1.515,1.515,0,0,1-.636-1.282c.034-.472-.652-.659-1.3-.057s-.184,1.61-.106,1.82a2.078,2.078,0,0,1,.181,1.126.164.164,0,0,1-.214.092h0a.178.178,0,0,1-.045-.028.267.267,0,0,1-.112-.169c0-.125.215-.077-.179-1.461a1.807,1.807,0,0,1-.068-.5A1.731,1.731,0,0,1,228.764,91.331Z" transform="translate(-55.578 -81.579)"/><path class="cls-18" d="M230.646,90.137s.21.115.253.679a1.264,1.264,0,0,0,.683,1.027.732.732,0,0,1,.311.988h0c-.012.022-.024.043-.037.063a.769.769,0,0,0-.311-1.016,1.218,1.218,0,0,1-.707-1.072A1.2,1.2,0,0,0,230.646,90.137Z" transform="translate(-55.578 -81.579)"/><path class="cls-15" d="M233.019,90.668a.575.575,0,0,0-.687-.216s-.14.082.045.07a.7.7,0,0,1,.6.172C233.165,90.885,233.044,90.7,233.019,90.668Z" transform="translate(-55.578 -81.579)"/><path class="cls-19" d="M231.725,92.682a.434.434,0,0,0,.038-.421c-.115-.192-.061-.224,0-.182a.528.528,0,0,1,.165.437.747.747,0,0,1-.415.656C231.26,93.255,231.42,93.019,231.725,92.682Z" transform="translate(-55.578 -81.579)"/><path class="cls-19" d="M229.1,91.6s.229-.261.382-.192a.448.448,0,0,1,.2.344c.006.064.025.351.037.42s-.076.052-.082-.076,0-.573-.179-.6a.338.338,0,0,0-.337.146C229.076,91.7,229.069,91.637,229.1,91.6Z" transform="translate(-55.578 -81.579)"/><path class="cls-20" d="M234.128,92c.33,1.464-1.145,3.388-2.717,2.939-1.443-.41-2.866-1-2.866-2.5a3.062,3.062,0,0,1,2.792-3.027C232.837,89.413,233.893,90.955,234.128,92Z" transform="translate(-55.578 -81.579)"/><path class="cls-21" d="M232.78,89.956s-.173-.165-.275.015.094.2.188.22c0,0-.11.11.039.157s.369-.016.62.259a1.881,1.881,0,0,1,.47,1.474c-.164.43.267.8.188,1.074a1.832,1.832,0,0,1-.376.839c-.2.157-.416.392-.188.361a2.76,2.76,0,0,0,.729-1.8,1.81,1.81,0,0,0-.172-1.09,8.07,8.07,0,0,0-.6-.9A1.149,1.149,0,0,0,232.78,89.956Z" transform="translate(-55.578 -81.579)"/><path class="cls-21" d="M229.878,94.378s-.188-.165.024-.251.361.188.361.275.172.212.494.29.345-.039.51.008.423.266.682.22.329.039.141.07A4.722,4.722,0,0,1,229.878,94.378Z" transform="translate(-55.578 -81.579)"/><ellipse class="cls-21" cx="176.476" cy="8.851" rx="0.161" ry="0.145"/><path class="cls-22" d="M230.8,91.511a1.035,1.035,0,0,1-1,1.067h-.072a1.158,1.158,0,0,1-1.148-1.137,1.112,1.112,0,0,1,2.222.07Z" transform="translate(-55.578 -81.579)"/><circle class="cls-23" cx="174.151" cy="9.875" r="0.996"/><circle class="cls-24" cx="174.151" cy="9.906" r="0.901"/><circle class="cls-25" cx="174.151" cy="9.951" r="0.804"/><path class="cls-26" d="M228.892,91.986a3.947,3.947,0,0,1,1.15-1.451s.122-.038.217.117-1.139.964-.794,1.086,1.022-.8,1.239-.424c0,0,.069.165-.217.4a2.6,2.6,0,0,0-.6.727,1.509,1.509,0,0,1-.233.01,4.746,4.746,0,0,1,.77-.868c.222-.154.084-.254-.2-.021s-.9.53-.927.185.508-.8.625-.884.047-.128-.064-.028a3.279,3.279,0,0,0-.879,1.261A.6.6,0,0,1,228.892,91.986Z" transform="translate(-55.578 -81.579)"/><path class="cls-24" d="M228.892,91.986a4.98,4.98,0,0,1,.636-.981c.332-.361.5-.491.593-.463a.555.555,0,0,0-.07-.032c-.039-.014-.3.142-.618.516a4.638,4.638,0,0,0-.572.918Z" transform="translate(-55.578 -81.579)"/><path class="cls-27" d="M228.621,91.733a1.056,1.056,0,0,1,.6-1.25,1.069,1.069,0,0,1,1.381.345,1.137,1.137,0,0,0-1.381-.324A1.111,1.111,0,0,0,228.621,91.733Z" transform="translate(-55.578 -81.579)"/><path class="cls-22" d="M230.07,89.554a1.035,1.035,0,0,1,1.426.329h0c.013.02.025.041.036.062a1.156,1.156,0,0,1-.405,1.564,1.111,1.111,0,0,1-1.057-1.955Z" transform="translate(-55.578 -81.579)"/><circle class="cls-23" cx="174.984" cy="8.931" r="0.996"/><circle class="cls-24" cx="175.011" cy="8.916" r="0.901"/><circle class="cls-28" cx="175.05" cy="8.893" r="0.804"/><path class="cls-26" d="M231.444,90.965a3.948,3.948,0,0,1-1.833-.263.2.2,0,0,1-.008-.247c.084-.16,1.406.5,1.338.14s-1.2-.484-.989-.858c0,0,.107-.142.457-.015a2.589,2.589,0,0,0,.931.157,1.486,1.486,0,0,1,.126.2,4.748,4.748,0,0,1-1.137-.227c-.245-.115-.262.055.083.185s.911.512.626.708-.951-.035-1.079-.095-.133.022.009.068a3.264,3.264,0,0,0,1.532.125A.527.527,0,0,1,231.444,90.965Z" transform="translate(-55.578 -81.579)"/><path class="cls-24" d="M231.444,90.965a4.964,4.964,0,0,1-1.168-.055c-.479-.1-.679-.189-.7-.279a.67.67,0,0,0,.008.077,1.531,1.531,0,0,0,.757.274,4.656,4.656,0,0,0,1.081.033Z" transform="translate(-55.578 -81.579)"/><path class="cls-27" d="M231.361,91.328a1.056,1.056,0,0,1-1.38.113,1.068,1.068,0,0,1-.4-1.367A1.135,1.135,0,0,0,230,91.43,1.111,1.111,0,0,0,231.361,91.328Z" transform="translate(-55.578 -81.579)"/><path class="cls-22" d="M232.564,91.154a1.035,1.035,0,0,1-1.456.132l-.055-.048a1.156,1.156,0,0,1-.1-1.612,1.111,1.111,0,1,1,1.614,1.528Z" transform="translate(-55.578 -81.579)"/><circle class="cls-23" cx="176.221" cy="8.82" r="0.996"/><circle class="cls-24" cx="176.2" cy="8.843" r="0.901"/><circle class="cls-29" cx="176.17" cy="8.878" r="0.804"/><path class="cls-26" d="M230.819,90.243a3.945,3.945,0,0,1,1.823-.322.2.2,0,0,1,.085.231c-.031.179-1.492-.035-1.315.284s1.291.085,1.208.507c0,0-.057.168-.429.157a2.577,2.577,0,0,0-.934.141,1.427,1.427,0,0,1-.182-.147,4.752,4.752,0,0,1,1.151-.139c.269.033.233-.134-.137-.15s-1.023-.2-.815-.475.915-.264,1.055-.248.12-.063-.03-.061a3.267,3.267,0,0,0-1.5.357A.607.607,0,0,1,230.819,90.243Z" transform="translate(-55.578 -81.579)"/><path class="cls-24" d="M230.819,90.243a4.954,4.954,0,0,1,1.126-.312c.487-.049.7-.032.751.048a.643.643,0,0,0-.032-.071,1.534,1.534,0,0,0-.8-.025,4.587,4.587,0,0,0-1.038.307Z" transform="translate(-55.578 -81.579)"/><path class="cls-27" d="M230.785,89.871a1.057,1.057,0,0,1,1.276-.538,1.069,1.069,0,0,1,.8,1.176,1.136,1.136,0,0,0-.817-1.16A1.109,1.109,0,0,0,230.785,89.871Z" transform="translate(-55.578 -81.579)"/><path class="cls-30" d="M234.014,92.457a.909.909,0,0,1-1.669-.718c.3-.684.841-.969,1.3-.77A1.113,1.113,0,0,1,234.014,92.457Z" transform="translate(-55.578 -81.579)"/><circle class="cls-31" cx="177.564" cy="10.604" r="0.707"/><path class="cls-32" d="M232.512,91.431a1.681,1.681,0,0,1,1.368-.3l.068.074a2.182,2.182,0,0,0-1.518.36Z" transform="translate(-55.578 -81.579)"/><circle class="cls-33" cx="177.558" cy="10.596" r="0.51"/><path class="cls-34" d="M233.149,94.351a.908.908,0,1,1-.672-1.688h0c.7-.27,1.28-.09,1.465.376A1.113,1.113,0,0,1,233.149,94.351Z" transform="translate(-55.578 -81.579)"/><circle class="cls-31" cx="177.148" cy="11.963" r="0.707"/><path class="cls-35" d="M232.813,92.564a1.68,1.68,0,0,1,1.177.757l0,.1a2.18,2.18,0,0,0-1.327-.818Z" transform="translate(-55.578 -81.579)"/><path class="cls-36" d="M232.04,94.874s-1-.947-.763-1.893.563-.012.357.129-.128.522-.012.753.332.525.491.542S232.629,95.114,232.04,94.874Z" transform="translate(-55.578 -81.579)"/><path class="cls-37" d="M232.39,94.7s-.981-.6-.949-1.415.457-.107.313.043-.015.449.12.617.361.373.494.358S232.912,94.79,232.39,94.7Z" transform="translate(-55.578 -81.579)"/><path class="cls-38" d="M231.762,94.843s-.761-.628-.467-1.154.481.039.292.1-.161.291-.085.433.232.33.366.353S232.241,95.029,231.762,94.843Z" transform="translate(-55.578 -81.579)"/><path class="cls-38" d="M232.4,94.8s-.819-.819-.6-1.607.473,0,.3.116-.12.435-.028.632.267.449.4.467S232.89,95.018,232.4,94.8Z" transform="translate(-55.578 -81.579)"/><path class="cls-39" d="M230.012,92.154s.087-.149-.147-.1-.147.138-.147.138.055-.216-.089-.092a.486.486,0,0,0-.139.344s-.072-.263-.261-.055a.237.237,0,0,0-.032.335h0a.3.3,0,0,0,.025.025s-.055.141-.118.145,0,.164,0,.164l-.027.146s.027.175.16.2-.236.047-.223.14.218.131.218.131-.193.055-.006.2a.541.541,0,0,0,.423.079l-.095.1s.154.149.206.113.082.122.168.153.188-.116.188-.116.192.186.311.192.142-.165.142-.165.066.023.173-.063.239.063.274-.2-.137-.14-.137-.14.237.047.226-.07-.218-.192-.218-.192.273.015.19-.182a.3.3,0,0,0-.235-.2s.02-.081.033-.146-.178-.137-.178-.137.045.066-.039-.1a.478.478,0,0,0-.285-.223s.114-.13.043-.234-.295-.04-.295-.04S230.4,92.044,230.012,92.154Z" transform="translate(-55.578 -81.579)"/><path class="cls-40" d="M229.787,92.268a.078.078,0,0,1-.055.095h0a.079.079,0,0,1-.1-.055h0l-.059-.226a.077.077,0,0,1,.055-.095h0a.079.079,0,0,1,.095.055h0Z" transform="translate(-55.578 -81.579)"/><path class="cls-40" d="M229.973,92.319c-.011.019-.051.017-.088-.005h0c-.037-.022-.057-.055-.045-.075l.063-.106c.012-.02.051-.018.088,0h0c.038.022.057.055.046.075Z" transform="translate(-55.578 -81.579)"/><path class="cls-41" d="M229.746,92.3a.07.07,0,0,1,.022.094h0c-.016.039-.053.062-.082.05l-.156-.064a.07.07,0,0,1-.023-.093h0a.07.07,0,0,1,.083-.051Z" transform="translate(-55.578 -81.579)"/><path class="cls-40" d="M229.213,93.114a.077.077,0,0,1,.033.1h0a.076.076,0,0,1-.1.033h0l-.208-.107a.077.077,0,0,1-.034-.1h0a.077.077,0,0,1,.1-.034h0Z" transform="translate(-55.578 -81.579)"/><path class="cls-40" d="M229.375,93.009c.007.022-.021.05-.062.063h0c-.042.012-.08,0-.087-.016l-.037-.119c-.007-.022.021-.05.063-.062h0c.041-.013.08-.006.087.016Z" transform="translate(-55.578 -81.579)"/><path class="cls-41" d="M229.206,93.163c.027-.014.065.007.084.045h0a.069.069,0,0,1-.016.095l-.152.073c-.027.014-.066-.006-.084-.045h0a.07.07,0,0,1,.016-.095Z" transform="translate(-55.578 -81.579)"/><path class="cls-40" d="M229.726,93.456a.077.077,0,0,1-.055.095h0a.079.079,0,0,1-.095-.055l-.059-.226a.078.078,0,0,1,.055-.095h0a.078.078,0,0,1,.095.055Z" transform="translate(-55.578 -81.579)"/><path class="cls-40" d="M229.912,93.507c-.012.019-.051.017-.088-.005h0c-.037-.022-.057-.055-.045-.075l.063-.106c.012-.02.051-.018.088,0h0c.037.022.057.055.046.075Z" transform="translate(-55.578 -81.579)"/><path class="cls-41" d="M229.685,93.483a.069.069,0,0,1,.023.094h0c-.016.039-.053.062-.082.05l-.156-.063a.069.069,0,0,1-.023-.094h0c.016-.039.053-.062.082-.05Z" transform="translate(-55.578 -81.579)"/><path class="cls-40" d="M229.631,92.672a.079.079,0,0,1-.055.095h0a.078.078,0,0,1-.095-.055h0l-.06-.226a.079.079,0,0,1,.055-.1h0a.079.079,0,0,1,.095.055h0Z" transform="translate(-55.578 -81.579)"/><path class="cls-40" d="M229.817,92.722c-.012.02-.051.018-.088,0h0c-.037-.022-.057-.055-.045-.075l.063-.107c.012-.019.051-.018.088,0h0c.037.022.057.055.046.075Z" transform="translate(-55.578 -81.579)"/><path class="cls-41" d="M229.59,92.7a.069.069,0,0,1,.022.093h0c-.016.04-.053.063-.082.051l-.156-.064a.068.068,0,0,1-.023-.093h0a.07.07,0,0,1,.083-.051Z" transform="translate(-55.578 -81.579)"/><path class="cls-40" d="M230.626,92.786a.078.078,0,0,1-.11.013h0a.079.079,0,0,1-.013-.109h0l.144-.183a.078.078,0,0,1,.11-.013h0a.078.078,0,0,1,.013.11h0Z" transform="translate(-55.578 -81.579)"/><path class="cls-40" d="M230.7,92.965c-.023,0-.045-.03-.05-.073h0c0-.042.01-.079.033-.082l.123-.014c.023,0,.045.03.05.073h0c0,.043-.01.08-.033.083Z" transform="translate(-55.578 -81.579)"/><path class="cls-41" d="M230.579,92.77c.008.03-.02.063-.061.074h0a.07.07,0,0,1-.09-.034l-.043-.163c-.008-.03.019-.063.061-.074h0a.069.069,0,0,1,.09.034Z" transform="translate(-55.578 -81.579)"/><path class="cls-40" d="M230.354,93.471a.079.079,0,0,1-.108.023h0a.079.079,0,0,1-.023-.108h0l.127-.2a.079.079,0,0,1,.108-.023h0a.077.077,0,0,1,.023.107h0Z" transform="translate(-55.578 -81.579)"/><path class="cls-40" d="M230.442,93.643c-.022,0-.048-.026-.055-.069h0c-.008-.042,0-.079.025-.084l.122-.025c.022-.005.047.026.055.068h0c.008.042,0,.08-.025.084Z" transform="translate(-55.578 -81.579)"/><path class="cls-41" d="M230.306,93.459c.011.029-.013.064-.054.079h0a.069.069,0,0,1-.092-.026l-.058-.158c-.011-.029.013-.064.055-.079h0a.068.068,0,0,1,.092.026Z" transform="translate(-55.578 -81.579)"/><path class="cls-40" d="M230.544,94.088a.078.078,0,0,1-.055.1h0a.077.077,0,0,1-.095-.055h0l-.06-.226a.079.079,0,0,1,.055-.095h0a.078.078,0,0,1,.095.055Z" transform="translate(-55.578 -81.579)"/><path class="cls-40" d="M230.73,94.139c-.012.02-.051.018-.088,0h0c-.037-.023-.057-.055-.046-.076l.064-.106c.011-.019.051-.018.087,0h0c.038.022.058.055.046.076Z" transform="translate(-55.578 -81.579)"/><path class="cls-41" d="M230.5,94.116a.07.07,0,0,1,.023.093h0c-.016.04-.053.063-.082.051l-.156-.064a.068.068,0,0,1-.023-.093h0c.016-.04.053-.063.082-.051Z" transform="translate(-55.578 -81.579)"/><path class="cls-40" d="M229.92,94a.078.078,0,0,1-.109.018h0a.078.078,0,0,1-.017-.108v0h0l.137-.188a.078.078,0,0,1,.109-.018h0a.078.078,0,0,1,.018.109h0Z" transform="translate(-55.578 -81.579)"/><path class="cls-40" d="M230,94.181c-.022,0-.046-.029-.052-.071h0c-.006-.043.007-.08.03-.083l.122-.017c.023,0,.047.027.052.071h0c.007.043-.007.08-.029.082Z" transform="translate(-55.578 -81.579)"/><path class="cls-41" d="M229.874,93.99c.009.029-.017.064-.059.076h0a.071.071,0,0,1-.091-.031l-.048-.162c-.009-.029.017-.063.058-.076h0a.07.07,0,0,1,.091.031Z" transform="translate(-55.578 -81.579)"/><path class="cls-40" d="M229.268,93.791a.077.077,0,0,1,.083.072h0a.079.079,0,0,1-.072.082h0l-.234.017a.077.077,0,0,1-.082-.072h0a.077.077,0,0,1,.072-.082h0Z" transform="translate(-55.578 -81.579)"/><path class="cls-40" d="M229.353,93.618c.017.014.007.053-.021.085h0c-.028.032-.065.046-.082.031l-.094-.082c-.017-.015-.007-.054.021-.086h0c.027-.032.065-.046.082-.031Z" transform="translate(-55.578 -81.579)"/><path class="cls-41" d="M229.288,93.837a.07.07,0,0,1,.1-.005h0a.07.07,0,0,1,.035.089l-.091.142a.07.07,0,0,1-.1,0h0a.069.069,0,0,1-.036-.089Z" transform="translate(-55.578 -81.579)"/><path class="cls-40" d="M230.875,93.3a.078.078,0,0,1-.11,0h0a.078.078,0,0,1,0-.11l.161-.17a.077.077,0,0,1,.109,0h0a.079.079,0,0,1,0,.11Z" transform="translate(-55.578 -81.579)"/><path class="cls-40" d="M230.93,93.489c-.022,0-.041-.034-.042-.077h0c0-.043.017-.078.04-.079l.123,0c.023,0,.042.034.043.077h0c0,.043-.017.078-.04.079Z" transform="translate(-55.578 -81.579)"/><path class="cls-41" d="M230.83,93.282c0,.031-.025.062-.067.069h0c-.042.007-.083-.012-.086-.042l-.028-.166c0-.031.025-.061.067-.069h0a.071.071,0,0,1,.087.043Z" transform="translate(-55.578 -81.579)"/><path class="cls-40" d="M230.959,93.818a.079.079,0,0,1-.055.1h0a.079.079,0,0,1-.1-.055l-.059-.226a.078.078,0,0,1,.055-.095h0a.078.078,0,0,1,.095.055Z" transform="translate(-55.578 -81.579)"/><path class="cls-40" d="M231.145,93.868c-.012.02-.051.018-.088,0h0c-.036-.022-.057-.055-.045-.075l.063-.107c.012-.019.051-.017.088,0h0c.037.022.058.055.046.075Z" transform="translate(-55.578 -81.579)"/><path class="cls-41" d="M230.918,93.846a.069.069,0,0,1,.022.093h0c-.016.04-.052.063-.082.051l-.156-.064a.069.069,0,0,1-.022-.093h0c.016-.04.052-.063.082-.051Z" transform="translate(-55.578 -81.579)"/><path class="cls-40" d="M229.952,93.1a.077.077,0,0,1-.1.043h0a.079.079,0,0,1-.043-.1h0l.089-.216a.078.078,0,0,1,.1-.043h0a.078.078,0,0,1,.043.1h0Z" transform="translate(-55.578 -81.579)"/><path class="cls-40" d="M230.071,93.249c-.022.008-.052-.017-.068-.057h0c-.016-.039-.013-.079.009-.087l.114-.047c.021-.009.052.017.068.056h0c.016.04.013.079-.009.088Z" transform="translate(-55.578 -81.579)"/><path class="cls-41" d="M229.9,93.093a.07.07,0,0,1-.038.088h0a.069.069,0,0,1-.095-.008l-.087-.145c-.016-.027,0-.066.038-.088h0a.071.071,0,0,1,.1.008Z" transform="translate(-55.578 -81.579)"/><path class="cls-40" d="M230.146,92.571a.078.078,0,0,1-.11-.006h0a.078.078,0,0,1,0-.11h0l.174-.156a.079.079,0,0,1,.11,0h0a.078.078,0,0,1-.006.11h0Z" transform="translate(-55.578 -81.579)"/><path class="cls-40" d="M230.187,92.76c-.023,0-.039-.038-.036-.081h0c0-.042.023-.076.045-.075l.124.008c.023,0,.039.038.037.08h0c0,.043-.024.077-.047.076Z" transform="translate(-55.578 -81.579)"/><path class="cls-41" d="M230.1,92.547c0,.031-.029.059-.072.062h0c-.043,0-.08-.018-.082-.048l-.015-.168c0-.031.03-.059.073-.063h0c.042,0,.079.018.082.049Z" transform="translate(-55.578 -81.579)"/><path class="cls-39" d="M230.62,94.949s-.082.135.132.1.137-.124.137-.124-.055.2.079.086a.443.443,0,0,0,.134-.31s.06.24.236.055a.216.216,0,0,0,.036-.3h0a.17.17,0,0,0-.022-.024s.055-.127.109-.129,0-.151,0-.151l.028-.132s-.021-.16-.142-.181.215-.038.206-.123-.2-.124-.2-.124.176-.046.01-.177a.492.492,0,0,0-.385-.08l.088-.092s-.138-.139-.184-.108-.074-.111-.15-.141-.173.1-.173.1-.171-.174-.28-.183-.132.148-.132.148-.059-.022-.158.054-.216-.063-.254.173.122.13.122.13-.215-.048-.208.059.195.178.195.178-.248-.019-.176.162a.276.276,0,0,0,.21.192s-.02.073-.033.132.159.127.159.127-.04-.061.033.1a.443.443,0,0,0,.255.208s-.107.116-.044.212.267.042.267.042S230.269,95.042,230.62,94.949Z" transform="translate(-55.578 -81.579)"/><path class="cls-40" d="M230.827,94.85a.071.071,0,0,1,.053-.085h0a.071.071,0,0,1,.085.053l.05.206a.073.073,0,0,1-.053.086h0a.071.071,0,0,1-.085-.053Z" transform="translate(-55.578 -81.579)"/><path class="cls-40" d="M230.659,94.8c.011-.018.047-.016.08,0h0c.033.021.051.052.04.07l-.06.095c-.011.018-.047.015-.08-.006h0c-.033-.02-.051-.052-.04-.069Z" transform="translate(-55.578 -81.579)"/><path class="cls-41" d="M230.865,94.826a.061.061,0,0,1-.019-.085h0a.064.064,0,0,1,.075-.045l.141.061a.063.063,0,0,1,.018.086h0a.063.063,0,0,1-.075.044Z" transform="translate(-55.578 -81.579)"/><path class="cls-40" d="M231.368,94.093a.071.071,0,0,1-.027-.1h0a.069.069,0,0,1,.095-.027h0l.188.1a.071.071,0,0,1,.027.1h0a.071.071,0,0,1-.1.027h0Z" transform="translate(-55.578 -81.579)"/><path class="cls-40" d="M231.216,94.185c-.006-.02.02-.045.058-.055h0c.037-.011.073,0,.078.017l.031.108c.006.02-.02.045-.058.055h0c-.037.011-.072,0-.078-.017Z" transform="translate(-55.578 -81.579)"/><path class="cls-41" d="M231.374,94.049a.064.064,0,0,1-.076-.044h0a.063.063,0,0,1,.017-.085l.139-.064c.026-.012.06.008.076.043h0a.063.063,0,0,1-.017.086Z" transform="translate(-55.578 -81.579)"/><path class="cls-40" d="M230.906,93.771a.071.071,0,0,1,.053-.085h0a.07.07,0,0,1,.085.052l.05.207a.072.072,0,0,1-.053.086h0a.071.071,0,0,1-.085-.053h0Z" transform="translate(-55.578 -81.579)"/><path class="cls-40" d="M230.738,93.721c.011-.017.047-.014.08.006h0c.033.021.051.052.04.07l-.06.095c-.011.018-.047.015-.08,0h0c-.033-.021-.051-.052-.04-.07Z" transform="translate(-55.578 -81.579)"/><path class="cls-41" d="M230.944,93.748a.065.065,0,0,1-.019-.086h0a.064.064,0,0,1,.076-.044l.14.061a.063.063,0,0,1,.019.085h0a.065.065,0,0,1-.075.045Z" transform="translate(-55.578 -81.579)"/><path class="cls-40" d="M230.978,94.487a.072.072,0,0,1,.052-.086h0a.07.07,0,0,1,.085.052h0l.05.206a.071.071,0,0,1-.052.086h0a.072.072,0,0,1-.086-.053h0Z" transform="translate(-55.578 -81.579)"/><path class="cls-40" d="M230.809,94.437c.011-.018.047-.015.08.006h0c.033.02.051.051.04.069l-.06.095c-.011.018-.047.015-.08,0h0c-.033-.021-.051-.052-.04-.07Z" transform="translate(-55.578 -81.579)"/><path class="cls-41" d="M231.015,94.463a.063.063,0,0,1-.018-.086h0a.063.063,0,0,1,.075-.044l.14.061a.063.063,0,0,1,.019.085h0a.065.065,0,0,1-.075.045Z" transform="translate(-55.578 -81.579)"/><path class="cls-40" d="M230.075,94.362a.071.071,0,0,1,.1-.01h0a.07.07,0,0,1,.01.1h0l-.137.163a.07.07,0,0,1-.1.01h0a.071.071,0,0,1-.01-.1h0Z" transform="translate(-55.578 -81.579)"/><path class="cls-40" d="M230.014,94.2c.02,0,.04.027.043.067h0c0,.039-.01.072-.031.074l-.112.01c-.021,0-.04-.028-.044-.068h0c0-.039.011-.072.031-.074Z" transform="translate(-55.578 -81.579)"/><path class="cls-41" d="M230.117,94.378c-.006-.027.019-.057.057-.066h0a.063.063,0,0,1,.081.033l.036.149c.007.027-.019.057-.057.066h0a.064.064,0,0,1-.081-.033Z" transform="translate(-55.578 -81.579)"/><path class="cls-40" d="M230.336,93.745a.071.071,0,0,1,.1-.018h0a.071.071,0,0,1,.019.1l-.119.176a.072.072,0,0,1-.1.019h0a.072.072,0,0,1-.019-.1Z" transform="translate(-55.578 -81.579)"/><path class="cls-40" d="M230.259,93.587c.021,0,.043.025.05.063h0c.007.038,0,.073-.024.076l-.11.02c-.021,0-.043-.025-.05-.062h0c-.007-.039,0-.073.024-.077Z" transform="translate(-55.578 -81.579)"/><path class="cls-41" d="M230.379,93.757c-.009-.027.014-.058.05-.071h0a.064.064,0,0,1,.083.025l.05.145c.009.028-.014.059-.051.071h0a.062.062,0,0,1-.082-.025Z" transform="translate(-55.578 -81.579)"/><path class="cls-40" d="M230.176,93.18a.07.07,0,0,1,.052-.085h0a.071.071,0,0,1,.086.052l.049.207a.07.07,0,0,1-.053.085h0a.07.07,0,0,1-.085-.052Z" transform="translate(-55.578 -81.579)"/><path class="cls-40" d="M230.007,93.132c.011-.018.047-.015.081,0h0c.033.021.05.052.039.07l-.059.1c-.011.018-.047.015-.08-.006h0c-.033-.02-.051-.051-.04-.069Z" transform="translate(-55.578 -81.579)"/><path class="cls-41" d="M230.214,93.156a.063.063,0,0,1-.019-.085h0a.065.065,0,0,1,.076-.045l.14.061a.065.065,0,0,1,.019.086h0c-.016.035-.049.055-.075.044Z" transform="translate(-55.578 -81.579)"/><path class="cls-40" d="M230.741,93.269a.07.07,0,0,1,.1-.013h0a.072.072,0,0,1,.013.1l-.13.168a.07.07,0,0,1-.1.013h0a.07.07,0,0,1-.012-.1Z" transform="translate(-55.578 -81.579)"/><path class="cls-40" d="M230.674,93.107c.02,0,.041.027.045.066h0c0,.038-.008.072-.027.075l-.112.013c-.02,0-.041-.027-.045-.066h0c0-.038.008-.072.027-.075Z" transform="translate(-55.578 -81.579)"/><path class="cls-41" d="M230.783,93.283c-.007-.027.018-.057.055-.068h0a.064.064,0,0,1,.083.03l.041.148c.007.027-.017.058-.055.068h0a.064.064,0,0,1-.083-.03Z" transform="translate(-55.578 -81.579)"/><path class="cls-40" d="M231.329,93.475a.071.071,0,0,1-.074-.067h0a.069.069,0,0,1,.066-.074h0l.212-.011a.071.071,0,0,1,.074.067h0a.07.07,0,0,1-.066.074h0Z" transform="translate(-55.578 -81.579)"/><path class="cls-40" d="M231.249,93.632c-.015-.014-.006-.049.021-.078h0c.027-.029.06-.041.075-.027l.083.076c.015.014.006.049-.021.078h0c-.027.028-.06.04-.075.027Z" transform="translate(-55.578 -81.579)"/><path class="cls-41" d="M231.313,93.434a.065.065,0,0,1-.088,0h0a.065.065,0,0,1-.03-.083l.086-.126a.062.062,0,0,1,.087,0h0a.062.062,0,0,1,.03.082Z" transform="translate(-55.578 -81.579)"/><path class="cls-40" d="M229.859,93.887a.071.071,0,0,1,.1,0h0a.072.072,0,0,1,0,.1h0l-.15.152a.072.072,0,0,1-.1,0h0a.071.071,0,0,1,0-.1h0Z" transform="translate(-55.578 -81.579)"/><path class="cls-40" d="M229.812,93.718c.021,0,.038.032.038.071h0c0,.039-.017.071-.038.071H229.7c-.021,0-.037-.032-.037-.072h0c0-.039.017-.07.037-.07Z" transform="translate(-55.578 -81.579)"/><path class="cls-41" d="M229.9,93.907c0-.028.024-.055.063-.061h0a.064.064,0,0,1,.077.04l.023.152c0,.027-.024.055-.063.061h0c-.039,0-.074-.013-.078-.041Z" transform="translate(-55.578 -81.579)"/><path class="cls-40" d="M229.793,93.418a.07.07,0,0,1,.052-.085h0a.072.072,0,0,1,.086.052h0l.049.207a.07.07,0,0,1-.052.085h0a.07.07,0,0,1-.085-.052h0Z" transform="translate(-55.578 -81.579)"/><path class="cls-40" d="M229.624,93.368c.011-.017.047-.015.08.006h0c.034.021.052.052.041.069l-.06.1c-.011.017-.047.015-.08-.006h0c-.034-.021-.051-.052-.04-.07Z" transform="translate(-55.578 -81.579)"/><path class="cls-41" d="M229.83,93.394a.063.063,0,0,1-.019-.085h0a.065.065,0,0,1,.075-.045l.141.061a.064.064,0,0,1,.019.085h0a.066.066,0,0,1-.076.045Z" transform="translate(-55.578 -81.579)"/><path class="cls-40" d="M230.693,94.093a.071.071,0,0,1,.094-.036h0a.07.07,0,0,1,.037.092h0l-.085.194a.07.07,0,0,1-.092.037h0a.072.072,0,0,1-.037-.093h0Z" transform="translate(-55.578 -81.579)"/><path class="cls-40" d="M230.589,93.953c.019-.008.046.016.06.052h0c.014.037.01.073-.01.08l-.105.04c-.019.008-.046-.016-.06-.052h0c-.014-.037-.01-.073.009-.08Z" transform="translate(-55.578 -81.579)"/><path class="cls-41" d="M230.738,94.1c-.014-.025,0-.06.037-.08h0a.063.063,0,0,1,.086.01l.076.133a.063.063,0,0,1-.036.079h0a.063.063,0,0,1-.087-.009Z" transform="translate(-55.578 -81.579)"/><path class="cls-40" d="M230.507,94.568a.07.07,0,0,1,.1.007h0a.069.069,0,0,1-.007.1h0l-.161.138a.072.072,0,0,1-.1-.007h0a.07.07,0,0,1,.007-.1h0Z" transform="translate(-55.578 -81.579)"/><path class="cls-40" d="M230.474,94.4c.021,0,.035.035.032.074h0c0,.039-.023.069-.044.068l-.112-.01c-.02,0-.035-.035-.031-.074h0c0-.039.022-.069.043-.067Z" transform="translate(-55.578 -81.579)"/><path class="cls-41" d="M230.546,94.59c0-.027.027-.053.067-.055h0c.039,0,.072.019.074.047l.01.153c0,.027-.027.053-.067.055h0c-.039,0-.072-.019-.074-.047Z" transform="translate(-55.578 -81.579)"/><path class="cls-35" d="M231.237,91.79l-.113.075a.1.1,0,0,0-.028.141h0a.109.109,0,0,0,.039.035h0a.1.1,0,0,0,.137-.045h0a.1.1,0,0,0,.01-.052l-.008-.135a.026.026,0,0,0-.027-.024A.023.023,0,0,0,231.237,91.79Z" transform="translate(-55.578 -81.579)"/><path class="cls-35" d="M231.166,92.254l-.113.075a.1.1,0,0,0-.028.141h0a.116.116,0,0,0,.039.034h0a.1.1,0,0,0,.137-.044h0a.116.116,0,0,0,.011-.052l-.008-.135a.029.029,0,0,0-.028-.025A.024.024,0,0,0,231.166,92.254Z" transform="translate(-55.578 -81.579)"/><path class="cls-35" d="M231.78,92.128l-.036.131a.1.1,0,0,0,.072.125h0a.092.092,0,0,0,.052,0h0a.1.1,0,0,0,.074-.123h0a.1.1,0,0,0-.026-.046l-.094-.1a.028.028,0,0,0-.038,0Z" transform="translate(-55.578 -81.579)"/><path class="cls-35" d="M230.968,91.873l-.061.122a.1.1,0,0,0,.046.137h0a.111.111,0,0,0,.051.01h0a.1.1,0,0,0,.1-.108h0a.109.109,0,0,0-.016-.05l-.074-.113a.028.028,0,0,0-.039-.006l-.007.008Z" transform="translate(-55.578 -81.579)"/><path class="cls-35" d="M231.4,91.733l-.094-.1a.1.1,0,0,0-.145,0,.115.115,0,0,0-.027.045v0a.1.1,0,0,0,.069.126.1.1,0,0,0,.053,0l.132-.031a.027.027,0,0,0,.019-.032Z" transform="translate(-55.578 -81.579)"/><path class="cls-35" d="M231.481,92.514l.134-.023a.1.1,0,0,0,.084-.117.1.1,0,0,0-.022-.048l0,0a.1.1,0,0,0-.143-.014.093.093,0,0,0-.031.042l-.049.127a.028.028,0,0,0,.015.034Z" transform="translate(-55.578 -81.579)"/><path class="cls-35" d="M231.617,91.828l.061.121a.1.1,0,0,0,.136.046.086.086,0,0,0,.039-.034l0,0a.1.1,0,0,0-.077-.158l-.137-.011a.028.028,0,0,0-.027.028l0,.011Z" transform="translate(-55.578 -81.579)"/><path class="cls-35" d="M231.428,91.986l-.113.076a.1.1,0,0,0-.027.141.1.1,0,0,0,.039.034l0,0a.1.1,0,0,0,.137-.045h0a.1.1,0,0,0,.011-.051l-.008-.136a.029.029,0,0,0-.028-.024A.033.033,0,0,0,231.428,91.986Z" transform="translate(-55.578 -81.579)"/><path class="cls-35" d="M231.535,91.575l-.113.075a.1.1,0,0,0-.027.141h0a.1.1,0,0,0,.039.035h0a.1.1,0,0,0,.137-.045h0a.1.1,0,0,0,.011-.051l-.008-.136a.028.028,0,0,0-.029-.024Z" transform="translate(-55.578 -81.579)"/><circle class="cls-33" cx="177.131" cy="11.984" r="0.51"/><path class="cls-42" d="M207.563,88.89a1.216,1.216,0,0,0-.8.775v0a1.522,1.522,0,0,0,1.1-.055,1.212,1.212,0,0,0,.8-.775v0A1.527,1.527,0,0,0,207.563,88.89Z" transform="translate(-55.578 -81.579)"/><path class="cls-42" d="M206.137,89.2a.979.979,0,0,1,.595.678h0a1.233,1.233,0,0,1-.879-.118.977.977,0,0,1-.595-.678h0A1.233,1.233,0,0,1,206.137,89.2Z" transform="translate(-55.578 -81.579)"/><ellipse class="cls-43" cx="151.188" cy="8.806" rx="0.231" ry="1.075"/><ellipse class="cls-43" cx="151.148" cy="13.122" rx="0.439" ry="0.21"/><path class="cls-44" d="M208.567,89.858a1.526,1.526,0,0,0-.465-.072,1.5,1.5,0,0,0-1.1.449c-.012.013-.025.023-.038.035a.375.375,0,0,1-.491,0,.414.414,0,0,1-.038-.035,1.494,1.494,0,0,0-1.1-.449,1.526,1.526,0,0,0-.465.072,2.386,2.386,0,0,0-1.589,2.416c0,1.973,2.637,2.507,2.637,2.507l.2.041a.883.883,0,0,0,.153.016.489.489,0,0,0,.357-.147l.015-.012a.12.12,0,0,1,.155,0l.015.012a.489.489,0,0,0,.357.147,1.581,1.581,0,0,0,.169-.012l.207-.05s2.606-.529,2.606-2.5A2.386,2.386,0,0,0,208.567,89.858Z" transform="translate(-55.578 -81.579)"/><text class="cls-45" transform="translate(143.15 12.962)">F</text><text class="cls-46" transform="translate(143.15 12.962)">F</text><text class="cls-47" transform="translate(155.163 12.962)">ODC</text><text class="cls-48" transform="translate(155.163 12.962)">ODC</text><text class="cls-49" transform="translate(179.697 12.962)">RP</text><text class="cls-50" transform="translate(179.697 12.962)">RP</text><rect class="cls-51" x="18.497" y="35.068" width="44.226" height="12.599" rx="3"/><text class="cls-52" transform="translate(26.672 44.802)">S<tspan class="cls-53" x="5.375" y="0">ea</tspan><tspan class="cls-54" x="15.978" y="0">r</tspan><tspan class="cls-55" x="19.571" y="0">ch</tspan></text><text class="cls-56" transform="translate(5.558 27.736)">John Dough</text><polygon class="cls-57" points="11.548 31.163 11.548 116.655 186.022 116.655 186.022 23.391 75.709 23.391 73.202 30.661 11.548 31.163"/><g id="Icons"><path class="cls-58" d="M96.188,136.4a2.6,2.6,0,0,0-2.6,2.6c0,.054,0,.108,0,.162a2.594,2.594,0,0,0,.119.633,2.243,2.243,0,0,0,.277.578l1.91,2.862a.348.348,0,0,0,.29.155.361.361,0,0,0,.3-.175l1.916-2.869c.017-.027.035-.054.051-.082a2.378,2.378,0,0,0,.235-.559,2.605,2.605,0,0,0-2.5-3.306Zm-1.113,2.938a1.116,1.116,0,1,1,1.184,1.044l-.072,0A1.116,1.116,0,0,1,95.075,139.341Zm1.431-2.313a1.723,1.723,0,0,1,1.369.782.126.126,0,0,1-.037.176.124.124,0,0,1-.069.021.129.129,0,0,1-.107-.058,1.468,1.468,0,0,0-1.167-.667.126.126,0,0,1-.121-.132A.123.123,0,0,1,96.506,137.028Zm1.518,1.911h0a.128.128,0,0,1-.122-.133,1.457,1.457,0,0,0-.054-.461.127.127,0,1,1,.244-.07,1.7,1.7,0,0,1,.064.542A.128.128,0,0,1,98.024,138.939Z" transform="translate(-55.578 -81.579)"/><path class="cls-58" d="M96.188,144.211c-.575,0-1.194.147-1.194.47s.619.47,1.194.47,1.194-.147,1.194-.47S96.763,144.211,96.188,144.211Z" transform="translate(-55.578 -81.579)"/></g><text class="cls-59" transform="translate(48.381 63.118)">Company A, 1st St., Los Altos, CA, 94000</text><g id="Icons-2" data-name="Icons"><path class="cls-58" d="M96.188,178.891a2.6,2.6,0,0,0-2.6,2.6c0,.054,0,.108,0,.162a2.594,2.594,0,0,0,.119.633,2.243,2.243,0,0,0,.277.578l1.91,2.862a.348.348,0,0,0,.29.155.361.361,0,0,0,.3-.175l1.916-2.869c.017-.027.035-.054.051-.082a2.378,2.378,0,0,0,.235-.559,2.605,2.605,0,0,0-2.5-3.306Zm-1.113,2.938a1.116,1.116,0,1,1,1.184,1.044l-.072,0A1.116,1.116,0,0,1,95.075,181.829Zm1.431-2.313a1.723,1.723,0,0,1,1.369.782.126.126,0,0,1-.037.176.124.124,0,0,1-.069.021.129.129,0,0,1-.107-.058,1.464,1.464,0,0,0-1.167-.666.127.127,0,0,1-.121-.133A.123.123,0,0,1,96.506,179.516Zm1.518,1.911h0a.128.128,0,0,1-.122-.133,1.457,1.457,0,0,0-.054-.461.127.127,0,1,1,.244-.07,1.7,1.7,0,0,1,.064.542A.128.128,0,0,1,98.024,181.427Z" transform="translate(-55.578 -81.579)"/><path class="cls-58" d="M96.188,186.7c-.575,0-1.194.147-1.194.47s.619.47,1.194.47,1.194-.147,1.194-.47S96.763,186.7,96.188,186.7Z" transform="translate(-55.578 -81.579)"/></g><text class="cls-59" transform="translate(48.381 105.606)">Company B, Mountain View, CA, ...</text><g id="Icons-3" data-name="Icons"><path class="cls-58" d="M96.188,157.647a2.6,2.6,0,0,0-2.6,2.6c0,.054,0,.108,0,.162a2.594,2.594,0,0,0,.119.633,2.243,2.243,0,0,0,.277.578l1.91,2.862a.348.348,0,0,0,.29.155.361.361,0,0,0,.3-.175l1.916-2.869c.017-.027.035-.054.051-.082a2.378,2.378,0,0,0,.235-.559,2.605,2.605,0,0,0-2.5-3.306Zm-1.113,2.938a1.116,1.116,0,1,1,1.184,1.044l-.072,0A1.116,1.116,0,0,1,95.075,160.585Zm1.431-2.313a1.723,1.723,0,0,1,1.369.782.126.126,0,0,1-.037.176.124.124,0,0,1-.069.021.129.129,0,0,1-.107-.058,1.464,1.464,0,0,0-1.167-.666.127.127,0,0,1-.121-.133A.123.123,0,0,1,96.506,158.272Zm1.518,1.911h0a.128.128,0,0,1-.122-.133,1.457,1.457,0,0,0-.054-.461.127.127,0,1,1,.244-.07,1.7,1.7,0,0,1,.064.542A.128.128,0,0,1,98.024,160.183Z" transform="translate(-55.578 -81.579)"/><path class="cls-58" d="M96.188,165.455c-.575,0-1.194.147-1.194.47s.619.47,1.194.47,1.194-.147,1.194-.47S96.763,165.455,96.188,165.455Z" transform="translate(-55.578 -81.579)"/></g><text class="cls-59" transform="translate(48.381 84.362)">Community Pickup, Main St., Sunny<tspan class="cls-60" x="101.009" y="0">v</tspan><tspan x="104.554" y="0">ale, ...</tspan></text></svg>