<svg id="Layer_1" data-name="Layer 1" xmlns="http://www.w3.org/2000/svg" viewBox="0 0 140.747 52.076"><defs><style>.cls-1{fill:#ff7217;}.cls-2{font-size:5px;font-family:TitanOne, Titan One;letter-spacing:0.05em;}.cls-3{letter-spacing:0.03em;}</style></defs><title>searchScreenResult</title><g id="Icons"><path class="cls-1" d="M96.188,136.4a2.6,2.6,0,0,0-2.6,2.6c0,.054,0,.108,0,.162a2.594,2.594,0,0,0,.119.633,2.243,2.243,0,0,0,.277.578l1.91,2.862a.348.348,0,0,0,.29.155.361.361,0,0,0,.3-.175l1.916-2.869c.017-.027.035-.054.051-.082a2.378,2.378,0,0,0,.235-.559,2.605,2.605,0,0,0-2.5-3.306Zm-1.113,2.938a1.116,1.116,0,1,1,1.184,1.044l-.072,0A1.116,1.116,0,0,1,95.075,139.341Zm1.431-2.313a1.723,1.723,0,0,1,1.369.782.126.126,0,0,1-.037.176.124.124,0,0,1-.069.021.129.129,0,0,1-.107-.058,1.468,1.468,0,0,0-1.167-.667.126.126,0,0,1-.121-.132A.123.123,0,0,1,96.506,137.028Zm1.518,1.911h0a.128.128,0,0,1-.122-.133,1.457,1.457,0,0,0-.054-.461.127.127,0,1,1,.244-.07,1.7,1.7,0,0,1,.064.542A.128.128,0,0,1,98.024,138.939Z" transform="translate(-93.587 -136.403)"/><path class="cls-1" d="M96.188,144.211c-.575,0-1.194.147-1.194.47s.619.47,1.194.47,1.194-.147,1.194-.47S96.763,144.211,96.188,144.211Z" transform="translate(-93.587 -136.403)"/></g><text class="cls-2" transform="translate(10.373 8.294)">Company A, 1st St., Los Altos, CA, 94000</text><g id="Icons-2" data-name="Icons"><path class="cls-1" d="M96.188,178.891a2.6,2.6,0,0,0-2.6,2.6c0,.054,0,.108,0,.162a2.594,2.594,0,0,0,.119.633,2.243,2.243,0,0,0,.277.578l1.91,2.862a.348.348,0,0,0,.29.155.361.361,0,0,0,.3-.175l1.916-2.869c.017-.027.035-.054.051-.082a2.378,2.378,0,0,0,.235-.559,2.605,2.605,0,0,0-2.5-3.306Zm-1.113,2.938a1.116,1.116,0,1,1,1.184,1.044l-.072,0A1.116,1.116,0,0,1,95.075,181.829Zm1.431-2.313a1.723,1.723,0,0,1,1.369.782.126.126,0,0,1-.037.176.124.124,0,0,1-.069.021.129.129,0,0,1-.107-.058,1.464,1.464,0,0,0-1.167-.666.127.127,0,0,1-.121-.133A.123.123,0,0,1,96.506,179.516Zm1.518,1.911h0a.128.128,0,0,1-.122-.133,1.457,1.457,0,0,0-.054-.461.127.127,0,1,1,.244-.07,1.7,1.7,0,0,1,.064.542A.128.128,0,0,1,98.024,181.427Z" transform="translate(-93.587 -136.403)"/><path class="cls-1" d="M96.188,186.7c-.575,0-1.194.147-1.194.47s.619.47,1.194.47,1.194-.147,1.194-.47S96.763,186.7,96.188,186.7Z" transform="translate(-93.587 -136.403)"/></g><text class="cls-2" transform="translate(10.373 50.783)">Company B, Mountain View, CA, ...</text><g id="Icons-3" data-name="Icons"><path class="cls-1" d="M96.188,157.647a2.6,2.6,0,0,0-2.6,2.6c0,.054,0,.108,0,.162a2.594,2.594,0,0,0,.119.633,2.243,2.243,0,0,0,.277.578l1.91,2.862a.348.348,0,0,0,.29.155.361.361,0,0,0,.3-.175l1.916-2.869c.017-.027.035-.054.051-.082a2.378,2.378,0,0,0,.235-.559,2.605,2.605,0,0,0-2.5-3.306Zm-1.113,2.938a1.116,1.116,0,1,1,1.184,1.044l-.072,0A1.116,1.116,0,0,1,95.075,160.585Zm1.431-2.313a1.723,1.723,0,0,1,1.369.782.126.126,0,0,1-.037.176.124.124,0,0,1-.069.021.129.129,0,0,1-.107-.058,1.464,1.464,0,0,0-1.167-.666.127.127,0,0,1-.121-.133A.123.123,0,0,1,96.506,158.272Zm1.518,1.911h0a.128.128,0,0,1-.122-.133,1.457,1.457,0,0,0-.054-.461.127.127,0,1,1,.244-.07,1.7,1.7,0,0,1,.064.542A.128.128,0,0,1,98.024,160.183Z" transform="translate(-93.587 -136.403)"/><path class="cls-1" d="M96.188,165.455c-.575,0-1.194.147-1.194.47s.619.47,1.194.47,1.194-.147,1.194-.47S96.763,165.455,96.188,165.455Z" transform="translate(-93.587 -136.403)"/></g><text class="cls-2" transform="translate(10.373 29.539)">Community Pickup, Main St., Sunny<tspan class="cls-3" x="101.009" y="0">v</tspan><tspan x="104.554" y="0">ale, ...</tspan></text></svg>