<svg id="Layer_1" data-name="Layer 1" xmlns="http://www.w3.org/2000/svg" xmlns:xlink="http://www.w3.org/1999/xlink" viewBox="0 0 192.836 121.408"><defs><style>.cls-1{fill:#ffb925;}.cls-2{fill:#f6ff7f;}.cls-3,.cls-4,.cls-46,.cls-48{fill:none;stroke-miterlimit:10;}.cls-3,.cls-4{stroke:#000;stroke-linecap:round;}.cls-3{stroke-width:0.25px;}.cls-4{stroke-width:0.125px;}.cls-5{fill:#cf9f66;}.cls-6{fill:#89643d;}.cls-7{fill:#c45c00;}.cls-8{fill:#c98019;}.cls-9{fill:#eb9800;}.cls-10{fill:#d68b00;}.cls-11{fill:#ebba1d;}.cls-12{fill:#ffca1f;}.cls-13{fill:#ffd85e;}.cls-14{fill:#d96600;}.cls-15{fill:#ffd03b;}.cls-16{fill:#ffe38a;}.cls-17{fill:#ffe38c;}.cls-18{fill:#fff4d1;}.cls-19{fill:#fff0c2;}.cls-20,.cls-33{fill:#fff276;}.cls-20{opacity:0.51;}.cls-20,.cls-26,.cls-33,.cls-45,.cls-46,.cls-47,.cls-48{isolation:isolate;}.cls-21{fill:#fff2ff;}.cls-22{fill:#965030;}.cls-23{fill:#ffb95c;}.cls-24{fill:#ffe9cc;}.cls-25{fill:url(#linear-gradient);}.cls-26{fill:#ff9100;opacity:0.47;}.cls-27{fill:#70270f;}.cls-28{fill:url(#linear-gradient-2);}.cls-29{fill:url(#linear-gradient-3);}.cls-30{fill:#fff0db;}.cls-31{fill:#ffbc00;}.cls-32{fill:#fff8f0;}.cls-33{opacity:0.24;}.cls-34{fill:#fff8ed;}.cls-35,.cls-50{fill:#fff;}.cls-36{fill:#351207;}.cls-37{fill:#4a190a;}.cls-38{fill:#6b240e;}.cls-39{fill:#009c08;}.cls-40{fill:#00c40a;}.cls-41{fill:#1cff28;}.cls-42{fill:#696;}.cls-43{fill:#7f4834;}.cls-44{fill:#f16365;}.cls-45,.cls-46,.cls-47,.cls-48{font-size:22px;font-family:Monoton-Regular, Monoton;}.cls-45,.cls-47{fill:#0188d8;}.cls-45,.cls-46{letter-spacing:0.05em;}.cls-46,.cls-48{stroke:#0188d8;stroke-width:0.2px;}.cls-47,.cls-48{letter-spacing:0.049em;}.cls-49{fill:#57d2ff;}.cls-50{font-size:18px;font-family:MyriadPro-Regular, Myriad Pro;letter-spacing:0.05em;}.cls-51{letter-spacing:0.044em;}.cls-52{letter-spacing:0.05em;}</style><linearGradient id="linear-gradient" x1="246.303" y1="206.763" x2="249.492" y2="211.494" gradientTransform="translate(-123.557 -171.78)" gradientUnits="userSpaceOnUse"><stop offset="0.102" stop-color="#ffd59e"/><stop offset="0.301" stop-color="#ffb76c"/></linearGradient><linearGradient id="linear-gradient-2" x1="-247.399" y1="114.77" x2="-244.211" y2="119.501" gradientTransform="translate(-97.221 -119.762) rotate(-120.207)" xlink:href="#linear-gradient"/><linearGradient id="linear-gradient-3" x1="323.54" y1="10.727" x2="326.728" y2="15.458" gradientTransform="matrix(0.748, 0.664, -0.664, 0.748, -102.715, -192.44)" xlink:href="#linear-gradient"/></defs><title>signUpScreen</title><rect class="cls-1" width="192.836" height="5.17"/><polygon class="cls-2" points="0 5.362 0 121.408 192.836 121.408 192.836 5.362 192.836 5.17 0 5.17 0 5.362"/><line class="cls-3" x1="187.905" y1="0.898" x2="190.698" y2="3.97"/><line class="cls-3" x1="190.698" y1="0.898" x2="187.905" y2="3.97"/><polygon class="cls-4" points="181.761 0.618 181.761 1.456 183.437 1.456 183.437 3.411 183.996 3.411 183.996 0.618 181.761 0.618"/><rect class="cls-4" x="180.924" y="1.456" width="2.234" height="2.793"/><line class="cls-4" x1="174.221" y1="2.294" x2="177.293" y2="2.294"/><circle class="cls-5" cx="130.461" cy="40.038" r="12.5"/><circle class="cls-6" cx="130.485" cy="40.062" r="10.68"/><circle class="cls-7" cx="129.253" cy="39.341" r="8.443"/><path class="cls-8" d="M175.779,118.851s2.326-2.1,4.844-1.658,2.894,2.923,1.872,3.867c0,0-.333-.04-.51-.589s-.723-1.739-1.806-1.736-2.241.175-4.609,2.066A4.913,4.913,0,0,1,175.779,118.851Z" transform="translate(-55.578 -81.579)"/><path class="cls-9" d="M184.584,116.41s3.314-2.178,5.467.158a11.679,11.679,0,0,0,1.541,2.172c.635.565,2.238,1.048,2.147,3s-1,2.6-1.513,2.649-3.4-.377-4.056.537-.344,3.134-1.174,4.17-4.712-.427-3.589-3.288-.794-4.464-1.152-5.229-1.3-2.682,1.266-3.58,1.993.982,1.315,1.206-1.976.374-1.726,1.74,1.907,1.982,1.792,3.973-.938,2.5-.546,3.291,1.728,1.527,2.014.66-.057-3.4,1.673-4.42,3.611.132,4.165-.414a1.938,1.938,0,0,0-.563-2.682c-.027-.018-.053-.034-.081-.05a8.44,8.44,0,0,1-2.432-2.858c-.548-.987-2.481-.968-4.156.038S183.064,117.327,184.584,116.41Z" transform="translate(-55.578 -81.579)"/><path class="cls-10" d="M183.38,115.326a2.477,2.477,0,0,1,.1-3.2c1.416-1.561,5.9-.421,5.474,2.036s.108,2.377.776,2.819,1.834.349,2.725.89,1.639,1.661.423,3.21a3.956,3.956,0,0,1-5.064,1.118c-1.925-.938-3.316-1.666-4.274.871s-1.44,4.427-2.861,4.543-1.757-.394-1.193-1.029,1.187.018,1.742-.818.537-2.046,1.785-3.861,2.994-1.622,4.72-.673a2.747,2.747,0,0,0,3.789-.858h0c.014-.022.028-.044.041-.067.707-1.069.46-1.857-2.463-2.157a2.346,2.346,0,0,1-1.732-2.538c.327-1.945-.232-2.989-1.455-3.028s-2.218.959-1.657,2.758S183.38,115.326,183.38,115.326Z" transform="translate(-55.578 -81.579)"/><path class="cls-11" d="M192.926,118.9a3.611,3.611,0,0,0-1.5-3.683c-2.027-1.293-3.853.814-4.79,2.74s-.12,3.667-1.286,4.483-3.212-.156-4.476.016-4.414,2.171-.411,5.635,8.732-.421,9.351-1.356.815-1.959,1.623-2.673-.736-.919-1.134-.462a10.4,10.4,0,0,0-1.416,2.283c-.441.959-2.8,2.133-4.5,2.161s-4.047-.852-4.365-2.84,2.562-1.331,3.2-1.056,4.42-.294,4.42-3.561,2.006-4.338,3.351-4.123.854,2.775.467,3.143a2.994,2.994,0,0,1-4.2.1l-.407,1.123s1.8,1.861,3.727,1.12A4.321,4.321,0,0,0,192.926,118.9Z" transform="translate(-55.578 -81.579)"/><path class="cls-12" d="M181.48,121.5a3.5,3.5,0,0,1-.719-4.9c.056-.075.115-.148.176-.218,2.255-3.084,6.432-2.589,6.7-1.191s-.724,2.728.456,4.482,3.589,1.546,4.613,4.134-3.288,5.786-5.979,3.321-.449-4.115.274-4.5,1.017.313.62.913-2.11,1.883.311,3.233,4.844-1.551,3.389-3.054-1.812-.91-3.635-2.837-1.113-3.654-1.107-4.371a1.524,1.524,0,0,0-2.321-1.175c-1.473.647-4.83,3.326-1.679,6.023C182.579,121.365,182.673,121.931,181.48,121.5Z" transform="translate(-55.578 -81.579)"/><path class="cls-13" d="M193.447,118.688a3.4,3.4,0,0,0-4.627,1.334c-.049.088-.094.179-.135.272-1.879,3.273,3.841,5.23,4.235,3.762s-.125-.9-.824-.786-3.2.19-2.765-2.5c.377-2.332,3.252-1.893,3.889-1.314a.382.382,0,0,0,.54,0,.411.411,0,0,0,.062-.082C193.9,119.206,193.853,118.978,193.447,118.688Z" transform="translate(-55.578 -81.579)"/><path class="cls-7" d="M186.216,125.133s1.888-1.057,1.615-2.714-.548-1.3-.5-.982a2.744,2.744,0,0,1-.167,2.268,3.8,3.8,0,0,1-1.2,1.221C185.3,125.428,186.082,125.225,186.216,125.133Z" transform="translate(-55.578 -81.579)"/><path class="cls-13" d="M185.6,114.351s1.475-.213,1.8.76.127.408-.325.11S184.652,114.7,185.6,114.351Z" transform="translate(-55.578 -81.579)"/><circle class="cls-14" cx="132.38" cy="41.898" r="7.457"/><path class="cls-8" d="M191.615,130.817s1.32-2.432.419-4.5-3.11-1.877-3.709-.8c0,0,.1.278.612.316s1.644.26,1.865,1.19.315,1.96-.818,4.385A4.363,4.363,0,0,0,191.615,130.817Z" transform="translate(-55.578 -81.579)"/><path class="cls-9" d="M191.879,122.751s1.182-3.3-1.271-4.659a10.374,10.374,0,0,1-2.184-.872c-.616-.428-1.363-1.7-3.023-1.218s-2.026,1.4-1.96,1.847,1.03,2.842.381,3.591-2.62.946-3.337,1.873,1.345,3.957,3.566,2.4,4-.244,4.728-.1,2.574.558,2.813-1.829-1.256-1.507-1.308-.879.091,1.774-1.135,1.844-2.1-1.226-3.781-.715-1.955,1.325-2.712,1.15-1.67-1.166-.984-1.591,2.93-.657,3.444-2.353-.862-3.074-.508-3.661a1.712,1.712,0,0,1,2.419-.074c.02.019.04.039.059.059a7.473,7.473,0,0,0,2.958,1.5c.959.266,1.347,1.929.831,3.575S191.408,124.251,191.879,122.751Z" transform="translate(-55.578 -81.579)"/><path class="cls-10" d="M193.061,123.56a2.186,2.186,0,0,0,2.726-.75c1.046-1.54-.862-5.151-2.883-4.276s-2.063.4-2.582-.082-.681-1.5-1.329-2.154a1.735,1.735,0,0,0-2.843.3,3.492,3.492,0,0,0,.091,4.578c1.2,1.459,2.119,2.5.137,3.85s-3.5,2.155-3.306,3.4.7,1.427,1.131.811-.263-1.017.34-1.665,1.644-.885,2.945-2.335.771-2.907-.4-4.191a2.426,2.426,0,0,1-.049-3.431h0l.049-.048c.771-.829,1.5-.781,2.363,1.666a2.07,2.07,0,0,0,2.538.959c1.6-.685,2.614-.42,2.9.621s-.361,2.105-2.024,2S193.061,123.56,193.061,123.56Z" transform="translate(-55.578 -81.579)"/><path class="cls-11" d="M188.01,116.109a3.189,3.189,0,0,1,3.473.525c1.531,1.471.1,3.476-1.357,4.68s-3.123.864-3.582,2.032.8,2.725.914,3.848-.948,4.24-4.75,1.523-1.451-7.581-.777-8.308,1.513-1.106,1.958-1.948.942.441.632.878a9.193,9.193,0,0,1-1.666,1.69c-.731.577-1.249,2.849-.92,4.314s1.571,3.3,3.343,3.159.612-2.476.244-2.963-.666-3.856,2.139-4.534,3.309-2.623,2.844-3.733-2.558-.157-2.795.251a2.642,2.642,0,0,0,.782,3.627l-.88.583s-1.969-1.156-1.735-2.969A3.8,3.8,0,0,1,188.01,116.109Z" transform="translate(-55.578 -81.579)"/><path class="cls-12" d="M188.153,126.474a3.09,3.09,0,0,0,4.351-.4c.052-.063.1-.128.149-.2,2.178-2.575.888-6.059-.366-6s-2.192,1.188-3.942.538-2.071-2.761-4.506-3.106-4.287,4.023-1.612,5.822,3.625-.469,3.807-1.17-.48-.809-.914-.343-1.178,2.2-2.839.4.326-4.481,1.918-3.543,1.157,1.366,3.19,2.532a4.051,4.051,0,0,0,3.982.046,1.344,1.344,0,0,1,1.54,1.119,1.33,1.33,0,0,1-.05.629c-.25,1.4-1.854,4.834-4.822,2.689C188.047,125.5,187.537,125.539,188.153,126.474Z" transform="translate(-55.578 -81.579)"/><path class="cls-15" d="M196.006,125.044a3.936,3.936,0,0,1-1.813-1.324c-.98-1.129-2.262-2.321-4.849-1.177s-2.217,4.1-.257,5.344c0,0,.644.164-.061-.636s-1.4-2.24-.045-3.3,2.625-1.109,3.75-.137,1.653,2.118,2.978,2.408A4.04,4.04,0,0,0,196.006,125.044Z" transform="translate(-55.578 -81.579)"/><path class="cls-13" d="M191.947,130.11s3.423-.874,3.288-5.169a2.273,2.273,0,0,0-2.529-1.986,2.178,2.178,0,0,0-.226.039c-2.5.315-3.432-.4-4.232-1.255s-2.4-1.471-3.931.33.024,7.415,3.951,6.466.18,2.378-.442,2.307-.89-.212-1.8-.987-2.875-3.181-5.139-2.968c0,0-.2.176.405.811s1.305-.274,3.5,1.882,2.96,2.935,5.443.46.091-2.669-.469-2.574-2.659.716-3.852-.611-1.349-3.537-.346-4.381,1.632-.548,2.436.418a4.865,4.865,0,0,0,4.488,1.021c1.447-.465,2.553,1.541,1.159,4.014s-4.894,1.792-5.61,1.707c-.6-.072-2.715-.35-3.66.285a.531.531,0,0,0-.124.74.56.56,0,0,0,.121.122.859.859,0,0,0,.614.221c.392-.086.077-.731,4.7-.544a5.791,5.791,0,0,0,1.617-.165C191.523,130.239,191.747,130.179,191.947,130.11Z" transform="translate(-55.578 -81.579)"/><path class="cls-13" d="M188.088,115.619a3.006,3.006,0,0,1-.184,4.247c-.066.061-.135.118-.207.173-2.42,2.29-5.287-2.212-4.11-2.855s.8-.079.846.545.5,2.786,2.72,1.854c1.924-.807.951-3.185.32-3.612a.337.337,0,0,1-.112-.463.349.349,0,0,1,.057-.07C187.547,115.333,187.753,115.328,188.088,115.619Z" transform="translate(-55.578 -81.579)"/><path class="cls-16" d="M184.054,123.162s.515-1.839,1.994-1.949,1.228.2.947.228a2.43,2.43,0,0,0-1.911.613,3.371,3.371,0,0,0-.8,1.287C183.99,124.009,184,123.3,184.054,123.162Z" transform="translate(-55.578 -81.579)"/><path class="cls-13" d="M193.436,121.451s-.123-1.309-1.027-1.389-.376-.025-.026.3S193.337,122.338,193.436,121.451Z" transform="translate(-55.578 -81.579)"/><path class="cls-15" d="M180.964,112.479a4.473,4.473,0,0,0,1.939,1.644c1.5.779,3.156,1.873,2.584,5.024s-3.92,3.53-5.81,1.7c0,0-.352-.665.716-.1s2.837.939,3.647-.83.522-3.185-.848-4.164-2.771-1.256-3.443-2.637A4.6,4.6,0,0,1,180.964,112.479Z" transform="translate(-55.578 -81.579)"/><path class="cls-17" d="M176.469,118.3s.052-4,4.815-4.992a2.577,2.577,0,0,1,2.86,2.259,2.427,2.427,0,0,1,.017.256c.32,2.84,1.355,3.67,2.507,4.324s2.258,2.25.683,4.414-8.169,1.946-8.169-2.629-2.664.434-2.42,1.1.47.924,1.565,1.72,4.266,2.317,4.634,4.866c0,0-.141.267-1-.228s-.046-1.507-3-3.356-4.019-2.477-1.954-5.867,2.914-.811,2.957-.169-.08,3.116,1.7,4.077,4.251.54,4.913-.784.168-1.943-1.11-2.572-2.441-2.951-2.316-4.668-2.375-2.4-4.726-.208-.67,5.861-.384,6.626c.238.639,1.107,2.893.659,4.1a.6.6,0,0,1-.78.334h0a.633.633,0,0,1-.165-.1.971.971,0,0,1-.407-.617c-.01-.453.783-.279-.652-5.319a7.787,7.787,0,0,1-.225-2.566Z" transform="translate(-55.578 -81.579)"/><path class="cls-18" d="M183.318,113.951s.765.417.922,2.47a4.6,4.6,0,0,0,2.487,3.74,2.665,2.665,0,0,1,1.13,3.6l0,0c-.042.078-.087.155-.135.229,0,0,1.165-2.47-1.131-3.7a4.44,4.44,0,0,1-2.574-3.9A4.337,4.337,0,0,0,183.318,113.951Z" transform="translate(-55.578 -81.579)"/><path class="cls-15" d="M191.957,115.884a2.089,2.089,0,0,0-2.5-.788s-.51.3.163.255a2.544,2.544,0,0,1,2.179.627C192.49,116.673,192.047,116,191.957,115.884Z" transform="translate(-55.578 -81.579)"/><path class="cls-19" d="M187.247,123.213a1.58,1.58,0,0,0,.137-1.531c-.419-.7-.223-.816,0-.663a1.921,1.921,0,0,1,.6,1.591A2.715,2.715,0,0,1,186.476,125C185.555,125.3,186.136,124.442,187.247,123.213Z" transform="translate(-55.578 -81.579)"/><path class="cls-19" d="M177.671,119.27s.835-.951,1.392-.7a1.631,1.631,0,0,1,.742,1.252c.023.232.091,1.276.137,1.53s-.278.186-.3-.278,0-2.087-.65-2.2a1.232,1.232,0,0,0-1.229.534C177.6,119.642,177.579,119.41,177.671,119.27Z" transform="translate(-55.578 -81.579)"/><path class="cls-20" d="M196,120.739c1.2,5.33-4.168,12.332-9.891,10.7-5.252-1.494-10.433-3.644-10.433-9.106s4.7-11.018,10.162-11.018S195.138,116.929,196,120.739Z" transform="translate(-55.578 -81.579)"/><path class="cls-21" d="M191.085,113.29s-.628-.6-1,.057.343.742.685.8c0,0-.4.4.143.571s1.342-.057,2.255.942,2.312,3.8,1.713,5.366.97,2.911.685,3.911-.657,2.483-1.37,3.054-1.513,1.427-.685,1.313a10.027,10.027,0,0,0,2.654-6.565,6.575,6.575,0,0,0-.628-3.968,28.837,28.837,0,0,0-2.169-3.283A4.171,4.171,0,0,0,191.085,113.29Z" transform="translate(-55.578 -81.579)"/><path class="cls-21" d="M180.524,129.389s-.685-.6.086-.914,1.313.685,1.313,1,.628.771,1.8,1.056,1.256-.143,1.855.029,1.542.97,2.483.8,1.2.143.514.257A17.191,17.191,0,0,1,180.524,129.389Z" transform="translate(-55.578 -81.579)"/><ellipse class="cls-21" cx="132.867" cy="33.437" rx="0.585" ry="0.528"/><path class="cls-22" d="M183.89,118.951a3.767,3.767,0,0,1-3.647,3.883h-.261A4.211,4.211,0,0,1,175.8,118.7a4.046,4.046,0,0,1,8.087.255Z" transform="translate(-55.578 -81.579)"/><circle class="cls-23" cx="124.404" cy="37.164" r="3.625"/><circle class="cls-24" cx="124.404" cy="37.276" r="3.281"/><circle class="cls-25" cx="124.404" cy="37.443" r="2.927"/><path class="cls-26" d="M176.935,120.682s1.658-3.644,4.184-5.283c0,0,.444-.137.791.424s-4.146,3.51-2.892,3.953,3.721-2.892,4.512-1.542c0,0,.251.6-.791,1.465a9.43,9.43,0,0,0-2.2,2.644,5.582,5.582,0,0,1-.848.038,17.289,17.289,0,0,1,2.8-3.16c.809-.559.308-.926-.731-.077s-3.278,1.928-3.375.675,1.851-2.931,2.276-3.22.173-.464-.232-.1a11.9,11.9,0,0,0-3.2,4.59A2.14,2.14,0,0,1,176.935,120.682Z" transform="translate(-55.578 -81.579)"/><path class="cls-24" d="M176.935,120.682a18.2,18.2,0,0,1,2.314-3.573c1.209-1.312,1.838-1.787,2.16-1.685a1.974,1.974,0,0,0-.257-.115c-.142-.052-1.08.514-2.25,1.877a16.782,16.782,0,0,0-2.083,3.342Z" transform="translate(-55.578 -81.579)"/><path class="cls-27" d="M175.947,119.758a3.848,3.848,0,0,1,2.172-4.55,3.888,3.888,0,0,1,5.027,1.259s-2.121-2.686-5.027-1.182A4.044,4.044,0,0,0,175.947,119.758Z" transform="translate(-55.578 -81.579)"/><path class="cls-22" d="M181.223,111.828a3.767,3.767,0,0,1,5.19,1.2v0c.046.073.09.149.131.226a4.211,4.211,0,0,1-1.475,5.695,4.046,4.046,0,0,1-3.847-7.119Z" transform="translate(-55.578 -81.579)"/><circle class="cls-23" cx="127.434" cy="33.73" r="3.625"/><circle class="cls-24" cx="127.532" cy="33.673" r="3.281"/><circle class="cls-28" cx="127.675" cy="33.589" r="2.927"/><path class="cls-26" d="M186.223,116.965s-3.985.4-6.672-.959a.727.727,0,0,1-.031-.9c.308-.581,5.119,1.817,4.871.511s-4.372-1.761-3.6-3.124c0,0,.39-.517,1.664-.053a9.458,9.458,0,0,0,3.389.57,5.536,5.536,0,0,1,.461.714,17.3,17.3,0,0,1-4.14-.825c-.891-.419-.955.2.3.672s3.317,1.863,2.282,2.577-3.465-.126-3.928-.347-.487.083.033.249a11.9,11.9,0,0,0,5.577.456A2.08,2.08,0,0,1,186.223,116.965Z" transform="translate(-55.578 -81.579)"/><path class="cls-24" d="M186.223,116.965a18.19,18.19,0,0,1-4.253-.2c-1.742-.384-2.47-.689-2.542-1.018a2.029,2.029,0,0,0,.029.28,5.564,5.564,0,0,0,2.754,1,16.832,16.832,0,0,0,3.936.118Z" transform="translate(-55.578 -81.579)"/><path class="cls-27" d="M185.921,118.286a3.847,3.847,0,0,1-5.024.411,3.888,3.888,0,0,1-1.44-4.978s-1.255,3.185,1.507,4.939A4.044,4.044,0,0,0,185.921,118.286Z" transform="translate(-55.578 -81.579)"/><path class="cls-22" d="M190.3,117.651a3.766,3.766,0,0,1-5.3.481c-.067-.056-.132-.114-.2-.175a4.208,4.208,0,0,1-.374-5.869,4.045,4.045,0,1,1,5.874,5.563Z" transform="translate(-55.578 -81.579)"/><circle class="cls-23" cx="131.938" cy="33.325" r="3.625"/><circle class="cls-24" cx="131.863" cy="33.409" r="3.281"/><circle class="cls-29" cx="131.753" cy="33.534" r="2.927"/><path class="cls-26" d="M183.947,114.334s3.661-1.623,6.638-1.17a.723.723,0,0,1,.309.842c-.112.649-5.431-.13-4.788,1.034s4.7.309,4.4,1.844c0,0-.21.613-1.565.57a9.426,9.426,0,0,0-3.4.515,5.55,5.55,0,0,1-.66-.535,17.353,17.353,0,0,1,4.19-.507c.977.12.846-.486-.5-.544s-3.724-.732-2.965-1.732,3.33-.96,3.84-.9.437-.23-.109-.225a11.9,11.9,0,0,0-5.442,1.3A2.137,2.137,0,0,1,183.947,114.334Z" transform="translate(-55.578 -81.579)"/><path class="cls-24" d="M183.947,114.334a18.185,18.185,0,0,1,4.1-1.134c1.774-.178,2.561-.115,2.733.175a1.9,1.9,0,0,0-.115-.257,5.558,5.558,0,0,0-2.929-.091,16.762,16.762,0,0,0-3.777,1.115Z" transform="translate(-55.578 -81.579)"/><path class="cls-27" d="M183.823,112.983a3.846,3.846,0,0,1,4.647-1.959,3.885,3.885,0,0,1,2.922,4.28s.2-3.418-2.972-4.223A4.044,4.044,0,0,0,183.823,112.983Z" transform="translate(-55.578 -81.579)"/><path class="cls-30" d="M195.578,122.394a3.307,3.307,0,0,1-6.074-2.614c1.1-2.489,3.06-3.525,4.738-2.8S196.547,120.142,195.578,122.394Z" transform="translate(-55.578 -81.579)"/><circle class="cls-31" cx="136.828" cy="39.82" r="2.574"/><path class="cls-32" d="M190.113,118.661a6.123,6.123,0,0,1,4.978-1.08l.248.272a7.938,7.938,0,0,0-5.526,1.309Z" transform="translate(-55.578 -81.579)"/><circle class="cls-33" cx="136.806" cy="39.788" r="1.856"/><path class="cls-34" d="M192.431,129.289a3.307,3.307,0,0,1-2.447-6.145h0c2.536-.983,4.658-.328,5.332,1.371S194.71,128.382,192.431,129.289Z" transform="translate(-55.578 -81.579)"/><circle class="cls-31" cx="135.314" cy="44.764" r="2.574"/><path class="cls-35" d="M191.208,122.783a6.121,6.121,0,0,1,4.284,2.758l-.017.365a7.935,7.935,0,0,0-4.833-2.981Z" transform="translate(-55.578 -81.579)"/><path class="cls-36" d="M188.393,131.194s-3.643-3.447-2.777-6.891,2.048-.043,1.3.469-.468,1.9-.046,2.74,1.209,1.914,1.788,1.976S190.538,132.066,188.393,131.194Z" transform="translate(-55.578 -81.579)"/><path class="cls-37" d="M189.667,130.544s-3.57-2.189-3.456-5.151,1.666-.388,1.142.159-.055,1.633.434,2.247,1.317,1.355,1.8,1.3S191.569,130.887,189.667,130.544Z" transform="translate(-55.578 -81.579)"/><path class="cls-38" d="M187.382,131.08s-2.77-2.284-1.7-4.2,1.751.141,1.062.376-.585,1.057-.308,1.576.844,1.2,1.332,1.284S189.125,131.757,187.382,131.08Z" transform="translate(-55.578 -81.579)"/><path class="cls-38" d="M189.708,130.934s-2.981-2.979-2.174-5.85,1.721.01,1.08.423-.437,1.585-.1,2.3.971,1.635,1.456,1.7S191.488,131.716,189.708,130.934Z" transform="translate(-55.578 -81.579)"/><path class="cls-39" d="M181.009,121.293s.32-.545-.535-.374-.533.5-.533.5.2-.787-.323-.335a1.785,1.785,0,0,0-.509,1.252s-.261-.955-.95-.2a.866.866,0,0,0-.116,1.22v0a.891.891,0,0,0,.09.094s-.2.511-.428.525,0,.6,0,.6l-.1.529s.1.638.583.714-.857.17-.81.509.791.477.791.477-.7.2-.022.71a1.967,1.967,0,0,0,1.541.287l-.344.376s.558.544.747.413.3.442.612.554.685-.422.685-.422.7.679,1.134.7.517-.6.517-.6.239.084.627-.228.871.228,1-.715-.5-.511-.5-.511.864.173.824-.253-.794-.7-.794-.7.993.055.69-.662a1.1,1.1,0,0,0-.856-.748s.074-.292.12-.53-.645-.5-.645-.5.163.242-.143-.378a1.754,1.754,0,0,0-1.04-.812s.417-.473.158-.85-1.073-.145-1.073-.145S182.405,120.892,181.009,121.293Z" transform="translate(-55.578 -81.579)"/><path class="cls-40" d="M180.19,121.706a.283.283,0,0,1-.2.347h0a.284.284,0,0,1-.347-.2h0l-.217-.822a.283.283,0,0,1,.2-.346h0a.284.284,0,0,1,.346.2h0Z" transform="translate(-55.578 -81.579)"/><path class="cls-40" d="M180.869,121.892c-.042.071-.186.064-.32-.017h0c-.134-.08-.209-.2-.166-.274l.231-.387c.042-.071.186-.064.319.016h0c.138.081.21.2.167.274Z" transform="translate(-55.578 -81.579)"/><path class="cls-41" d="M180.041,121.806a.255.255,0,0,1,.082.34h0c-.059.145-.192.228-.3.185l-.568-.233a.255.255,0,0,1-.082-.34h0c.059-.145.192-.228.3-.185Z" transform="translate(-55.578 -81.579)"/><path class="cls-40" d="M178.1,124.785a.285.285,0,0,1,.122.383h0a.281.281,0,0,1-.379.123h0l-.757-.389a.282.282,0,0,1-.124-.379v0h0a.284.284,0,0,1,.381-.124h0Z" transform="translate(-55.578 -81.579)"/><path class="cls-40" d="M178.693,124.405c.025.079-.077.182-.228.228h0c-.15.046-.291.02-.316-.059l-.133-.431c-.025-.079.076-.182.228-.228h0c.15-.046.291-.02.316.059Z" transform="translate(-55.578 -81.579)"/><path class="cls-41" d="M178.076,124.964c.1-.05.239.025.308.165h0a.254.254,0,0,1-.061.345l-.551.267c-.1.05-.24-.024-.308-.165h0a.256.256,0,0,1,.06-.345Z" transform="translate(-55.578 -81.579)"/><path class="cls-40" d="M179.971,126.031a.283.283,0,0,1-.2.346h0a.285.285,0,0,1-.346-.2l-.216-.822a.283.283,0,0,1,.2-.346h0a.282.282,0,0,1,.346.2Z" transform="translate(-55.578 -81.579)"/><path class="cls-40" d="M180.647,126.216c-.043.072-.186.064-.32-.016h0c-.134-.081-.208-.2-.166-.274l.231-.387c.043-.071.186-.064.32.016h0c.135.08.209.2.167.274Z" transform="translate(-55.578 -81.579)"/><path class="cls-41" d="M179.822,126.131a.253.253,0,0,1,.082.34h0c-.059.144-.192.228-.3.185l-.568-.232a.255.255,0,0,1-.082-.34h0c.059-.144.192-.228.3-.185Z" transform="translate(-55.578 -81.579)"/><path class="cls-40" d="M179.622,123.176a.283.283,0,0,1-.2.346h0a.283.283,0,0,1-.346-.2h0l-.217-.822a.286.286,0,0,1,.2-.347h0a.284.284,0,0,1,.346.2h0Z" transform="translate(-55.578 -81.579)"/><path class="cls-40" d="M180.3,123.361c-.043.071-.186.064-.32-.016h0c-.134-.081-.209-.2-.166-.274l.231-.388c.042-.071.186-.064.319.017h0c.137.08.21.2.167.274Z" transform="translate(-55.578 -81.579)"/><path class="cls-41" d="M179.473,123.275a.255.255,0,0,1,.082.34h0c-.059.145-.192.228-.3.185l-.568-.231a.253.253,0,0,1-.082-.34h0c.059-.145.192-.228.3-.185Z" transform="translate(-55.578 -81.579)"/><path class="cls-40" d="M183.247,123.594a.285.285,0,0,1-.4.046h0a.283.283,0,0,1-.048-.4l0,0h0l.526-.668a.285.285,0,0,1,.4-.047h0a.283.283,0,0,1,.046.4h0Z" transform="translate(-55.578 -81.579)"/><path class="cls-40" d="M183.5,124.245c-.082.009-.163-.11-.18-.266h0c-.017-.155.036-.289.119-.3l.448-.049c.082-.009.163.11.18.266h0c.017.155-.036.289-.118.3Z" transform="translate(-55.578 -81.579)"/><path class="cls-41" d="M183.074,123.535c.029.109-.071.228-.222.27h0a.253.253,0,0,1-.326-.125l-.158-.594c-.029-.109.07-.228.222-.27h0a.254.254,0,0,1,.327.125Z" transform="translate(-55.578 -81.579)"/><path class="cls-40" d="M182.256,126.085a.285.285,0,0,1-.393.084h0a.284.284,0,0,1-.083-.392h0l.462-.714a.283.283,0,0,1,.393-.083h0a.283.283,0,0,1,.084.391h0Z" transform="translate(-55.578 -81.579)"/><path class="cls-40" d="M182.576,126.711c-.081.016-.173-.095-.2-.248h0c-.031-.154.009-.291.091-.308l.443-.092c.081-.016.172.095.2.248h0c.032.154-.009.292-.091.308Z" transform="translate(-55.578 -81.579)"/><path class="cls-41" d="M182.081,126.041c.039.106-.048.236-.195.29h0a.255.255,0,0,1-.337-.094l-.211-.576c-.039-.106.049-.235.2-.289h0a.253.253,0,0,1,.336.094Z" transform="translate(-55.578 -81.579)"/><path class="cls-40" d="M182.947,128.333a.283.283,0,0,1-.2.346h0a.283.283,0,0,1-.346-.2h0l-.217-.822a.283.283,0,0,1,.2-.346h0a.282.282,0,0,1,.346.2Z" transform="translate(-55.578 -81.579)"/><path class="cls-40" d="M183.624,128.518c-.043.071-.186.064-.32-.016h0c-.134-.081-.209-.2-.166-.274l.231-.387c.042-.071.186-.064.319.016h0c.137.08.21.2.167.274Z" transform="translate(-55.578 -81.579)"/><path class="cls-41" d="M182.8,128.433a.254.254,0,0,1,.082.339h0c-.059.145-.192.229-.3.186l-.568-.232a.253.253,0,0,1-.082-.34h0c.059-.145.192-.228.3-.185Z" transform="translate(-55.578 -81.579)"/><path class="cls-40" d="M180.677,128.028a.283.283,0,0,1-.4.063l0,0h0a.282.282,0,0,1-.064-.395l0-.005h0l.5-.685a.283.283,0,0,1,.395-.065l.005,0h0a.283.283,0,0,1,.065.395l0,.005Z" transform="translate(-55.578 -81.579)"/><path class="cls-40" d="M180.96,128.672c-.082.011-.167-.1-.189-.26h0c-.022-.155.026-.29.108-.3l.446-.064c.083-.012.168.1.189.259h0c.023.155-.026.291-.108.3Z" transform="translate(-55.578 -81.579)"/><path class="cls-41" d="M180.507,127.974c.033.108-.062.233-.212.278h0a.255.255,0,0,1-.331-.114l-.177-.587c-.033-.108.062-.232.212-.277h0a.253.253,0,0,1,.331.113Z" transform="translate(-55.578 -81.579)"/><path class="cls-40" d="M178.3,127.251a.283.283,0,0,1,.3.262h0a.284.284,0,0,1-.262.3h0l-.849.062a.283.283,0,0,1-.3-.262h0a.282.282,0,0,1,.261-.3h0Z" transform="translate(-55.578 -81.579)"/><path class="cls-40" d="M178.61,126.62c.062.054.029.194-.075.311h0c-.1.118-.238.169-.3.114l-.339-.3c-.062-.054-.028-.2.075-.312h0c.1-.117.238-.168.3-.114Z" transform="translate(-55.578 -81.579)"/><path class="cls-41" d="M178.374,127.419a.254.254,0,0,1,.349-.018h0a.251.251,0,0,1,.128.325l-.331.516a.253.253,0,0,1-.349.018h0a.254.254,0,0,1-.13-.325Z" transform="translate(-55.578 -81.579)"/><path class="cls-40" d="M184.153,125.475a.286.286,0,0,1-.4.011h0a.285.285,0,0,1-.012-.4l.585-.618a.282.282,0,0,1,.4-.013h0a.282.282,0,0,1,.011.4Z" transform="translate(-55.578 -81.579)"/><path class="cls-40" d="M184.354,126.151c-.083,0-.152-.124-.156-.28h0c0-.157.063-.285.146-.287l.45-.008c.083,0,.153.124.156.281h0c0,.156-.062.285-.145.286Z" transform="translate(-55.578 -81.579)"/><path class="cls-41" d="M183.989,125.4c.019.112-.091.223-.245.25h0c-.154.026-.3-.043-.314-.154l-.1-.6c-.019-.111.091-.222.245-.249h0c.154-.026.3.042.314.154Z" transform="translate(-55.578 -81.579)"/><path class="cls-40" d="M184.457,127.351a.283.283,0,0,1-.2.347h0a.284.284,0,0,1-.347-.2l-.216-.822a.284.284,0,0,1,.2-.346h0a.284.284,0,0,1,.347.2Z" transform="translate(-55.578 -81.579)"/><path class="cls-40" d="M185.136,127.533c-.043.071-.186.064-.32-.016h0c-.134-.081-.209-.2-.166-.274l.231-.387c.042-.072.186-.064.319.016h0c.137.08.21.2.167.274Z" transform="translate(-55.578 -81.579)"/><path class="cls-41" d="M184.308,127.451a.255.255,0,0,1,.082.34h0c-.06.145-.192.228-.3.185l-.567-.232a.253.253,0,0,1-.082-.339h0c.059-.145.191-.229.3-.186Z" transform="translate(-55.578 -81.579)"/><path class="cls-40" d="M180.793,124.722a.283.283,0,0,1-.369.155h0a.284.284,0,0,1-.155-.37h0l.322-.788a.284.284,0,0,1,.37-.155h0a.283.283,0,0,1,.156.369h0Z" transform="translate(-55.578 -81.579)"/><path class="cls-40" d="M181.224,125.278c-.077.031-.187-.061-.247-.206h0c-.059-.145-.045-.288.032-.319l.418-.171c.076-.031.187.061.246.206h0c.059.145.046.288-.032.32Z" transform="translate(-55.578 -81.579)"/><path class="cls-41" d="M180.614,124.711a.256.256,0,0,1-.137.32h0a.255.255,0,0,1-.349-.03l-.314-.527a.248.248,0,0,1,.137-.32h0a.255.255,0,0,1,.349.03Z" transform="translate(-55.578 -81.579)"/><path class="cls-40" d="M181.5,122.81a.282.282,0,0,1-.4-.022h0a.282.282,0,0,1,.019-.4l0,0h0l.633-.569a.284.284,0,0,1,.4.021h0a.284.284,0,0,1-.022.4h0Z" transform="translate(-55.578 -81.579)"/><path class="cls-40" d="M181.647,123.5c-.083-.006-.142-.137-.132-.293h0c.01-.156.085-.279.167-.274l.451.029c.082,0,.142.137.132.292h0c-.01.156-.085.279-.168.274Z" transform="translate(-55.578 -81.579)"/><path class="cls-41" d="M181.34,122.722c.01.112-.108.215-.264.228h0c-.157.014-.291-.066-.3-.178l-.053-.611c-.01-.113.108-.215.264-.229h0c.156-.013.291.067.3.179Z" transform="translate(-55.578 -81.579)"/><path class="cls-39" d="M183.224,131.467s-.3.49.479.352.5-.449.5-.449-.2.711.287.311a1.613,1.613,0,0,0,.488-1.128s.218.873.86.2a.789.789,0,0,0,.131-1.107h0a.564.564,0,0,0-.081-.088s.2-.462.4-.469.014-.548.014-.548l.1-.482s-.074-.581-.515-.66.782-.137.747-.446-.71-.45-.71-.45.639-.168.034-.646a1.79,1.79,0,0,0-1.4-.291l.319-.335s-.5-.506-.671-.392-.267-.407-.545-.515-.63.371-.63.371-.622-.632-1.017-.665-.482.539-.482.539-.216-.082-.575.195-.787-.229-.925.629.443.475.443.475-.782-.175-.755.213.708.65.708.65-.9-.069-.639.588a1,1,0,0,0,.765.7s-.073.265-.121.48.577.464.577.464-.143-.223.123.347a1.6,1.6,0,0,0,.928.759s-.39.421-.161.77.972.153.972.153S181.947,131.8,183.224,131.467Z" transform="translate(-55.578 -81.579)"/><path class="cls-40" d="M183.978,131.108a.258.258,0,0,1,.191-.311h0a.258.258,0,0,1,.311.191l.18.753a.259.259,0,0,1-.191.311h0a.26.26,0,0,1-.311-.191Z" transform="translate(-55.578 -81.579)"/><path class="cls-40" d="M183.365,130.926c.041-.064.171-.055.291.021h0c.121.076.187.189.147.253l-.218.347c-.041.064-.171.055-.292-.021h0c-.12-.075-.186-.189-.145-.253Z" transform="translate(-55.578 -81.579)"/><path class="cls-41" d="M184.115,131.02a.227.227,0,0,1-.068-.31h0a.235.235,0,0,1,.274-.163l.511.222a.231.231,0,0,1,.068.311h0a.233.233,0,0,1-.274.162Z" transform="translate(-55.578 -81.579)"/><path class="cls-40" d="M185.947,128.351a.257.257,0,0,1-.1-.349h0a.257.257,0,0,1,.349-.1h0l.681.369a.257.257,0,0,1,.1.349h0a.259.259,0,0,1-.35.1h0Z" transform="translate(-55.578 -81.579)"/><path class="cls-40" d="M185.394,128.685c-.021-.072.073-.163.21-.2h0c.137-.039.265-.011.286.061l.113.394c.02.073-.074.163-.211.2h0c-.137.039-.265.012-.285-.061Z" transform="translate(-55.578 -81.579)"/><path class="cls-41" d="M185.967,128.189c-.092.043-.217-.027-.274-.157h0a.231.231,0,0,1,.061-.312l.507-.232c.092-.043.217.028.277.157h0a.23.23,0,0,1-.062.312Z" transform="translate(-55.578 -81.579)"/><path class="cls-40" d="M184.266,127.18a.259.259,0,0,1,.191-.311h0a.258.258,0,0,1,.311.191l.18.753a.259.259,0,0,1-.191.311h0a.258.258,0,0,1-.311-.191h0Z" transform="translate(-55.578 -81.579)"/><path class="cls-40" d="M183.653,127c.04-.064.17-.054.291.022h0c.121.075.186.189.146.253l-.218.347c-.04.064-.17.054-.291-.021h0c-.121-.076-.186-.189-.146-.253Z" transform="translate(-55.578 -81.579)"/><path class="cls-41" d="M184.4,127.093a.229.229,0,0,1-.068-.311h0a.234.234,0,0,1,.274-.162l.512.222a.231.231,0,0,1,.068.311h0a.235.235,0,0,1-.274.162Z" transform="translate(-55.578 -81.579)"/><path class="cls-40" d="M184.526,129.784a.258.258,0,0,1,.19-.311h0a.257.257,0,0,1,.311.189h0l.181.753a.258.258,0,0,1-.191.311h0a.259.259,0,0,1-.311-.191h0Z" transform="translate(-55.578 -81.579)"/><path class="cls-40" d="M183.912,129.6c.04-.064.17-.055.291.021h0c.121.076.186.189.146.253l-.218.347c-.04.064-.17.054-.291-.021h0c-.121-.076-.186-.189-.146-.253Z" transform="translate(-55.578 -81.579)"/><path class="cls-41" d="M184.663,129.7a.232.232,0,0,1-.068-.311h0a.234.234,0,0,1,.274-.162l.511.222a.231.231,0,0,1,.068.311h0a.234.234,0,0,1-.274.162Z" transform="translate(-55.578 -81.579)"/><path class="cls-40" d="M181.241,129.331a.259.259,0,0,1,.364-.037h0a.257.257,0,0,1,.037.363h0l-.5.595a.258.258,0,0,1-.363.035h0a.258.258,0,0,1-.037-.363h0Z" transform="translate(-55.578 -81.579)"/><path class="cls-40" d="M181.017,128.731c.075-.006.146.1.159.246h0c.012.142-.039.262-.115.269l-.408.035c-.075.006-.146-.1-.158-.245h0c-.013-.142.038-.263.113-.269Z" transform="translate(-55.578 -81.579)"/><path class="cls-41" d="M181.394,129.388c-.024-.1.069-.208.207-.241h0a.231.231,0,0,1,.295.12l.13.542c.025.1-.068.208-.206.241h0a.232.232,0,0,1-.295-.12Z" transform="translate(-55.578 -81.579)"/><path class="cls-40" d="M182.189,127.085a.258.258,0,0,1,.358-.068h0a.258.258,0,0,1,.069.358l-.435.64a.258.258,0,0,1-.357.069h0a.258.258,0,0,1-.069-.358Z" transform="translate(-55.578 -81.579)"/><path class="cls-40" d="M181.911,126.509c.074-.013.155.092.18.229h0c.025.14-.014.264-.088.278l-.4.073c-.074.013-.155-.092-.18-.229h0c-.026-.14.014-.265.088-.278Z" transform="translate(-55.578 -81.579)"/><path class="cls-41" d="M182.347,127.128c-.033-.1.049-.213.183-.259h0a.23.23,0,0,1,.3.091l.181.528c.033.1-.05.213-.183.26h0a.23.23,0,0,1-.3-.092Z" transform="translate(-55.578 -81.579)"/><path class="cls-40" d="M181.608,125.027a.258.258,0,0,1,.19-.311h0a.258.258,0,0,1,.311.191l.179.753a.258.258,0,0,1-.191.311h0a.259.259,0,0,1-.311-.19Z" transform="translate(-55.578 -81.579)"/><path class="cls-40" d="M180.994,124.851c.04-.064.171-.055.292.021h0c.12.076.185.189.145.253l-.218.347c-.04.064-.17.055-.29-.021h0c-.121-.076-.187-.189-.147-.253Z" transform="translate(-55.578 -81.579)"/><path class="cls-41" d="M181.747,124.94a.233.233,0,0,1-.069-.311h0a.235.235,0,0,1,.274-.162l.512.222a.232.232,0,0,1,.068.311h0a.234.234,0,0,1-.274.162Z" transform="translate(-55.578 -81.579)"/><path class="cls-40" d="M183.664,125.351a.258.258,0,0,1,.362-.046h0a.259.259,0,0,1,.046.362l-.472.614a.259.259,0,0,1-.362.045h0a.259.259,0,0,1-.045-.361Z" transform="translate(-55.578 -81.579)"/><path class="cls-40" d="M183.42,124.76c.075-.009.149.1.166.24h0c.017.141-.03.263-.1.274l-.406.049c-.075.009-.15-.1-.167-.24h0c-.017-.141.03-.263.1-.274Z" transform="translate(-55.578 -81.579)"/><path class="cls-41" d="M183.819,125.4c-.027-.1.062-.21.2-.248h0a.228.228,0,0,1,.3.11l.149.537c.028.1-.061.21-.2.249h0a.232.232,0,0,1-.3-.111Z" transform="translate(-55.578 -81.579)"/><path class="cls-40" d="M185.805,126.1a.259.259,0,0,1-.271-.244h0a.257.257,0,0,1,.243-.271h0l.773-.04a.258.258,0,0,1,.271.244h0a.256.256,0,0,1-.243.27h0Z" transform="translate(-55.578 -81.579)"/><path class="cls-40" d="M185.515,126.672c-.055-.052-.022-.178.075-.283h0c.1-.1.219-.148.274-.1l.3.278c.055.051.022.177-.075.282h0c-.1.1-.22.148-.274.1Z" transform="translate(-55.578 -81.579)"/><path class="cls-41" d="M185.747,125.951a.232.232,0,0,1-.319.011h0a.234.234,0,0,1-.11-.3l.312-.462a.229.229,0,0,1,.317-.01h0a.229.229,0,0,1,.11.3Z" transform="translate(-55.578 -81.579)"/><path class="cls-40" d="M180.452,127.6a.257.257,0,0,1,.364,0h0a.256.256,0,0,1,0,.363h0l-.543.551a.258.258,0,0,1-.365,0h0a.259.259,0,0,1,0-.365h0Z" transform="translate(-55.578 -81.579)"/><path class="cls-40" d="M180.283,126.985c.075,0,.137.116.137.258h0c0,.142-.062.258-.137.258h-.411c-.076,0-.137-.116-.137-.259h0c0-.142.062-.258.137-.257Z" transform="translate(-55.578 -81.579)"/><path class="cls-41" d="M180.6,127.673c-.015-.1.088-.2.229-.222h0c.141-.021.267.046.282.146l.082.552c.015.1-.087.2-.228.222h0c-.141.021-.268-.046-.283-.147Z" transform="translate(-55.578 -81.579)"/><path class="cls-40" d="M180.213,125.894a.258.258,0,0,1,.191-.311h0a.258.258,0,0,1,.311.19h0l.18.752a.257.257,0,0,1-.19.311h0a.256.256,0,0,1-.31-.189h0Z" transform="translate(-55.578 -81.579)"/><path class="cls-40" d="M179.6,125.712c.04-.064.17-.054.291.021h0c.121.076.186.189.146.253l-.218.347c-.04.064-.171.055-.291-.021h0c-.121-.076-.186-.189-.146-.253Z" transform="translate(-55.578 -81.579)"/><path class="cls-41" d="M180.347,125.807a.233.233,0,0,1-.068-.311h0a.235.235,0,0,1,.274-.163l.512.222a.229.229,0,0,1,.068.311h0a.235.235,0,0,1-.274.163Z" transform="translate(-55.578 -81.579)"/><path class="cls-40" d="M183.491,128.351a.258.258,0,0,1,.34-.133h0a.256.256,0,0,1,.135.337v0h0l-.307.707a.256.256,0,0,1-.337.134h0a.258.258,0,0,1-.134-.339h0Z" transform="translate(-55.578 -81.579)"/><path class="cls-40" d="M183.11,127.84c.07-.027.169.059.22.192h0c.051.133.035.263-.036.29l-.383.146c-.07.027-.168-.059-.22-.192h0c-.05-.133-.034-.263.036-.29Z" transform="translate(-55.578 -81.579)"/><path class="cls-41" d="M183.655,128.367c-.051-.091.008-.218.132-.289h0a.231.231,0,0,1,.316.035l.275.485a.231.231,0,0,1-.133.289h0a.231.231,0,0,1-.316-.035Z" transform="translate(-55.578 -81.579)"/><path class="cls-40" d="M182.813,130.079a.257.257,0,0,1,.364.025h0a.257.257,0,0,1-.024.363h0l-.587.5a.258.258,0,0,1-.363-.025h0a.256.256,0,0,1,.023-.361l0,0h0Z" transform="translate(-55.578 -81.579)"/><path class="cls-40" d="M182.694,129.451c.075.007.127.127.115.269h0c-.013.142-.083.251-.159.245l-.408-.035c-.075-.006-.127-.126-.114-.268h0c.012-.142.082-.252.158-.246Z" transform="translate(-55.578 -81.579)"/><path class="cls-41" d="M182.954,130.161c-.007-.1.1-.193.245-.2h0c.142-.009.263.066.27.169l.036.556c.007.1-.1.193-.245.2h0c-.143.009-.263-.067-.27-.169Z" transform="translate(-55.578 -81.579)"/><path class="cls-35" d="M185.469,119.967l-.411.274a.37.37,0,0,0-.1.513h0a.364.364,0,0,0,.142.125l.011.006a.372.372,0,0,0,.5-.164v0a.368.368,0,0,0,.038-.187l-.028-.493a.1.1,0,0,0-.1-.088A.091.091,0,0,0,185.469,119.967Z" transform="translate(-55.578 -81.579)"/><path class="cls-35" d="M185.211,121.656l-.411.274a.37.37,0,0,0-.1.513v0a.391.391,0,0,0,.141.124l.012.006a.373.373,0,0,0,.5-.163v0a.371.371,0,0,0,.039-.188l-.029-.493a.1.1,0,0,0-.152-.072Z" transform="translate(-55.578 -81.579)"/><path class="cls-35" d="M187.447,121.2l-.131.477a.372.372,0,0,0,.262.455h0a.374.374,0,0,0,.188,0h.013a.371.371,0,0,0,.268-.45h0a.374.374,0,0,0-.093-.167l-.344-.355a.1.1,0,0,0-.136,0A.093.093,0,0,0,187.447,121.2Z" transform="translate(-55.578 -81.579)"/><path class="cls-35" d="M184.49,120.271l-.22.443a.372.372,0,0,0,.167.5h0a.39.39,0,0,0,.187.038h.012a.371.371,0,0,0,.349-.392h0a.358.358,0,0,0-.06-.182l-.269-.414a.1.1,0,0,0-.14-.021.1.1,0,0,0-.027.03Z" transform="translate(-55.578 -81.579)"/><path class="cls-35" d="M186.047,119.758l-.342-.356a.37.37,0,0,0-.524-.012.378.378,0,0,0-.1.163v.012a.372.372,0,0,0,.25.462.379.379,0,0,0,.192,0l.481-.113a.1.1,0,0,0,.071-.116A.093.093,0,0,0,186.047,119.758Z" transform="translate(-55.578 -81.579)"/><path class="cls-35" d="M186.357,122.6l.488-.082a.371.371,0,0,0,.306-.426.363.363,0,0,0-.078-.174l-.008-.01a.371.371,0,0,0-.634.1l-.178.461a.1.1,0,0,0,.055.124A.1.1,0,0,0,186.357,122.6Z" transform="translate(-55.578 -81.579)"/><path class="cls-35" d="M186.855,120.1l.219.443a.371.371,0,0,0,.5.168.376.376,0,0,0,.143-.125l.007-.01a.371.371,0,0,0-.28-.578l-.5-.037a.1.1,0,0,0-.1.1.123.123,0,0,0,.008.038Z" transform="translate(-55.578 -81.579)"/><path class="cls-35" d="M186.166,120.682l-.411.274a.372.372,0,0,0-.1.515.38.38,0,0,0,.142.125l.011.006a.373.373,0,0,0,.5-.166h0a.377.377,0,0,0,.039-.187l-.029-.493a.1.1,0,0,0-.1-.088A.09.09,0,0,0,186.166,120.682Z" transform="translate(-55.578 -81.579)"/><path class="cls-35" d="M186.556,119.183l-.411.275a.369.369,0,0,0-.1.512v0a.38.38,0,0,0,.142.125h.011a.372.372,0,0,0,.5-.164v0a.365.365,0,0,0,.038-.186l-.028-.494a.1.1,0,0,0-.106-.087A.118.118,0,0,0,186.556,119.183Z" transform="translate(-55.578 -81.579)"/><circle class="cls-33" cx="135.251" cy="44.841" r="1.856"/><path class="cls-42" d="M99.291,109.412a4.423,4.423,0,0,0-2.926,2.82v.007a5.55,5.55,0,0,0,3.987-.2,4.417,4.417,0,0,0,2.926-2.82v-.008A5.55,5.55,0,0,0,99.291,109.412Z" transform="translate(-55.578 -81.579)"/><path class="cls-42" d="M94.1,110.531A3.568,3.568,0,0,1,96.267,113h0a4.5,4.5,0,0,1-3.2-.431A3.553,3.553,0,0,1,90.9,110.1h0A4.5,4.5,0,0,1,94.1,110.531Z" transform="translate(-55.578 -81.579)"/><ellipse class="cls-43" cx="40.813" cy="33.274" rx="0.84" ry="3.912"/><ellipse class="cls-43" cx="40.665" cy="48.985" rx="1.599" ry="0.766"/><path class="cls-44" d="M102.947,112.936a5.524,5.524,0,0,0-1.693-.263,5.435,5.435,0,0,0-3.989,1.635c-.046.047-.092.083-.139.126a1.367,1.367,0,0,1-1.788,0c-.046-.038-.093-.083-.139-.126a5.432,5.432,0,0,0-3.989-1.635,5.533,5.533,0,0,0-1.693.263s-5.785,1.61-5.785,8.793,9.6,9.127,9.6,9.127l.719.149a2.96,2.96,0,0,0,.555.056,1.772,1.772,0,0,0,1.3-.532.562.562,0,0,1,.053-.046.44.44,0,0,1,.567,0,.389.389,0,0,1,.053.046,1.77,1.77,0,0,0,1.3.532,5.267,5.267,0,0,0,.615-.044l.754-.179s9.487-1.927,9.487-9.109S102.947,112.936,102.947,112.936Z" transform="translate(-55.578 -81.579)"/><text class="cls-45" transform="translate(11.548 48.401)">F</text><text class="cls-46" transform="translate(11.548 48.401)">F</text><text class="cls-45" transform="translate(55.274 48.401)">ODC</text><text class="cls-46" transform="translate(55.274 48.401)">ODC</text><text class="cls-47" transform="translate(144.592 48.401)">RP</text><text class="cls-48" transform="translate(144.592 48.401)">RP</text><rect class="cls-49" x="50.307" y="70.086" width="91.435" height="23.163" rx="3"/><text class="cls-50" transform="translate(65.338 87.984)">Si<tspan class="cls-51" x="14.886" y="0">g</tspan><tspan class="cls-52" x="25.74" y="0">n Up</tspan></text></svg>