<svg xmlns="http://www.w3.org/2000/svg" viewBox="0 0 114.909 114.909"><title>volunteer</title><circle cx="57.455" cy="57.455" r="57.455" style="fill:#ff9d38"/><path d="M133.067,105.6,125.5,90.419a1.573,1.573,0,0,0-.343-.455,1.433,1.433,0,0,0-.476-.286l-8.876-3.19a5.624,5.624,0,0,0-3.933.038L105.134,89.1a14.606,14.606,0,0,0-1.409.627c-.155.08-.307.167-.459.253a12.352,12.352,0,0,0-1.593-.725,12.206,12.206,0,0,0-5.327-.734l-4.531.389a1.381,1.381,0,0,0-.582.187,1.512,1.512,0,0,0-.461.428l-10.2,14.525a1.622,1.622,0,0,0-.288,1.079,1.6,1.6,0,0,0,.461,1.007l4.438,4.4a3.6,3.6,0,0,0,2.931,5.319c.052,0,.1,0,.156,0a3.6,3.6,0,0,0,3.2,4.674A3.6,3.6,0,0,0,94.8,125.5a3.574,3.574,0,0,0,2.547-1.059,3.614,3.614,0,0,0,3.329,3.051c.079.005.16.009.239.009a3.569,3.569,0,0,0,1.251-.229,3.7,3.7,0,0,0,2.211.627,3.774,3.774,0,0,0,2.557-1.168l-2.44-2.435c0-.057.016-.111.018-.169a3.6,3.6,0,0,0-.176-1.371l4.995,4.982a4.837,4.837,0,0,0,2.031.356,5.026,5.026,0,0,0,3.605-1.778l.5-.58a.8.8,0,0,0,.112-.182l-7.691-7.67a.545.545,0,0,1-.038-.729.459.459,0,0,1,.679-.015l9.147,9.122a4.255,4.255,0,0,0,1.586.237,4.421,4.421,0,0,0,3.171-1.565l1.208-1.4a1.8,1.8,0,0,0,.426-1.231l-8.026-8a.546.546,0,0,1-.038-.728.457.457,0,0,1,.678-.016l8.065,8.041a3.458,3.458,0,0,0,1.036.118,3.614,3.614,0,0,0,2.595-1.281l.325-.376a4.224,4.224,0,0,0-.2-5.667l-2.153-2.146.544.541,5.821-5.256a1.576,1.576,0,0,0,.493-.9A1.663,1.663,0,0,0,133.067,105.6Zm-44.853,8.694a2.049,2.049,0,0,1,.131-4.093c.046,0,.092,0,.137,0a2.049,2.049,0,1,1-.268,4.089Zm3.49,4.687a2.048,2.048,0,0,1-1.51-3.433c.039-.04.838-.886,1.221-1.29l.2-.214a2.049,2.049,0,1,1,2.976,2.816l-.57.6-.386.408-.066.07-.255.268c-.039.042-.078.085-.118.125l-.019.021A2.028,2.028,0,0,1,91.7,118.978Zm4.574,4.331a2.049,2.049,0,0,1-2.883.065,2.053,2.053,0,0,1-.1-2.869l1.019-1.078h0l.395-.417c.692-.732.919-.97,1-1.053a.338.338,0,0,0,.027-.026h0v0c.067-.072.106-.112.107-.113a2.049,2.049,0,1,1,2.975,2.818Zm4.5,2.623a2.049,2.049,0,0,1,.13-4.094c.046,0,.092,0,.138.005a2.049,2.049,0,0,1-.268,4.089Zm25.045-14.216-15.945-15.9h0l.18-.454a.872.872,0,0,0-.055-.752.752.752,0,0,0-.6-.384l-1.185-.071h0l-1.3-.076-.1,1.534a17.854,17.854,0,0,1-2.038,6.675,9.438,9.438,0,0,1-4.609,4.422,6.768,6.768,0,0,1-1.2.156,1.4,1.4,0,0,1-.6-.109l-.6-.28a1.07,1.07,0,0,1-.55-.609,1.169,1.169,0,0,1,0-.822l6.064-13.309,1.032-.68.415-.158h0L112.354,88a4.307,4.307,0,0,1,1.491-.283h.042a4.281,4.281,0,0,1,1.454.255l8.876,3.19,7.571,15.178Z" transform="translate(-49.63 -43.275)" style="fill:#5e889e"/><path d="M134.454,80.726l-5.992,2.987a3.768,3.768,0,0,0-1.69,5.053l7.846,15.729a3.768,3.768,0,0,0,5.052,1.69l5.991-2.99Zm5.2,22.479a1.444,1.444,0,1,1,1.445-1.443A1.444,1.444,0,0,1,139.654,103.205Z" transform="translate(-49.63 -43.275)" style="fill:#5e889e"/><path d="M68.509,99.766l5.478,3.848a3.768,3.768,0,0,0,5.247-.916l10.1-14.384a3.767,3.767,0,0,0-.916-5.248l-5.479-3.848Zm4.725-.739a1.444,1.444,0,1,1,1.213,1.643A1.445,1.445,0,0,1,73.234,99.027Z" transform="translate(-49.63 -43.275)" style="fill:#5e889e"/></svg>